M48
;Layer_Color=9474304
;FILE_FORMAT=4:2
METRIC,LZ
;TYPE=PLATED
T2F00S00C0.64
T3F00S00C0.71
T4F00S00C0.85
T5F00S00C3.05
;TYPE=NON_PLATED
T6F00S00C1.55
%
T02
X009385Y003924
X005127Y004886
T03
X003685Y00395
X004508Y003823
X005486Y003734
X005842Y003899
X006706Y003645
X007582
X008039Y003899
X009207Y003682
X009449Y003772
X009741Y003962
X009931
X010211
X009843Y003619
X009614Y003365
X009436Y004229
X009398Y00461
X009728Y004496
X009931
Y004318
Y00414
X010211
Y004318
Y004496
X010262Y005626
Y006121
X010058
X010147Y006299
X010312
X010262Y00649
X010058
X009715Y006401
X009563Y006477
X009589Y006274
X009703Y006121
X009601Y005575
X009919Y005461
X009106Y005612
X00922Y005918
X009195Y006261
X009068Y006553
X009202Y006673
X009081Y006998
X00856Y006921
X008026Y007188
X00828Y00776
X009322Y007442
X009766Y007398
X009919Y006871
X01016Y006998
X008395Y006248
X008026Y005867
X008103Y004813
X008039Y004445
X008611Y004229
X009068Y004775
X007582Y004762
X007722Y004407
X007734Y004026
X006312
X006553Y004407
X006439Y004788
X006706Y004762
X005842
X005817Y004953
Y005156
X006058
X006185Y005321
X005944Y005499
X005753Y00541
X005232Y005296
X004978Y005131
X00475Y005563
X004623Y005702
X004978Y006033
X00501Y00675
X004685Y006605
X004242Y006744
X00461Y00715
X006248Y006782
X006553Y006655
X006693Y005893
X006579Y005524
X006426Y005651
X007582Y005893
X007722Y005524
X007925Y005512
X007912Y006388
X007633Y006452
X007709Y006655
X007112Y007188
X006185Y007798
X005626Y004801
X00569Y004572
X005321Y004585
X005232Y004394
X005626Y004013
X004674Y004635
X004508Y004508
X004115Y004331
X004013Y00522
X004153Y005436
X003835Y005321
X003619Y005207
X003759Y004978
X003569Y00461
X003467Y00447
X003391Y004775
X003467Y005448
X003277Y005893
X003404Y006287
X003086Y006248
X003111Y006452
X003073Y006909
X003023Y007811
X003302
X003454Y007925
X003632Y007811
Y008014
Y008268
X003454Y008166
Y008395
X003442Y008649
Y00889
X003302Y008776
X003289Y008509
X003302Y008268
Y008014
X003023
X002832Y008217
Y008954
X00381Y009081
X004064Y00903
X004661Y008979
X004915
X004737Y008522
X004432Y008725
X004737Y008014
X006464Y008357
X007976Y008636
Y008801
Y008966
X008141
Y008801
Y008636
X00828Y008484
X008534Y008496
X008407Y008712
X009144Y008839
X009322Y008877
Y008484
X009335Y008115
X009106
X008839Y008064
X009855Y008192
Y008382
Y008598
X010084
Y008382
Y008192
X0103
Y008382
Y008598
T04
X002807Y003454
Y003708
X003061Y003581
Y003327
X007671Y003365
X007925
X007798Y003111
X007544
X008365Y003467
X008865
X008848Y005499
X008348
X008361Y007607
X008861
X005791Y006972
Y006718
X005537Y006845
Y007099
Y00616
Y005906
X005791Y006033
Y005778
X003061Y005321
Y005067
X002807Y005194
Y005448
X002805Y004584
Y00433
X003058Y004203
Y004457
X005347Y008509
Y008763
X005601Y008636
Y008382
T05
X003708Y003238
X006769Y00315
X010312Y0032
X010439Y007353
X006452Y007125
X003772Y007264
T06
X002987Y003848
X007404Y003292
X005717Y006299
Y007239
X002987Y005588
X002984Y004724
X005527Y008903
M30
