G04*
G04 #@! TF.GenerationSoftware,Altium Limited,Altium Designer,21.9.1 (22)*
G04*
G04 Layer_Physical_Order=4*
G04 Layer_Color=16711680*
%FSLAX42Y42*%
%MOMM*%
G71*
G04*
G04 #@! TF.SameCoordinates,B3A7D64E-7091-44AA-A069-5FD8CBDAA8E7*
G04*
G04*
G04 #@! TF.FilePolarity,Positive*
G04*
G01*
G75*
%ADD16C,0.25*%
%ADD29R,0.80X0.90*%
%ADD67C,0.51*%
%ADD68C,0.38*%
%ADD69C,0.50*%
%ADD70C,1.78*%
%ADD71C,0.76*%
%ADD74O,1.80X0.90*%
%ADD75C,1.52*%
%ADD76R,1.36X1.36*%
%ADD77C,1.36*%
%ADD78C,1.55*%
%ADD79C,1.20*%
%ADD80R,1.20X1.20*%
%ADD81R,1.36X1.36*%
%ADD82C,1.27*%
%ADD84C,0.71*%
%ADD85C,0.64*%
%ADD86C,0.70*%
%ADD87C,1.00*%
G36*
X10020Y4585D02*
Y3899D01*
X9931Y3810D01*
X9703D01*
X9652Y3861D01*
Y4559D01*
X9715Y4623D01*
X9982D01*
X10020Y4585D01*
D02*
G37*
G36*
X10706Y4597D02*
Y3861D01*
X10604Y3759D01*
X10592Y3772D01*
X10160D01*
X10135Y3797D01*
Y3856D01*
X10136Y3861D01*
Y4573D01*
X10236Y4674D01*
X10630D01*
X10706Y4597D01*
D02*
G37*
G36*
X9791Y6516D02*
Y6057D01*
X9627Y5893D01*
X9525D01*
X9398Y6020D01*
Y6477D01*
X9511Y6590D01*
X9716D01*
X9791Y6516D01*
D02*
G37*
G36*
X10668Y6502D02*
Y6020D01*
X10490Y5842D01*
X10084D01*
X9982Y5944D01*
Y6591D01*
X10084Y6693D01*
X10478D01*
X10668Y6502D01*
D02*
G37*
G36*
X10516Y8763D02*
Y8052D01*
X10439Y7976D01*
X9652D01*
X9538Y8090D01*
Y8725D01*
X9652Y8839D01*
X10439D01*
X10516Y8763D01*
D02*
G37*
D16*
X7887Y8090D02*
X8280Y8484D01*
X7887Y6591D02*
Y8090D01*
X7772Y6134D02*
Y6477D01*
X7887Y6591D01*
X7772Y6134D02*
X7925Y5982D01*
Y5512D02*
Y5982D01*
X8280Y7760D02*
Y7764D01*
X8407Y7891D01*
Y8712D01*
D29*
X9646Y4305D02*
D03*
X9506D02*
D03*
X9404Y6337D02*
D03*
X9264D02*
D03*
X9519Y8560D02*
D03*
X9379D02*
D03*
X9646Y4153D02*
D03*
X9506D02*
D03*
X9404Y6210D02*
D03*
X9264D02*
D03*
X9519Y8407D02*
D03*
X9379D02*
D03*
D67*
X3145Y8954D02*
X3196Y9004D01*
X3567D02*
X3617Y8954D01*
X2832D02*
X3145D01*
X3196Y9004D02*
X3567D01*
X3617Y8954D02*
X3988D01*
X4216Y8725D01*
X8026Y7188D02*
X8190D01*
X9106Y8104D01*
X7912Y6388D02*
X8446Y6921D01*
X4216Y8725D02*
X4432D01*
X9510Y3927D02*
X9639Y3797D01*
X9388Y3927D02*
X9510D01*
X9385Y3924D02*
X9388Y3927D01*
X9639Y3569D02*
Y3797D01*
Y3569D02*
X9766Y3442D01*
X9957D01*
X10020Y3505D01*
X10566D01*
X10858Y3797D02*
Y4813D01*
X10566Y3505D02*
X10858Y3797D01*
X10262Y5410D02*
X10858Y4813D01*
X10262Y5410D02*
Y5626D01*
X10084Y3861D02*
Y5296D01*
X9919Y5461D02*
X10084Y5296D01*
X9843Y3619D02*
X10084Y3861D01*
X9919Y5461D02*
Y6871D01*
X10262Y5626D02*
X10503D01*
X10909Y6033D01*
Y6490D01*
X10401Y6998D02*
X10909Y6490D01*
X10160Y6998D02*
X10401D01*
X9081D02*
X10160D01*
X8446Y6921D02*
X8560D01*
X9106Y8104D02*
Y8115D01*
X9068Y5232D02*
X9843Y6007D01*
X9068Y4775D02*
Y5232D01*
X9843Y6007D02*
Y6540D01*
X9741Y6642D02*
X9843Y6540D01*
X9474Y6642D02*
X9741D01*
X9082Y6538D02*
X9370D01*
X9068Y6553D02*
X9082Y6538D01*
X9370D02*
X9474Y6642D01*
X9144Y8839D02*
Y8860D01*
X7671Y3365D02*
Y3374D01*
X7734Y3438D01*
Y4026D01*
D68*
X4645Y5423D02*
X5321D01*
X4623Y5445D02*
X4645Y5423D01*
X4623Y5445D02*
Y5702D01*
X4242Y5245D02*
X4331Y5334D01*
X4166Y5245D02*
X4242D01*
X4331Y5334D02*
Y5613D01*
X3835Y5321D02*
X3840D01*
X3903Y5385D01*
X4026D01*
X4166Y5245D01*
X4153Y5436D02*
Y5537D01*
X4540Y5925D01*
X3766Y4978D02*
X4007Y5220D01*
X4013D01*
X4331Y5613D02*
X4559Y5842D01*
X4699D01*
X4750Y5791D01*
Y5563D02*
X5410D01*
X5817Y5156D01*
X4540Y5925D02*
X5251D01*
X5283Y5791D02*
X5664Y5410D01*
X4750Y5791D02*
X5283D01*
X5664Y5410D02*
X5753D01*
X3759Y4978D02*
X3766D01*
X3923Y5651D02*
X4152D01*
X3619Y5347D02*
X3923Y5651D01*
X3619Y5207D02*
Y5347D01*
X4152Y5651D02*
X4579Y6077D01*
Y6132D01*
X5419Y6972D01*
X4693Y4870D02*
X4978Y4585D01*
X3277Y5067D02*
X3532Y4812D01*
X3449Y4758D02*
X3458Y4750D01*
X3408Y4758D02*
X3449D01*
X3365Y4610D02*
X3569D01*
X3613Y4870D02*
X4693D01*
X3458Y4750D02*
X4267D01*
X3532Y4812D02*
X4497D01*
X2807Y5194D02*
X3289D01*
X3613Y4870D01*
X4497Y4812D02*
X4674Y4635D01*
X4267Y4750D02*
X4508Y4508D01*
X5419Y6972D02*
X5791D01*
X3391Y4775D02*
X3408Y4758D01*
X5523Y5653D02*
X6059D01*
X5251Y5925D02*
X5523Y5653D01*
X6312Y4026D02*
Y5401D01*
X4978Y4585D02*
X5321D01*
X5232Y4394D02*
X5524D01*
X5575Y4445D01*
Y4648D01*
X5626Y4699D01*
X6058Y4661D02*
Y5156D01*
X5626Y4229D02*
X6058Y4661D01*
X5626Y4013D02*
Y4229D01*
X8839Y8064D02*
Y8534D01*
X9144Y8839D01*
X8039Y3899D02*
Y4445D01*
X5626Y4699D02*
Y4801D01*
X5690Y4439D02*
Y4572D01*
X5486Y4236D02*
X5690Y4439D01*
X5105Y6033D02*
X5791Y6718D01*
X4978Y6033D02*
X5105D01*
X5758Y4988D02*
X5793Y4953D01*
X5321Y5423D02*
X5757Y4988D01*
X5793Y4953D02*
X5817D01*
X5757Y4988D02*
X5758D01*
X8026Y5867D02*
X8064D01*
X8217Y5715D01*
Y5333D02*
Y5715D01*
X8103Y5219D02*
X8217Y5333D01*
X8103Y4813D02*
Y5219D01*
X5944Y4864D02*
Y5499D01*
X5842Y4762D02*
X5944Y4864D01*
X5486Y3734D02*
Y4236D01*
X3061Y5067D02*
X3277D01*
X5842Y3899D02*
Y4293D01*
X6185Y4635D01*
X3327Y4458D02*
X3454D01*
X3467Y4470D01*
X3215Y4570D02*
X3327Y4458D01*
X2966Y4570D02*
X3215D01*
X2934Y4537D02*
X2966Y4570D01*
X2934Y4328D02*
Y4537D01*
Y4328D02*
X3058Y4203D01*
X2667Y4468D02*
Y4801D01*
Y4468D02*
X2805Y4330D01*
X2667Y4801D02*
X2769Y4902D01*
X3073D01*
X3365Y4610D01*
X6059Y5653D02*
X6312Y5401D01*
X6185Y4635D02*
Y5321D01*
D69*
X7315Y6769D02*
X7633Y6452D01*
X7315Y6769D02*
Y7201D01*
X6198Y8318D02*
X7315Y7201D01*
X5878Y8318D02*
X6198D01*
X5560Y8636D02*
X5878Y8318D01*
D70*
X9449Y3594D02*
Y3772D01*
X8861Y7607D02*
X9335Y8081D01*
Y8115D02*
Y8865D01*
Y8081D02*
Y8115D01*
X8852Y7599D02*
X8861Y7607D01*
Y3467D02*
Y4229D01*
Y4534D01*
Y4229D02*
X9436D01*
X8852Y6261D02*
X9195D01*
X9131Y6744D02*
X9202Y6673D01*
X8852Y6261D02*
Y6744D01*
Y5867D02*
Y6261D01*
X9169Y5867D02*
X9220Y5918D01*
X8852Y5867D02*
X9169D01*
X8848Y4547D02*
Y5499D01*
Y4547D02*
X8861Y4534D01*
X8852Y5503D02*
Y5867D01*
X8848Y5499D02*
X8852Y5503D01*
Y6744D02*
Y7599D01*
X9322Y8877D02*
X9335Y8865D01*
X9322Y4534D02*
X9398Y4610D01*
X8861Y4534D02*
X9322D01*
Y3467D02*
X9449Y3594D01*
X8865Y3467D02*
X9322D01*
X8852Y6744D02*
X9131D01*
D71*
X3776Y6037D02*
X4296D01*
X5010Y6750D01*
X3061Y5321D02*
X3776Y6037D01*
X3058Y4457D02*
X3264Y4252D01*
Y3785D02*
Y4252D01*
X3061Y3581D02*
X3264Y3785D01*
D74*
X2689Y6906D02*
D03*
Y6246D02*
D03*
D75*
X6452Y7125D02*
D03*
X10312Y3200D02*
D03*
X10439Y7353D02*
D03*
X6769Y3150D02*
D03*
X3772Y7264D02*
D03*
X3708Y3238D02*
D03*
D76*
X5347Y8763D02*
D03*
X5537Y6160D02*
D03*
Y7099D02*
D03*
X2807Y5448D02*
D03*
Y3708D02*
D03*
X2805Y4584D02*
D03*
D77*
X5601Y8636D02*
D03*
X5347Y8509D02*
D03*
X5601Y8382D02*
D03*
X5791Y6033D02*
D03*
X5537Y5906D02*
D03*
X5791Y5778D02*
D03*
Y6718D02*
D03*
X5537Y6845D02*
D03*
X5791Y6972D02*
D03*
X7671Y3365D02*
D03*
X7798Y3111D02*
D03*
X7925Y3365D02*
D03*
X3061Y5321D02*
D03*
X2807Y5194D02*
D03*
X3061Y5067D02*
D03*
Y3327D02*
D03*
X2807Y3454D02*
D03*
X3061Y3581D02*
D03*
X3058Y4203D02*
D03*
X2805Y4330D02*
D03*
X3058Y4457D02*
D03*
D78*
X5527Y8903D02*
D03*
X5717Y6299D02*
D03*
Y7239D02*
D03*
X7404Y3292D02*
D03*
X2987Y5588D02*
D03*
Y3848D02*
D03*
X2984Y4724D02*
D03*
D79*
X8361Y7607D02*
D03*
X8365Y3467D02*
D03*
X8348Y5499D02*
D03*
D80*
X8861Y7607D02*
D03*
X8865Y3467D02*
D03*
X8848Y5499D02*
D03*
D81*
X7544Y3111D02*
D03*
D82*
X9855Y8192D02*
D03*
X3632Y8268D02*
D03*
X3302Y7811D02*
D03*
X3442Y8890D02*
D03*
X3454Y8395D02*
D03*
X3289Y8509D02*
D03*
X3442Y8649D02*
D03*
X3302Y8776D02*
D03*
X6439Y4788D02*
D03*
X6426Y5651D02*
D03*
X6248Y6782D02*
D03*
X6553Y6655D02*
D03*
X6579Y5524D02*
D03*
X7112Y7188D02*
D03*
X6185Y7798D02*
D03*
X3810Y9081D02*
D03*
X9449Y3772D02*
D03*
X9614Y3365D02*
D03*
X9919Y5461D02*
D03*
X9601Y5575D02*
D03*
X9919Y6871D02*
D03*
X9202Y6673D02*
D03*
X10058Y6121D02*
D03*
Y6490D02*
D03*
X9106Y8115D02*
D03*
X4153Y5436D02*
D03*
X4013Y5220D02*
D03*
X4623Y5702D02*
D03*
X4750Y5563D02*
D03*
X3759Y4978D02*
D03*
X3619Y5207D02*
D03*
X3569Y4610D02*
D03*
X3391Y4775D02*
D03*
X9766Y7398D02*
D03*
X6464Y8357D02*
D03*
X3454Y8166D02*
D03*
X2832Y8217D02*
D03*
Y8954D02*
D03*
X3023Y8014D02*
D03*
X3632Y7811D02*
D03*
X3302Y8014D02*
D03*
X3454Y7925D02*
D03*
X3023Y7811D02*
D03*
X3302Y8268D02*
D03*
X3632Y8014D02*
D03*
X4508Y3823D02*
D03*
X6312Y4026D02*
D03*
X7633Y6452D02*
D03*
X7709Y6655D02*
D03*
X9728Y4496D02*
D03*
X9741Y3962D02*
D03*
X9589Y6274D02*
D03*
X5321Y4585D02*
D03*
X10211Y4496D02*
D03*
Y4318D02*
D03*
Y4140D02*
D03*
Y3962D02*
D03*
X9931Y4496D02*
D03*
Y4140D02*
D03*
Y4318D02*
D03*
Y3962D02*
D03*
X9436Y4229D02*
D03*
X9563Y6477D02*
D03*
X9195Y6261D02*
D03*
X9220Y5918D02*
D03*
X9335Y8115D02*
D03*
X9322Y8484D02*
D03*
Y8877D02*
D03*
X9106Y5612D02*
D03*
X9843Y3619D02*
D03*
X8839Y8064D02*
D03*
X9207Y3682D02*
D03*
X9398Y4610D02*
D03*
X9322Y7442D02*
D03*
X9144Y8839D02*
D03*
X7925Y5512D02*
D03*
X8280Y8484D02*
D03*
X7734Y4026D02*
D03*
X8280Y7760D02*
D03*
X8407Y8712D02*
D03*
X8395Y6248D02*
D03*
X9703Y6121D02*
D03*
X10262D02*
D03*
X10147Y6299D02*
D03*
X10262Y6490D02*
D03*
X9715Y6401D02*
D03*
X9068Y6553D02*
D03*
X10300Y8192D02*
D03*
X10084D02*
D03*
X10300Y8382D02*
D03*
X9855D02*
D03*
X10084D02*
D03*
X8534Y8496D02*
D03*
X9855Y8598D02*
D03*
X10084D02*
D03*
X10300D02*
D03*
X8611Y4229D02*
D03*
X8039Y4445D02*
D03*
X9068Y4775D02*
D03*
X4242Y6744D02*
D03*
X5690Y4572D02*
D03*
X4115Y4331D02*
D03*
X5232Y5296D02*
D03*
X4978Y5131D02*
D03*
X7722Y4407D02*
D03*
X3277Y5893D02*
D03*
X7722Y5524D02*
D03*
X6706Y4762D02*
D03*
X7582D02*
D03*
X6553Y4407D02*
D03*
X6706Y3645D02*
D03*
X7582D02*
D03*
Y5893D02*
D03*
X6693D02*
D03*
X4685Y6605D02*
D03*
X3467Y5448D02*
D03*
X3404Y6287D02*
D03*
X3073Y6909D02*
D03*
X3086Y6248D02*
D03*
X3111Y6452D02*
D03*
X4610Y7150D02*
D03*
X3685Y3950D02*
D03*
X4978Y6033D02*
D03*
X8026Y5867D02*
D03*
X8103Y4813D02*
D03*
X5944Y5499D02*
D03*
X5842Y4762D02*
D03*
X5626Y4801D02*
D03*
X5232Y4394D02*
D03*
X4674Y4635D02*
D03*
X5817Y4953D02*
D03*
Y5156D02*
D03*
X4508Y4508D02*
D03*
X5486Y3734D02*
D03*
X5842Y3899D02*
D03*
X5626Y4013D02*
D03*
X3467Y4470D02*
D03*
X8039Y3899D02*
D03*
X7976Y8801D02*
D03*
X8141Y8636D02*
D03*
X7976Y8966D02*
D03*
X8141D02*
D03*
X7976Y8636D02*
D03*
X8141Y8801D02*
D03*
X5010Y6750D02*
D03*
X6185Y5321D02*
D03*
X6058Y5156D02*
D03*
D84*
X8026Y7188D02*
D03*
X7912Y6388D02*
D03*
X4915Y8979D02*
D03*
X4661D02*
D03*
X4432Y8725D02*
D03*
X4737Y8014D02*
D03*
Y8522D02*
D03*
X10262Y5626D02*
D03*
X10160Y6998D02*
D03*
X9081D02*
D03*
X8560Y6921D02*
D03*
X3835Y5321D02*
D03*
X5753Y5410D02*
D03*
X4064Y9030D02*
D03*
X10312Y6299D02*
D03*
D85*
X9385Y3924D02*
D03*
X5127Y4886D02*
D03*
D86*
X5537Y7099D02*
Y7376D01*
X5578Y7417D01*
X5890D01*
X5931Y7376D01*
Y7099D02*
Y7376D01*
X5359Y7099D02*
X5537D01*
X5931D02*
X6248Y6782D01*
X6433Y4794D02*
X6439Y4788D01*
X6433Y4794D02*
Y5645D01*
X6426Y5651D02*
X6433Y5645D01*
X6426Y5651D02*
Y6604D01*
X6248Y6782D02*
X6426Y6604D01*
X5010Y6750D02*
X5359Y7099D01*
D87*
X6236Y8064D02*
X7112Y7188D01*
X5156Y8354D02*
X5445Y8064D01*
X6236D01*
X5156Y8612D02*
X5306Y8763D01*
X5156Y8354D02*
Y8612D01*
M02*
