G04*
G04 #@! TF.GenerationSoftware,Altium Limited,Altium Designer,21.9.1 (22)*
G04*
G04 Layer_Color=8421504*
%FSLAX42Y42*%
%MOMM*%
G71*
G04*
G04 #@! TF.SameCoordinates,B3A7D64E-7091-44AA-A069-5FD8CBDAA8E7*
G04*
G04*
G04 #@! TF.FilePolarity,Positive*
G04*
G01*
G75*
G04:AMPARAMS|DCode=18|XSize=1.55mm|YSize=0.6mm|CornerRadius=0.02mm|HoleSize=0mm|Usage=FLASHONLY|Rotation=0.000|XOffset=0mm|YOffset=0mm|HoleType=Round|Shape=RoundedRectangle|*
%AMROUNDEDRECTD18*
21,1,1.55,0.57,0,0,0.0*
21,1,1.52,0.60,0,0,0.0*
1,1,0.03,0.76,-0.28*
1,1,0.03,-0.76,-0.28*
1,1,0.03,-0.76,0.28*
1,1,0.03,0.76,0.28*
%
%ADD18ROUNDEDRECTD18*%
%ADD19R,0.60X0.25*%
%ADD20R,0.25X0.60*%
%ADD21R,1.35X0.40*%
%ADD22R,1.40X1.60*%
%ADD23R,1.90X1.90*%
%ADD24R,1.36X0.50*%
%ADD25R,0.50X1.36*%
%ADD26R,2.00X1.70*%
%ADD27R,2.79X0.74*%
%ADD28R,0.60X1.00*%
%ADD29R,0.80X0.90*%
%ADD30R,0.90X0.80*%
%ADD31R,0.60X1.62*%
%ADD32R,0.70X0.90*%
%ADD33R,0.90X0.70*%
%ADD34R,4.45X3.56*%
%ADD35O,2.20X0.60*%
%ADD36R,3.56X4.45*%
G36*
X6395Y8781D02*
X6241D01*
Y8924D01*
X6395D01*
Y8781D01*
D02*
G37*
G36*
X6155D02*
X6001D01*
Y8924D01*
X6155D01*
Y8781D01*
D02*
G37*
G36*
X6395Y8552D02*
X6241D01*
Y8695D01*
X6395D01*
Y8552D01*
D02*
G37*
G36*
X6155D02*
X6001D01*
Y8695D01*
X6155D01*
Y8552D01*
D02*
G37*
G36*
X9461Y8649D02*
X9461Y8619D01*
X9468D01*
Y8501D01*
X9463Y8496D01*
X9433Y8496D01*
X9428Y8501D01*
Y8619D01*
X9436D01*
Y8649D01*
X9441Y8654D01*
X9456D01*
X9461Y8649D01*
D02*
G37*
G36*
X9391D02*
Y8619D01*
X9398D01*
X9398Y8501D01*
X9393Y8496D01*
X9363Y8496D01*
X9358Y8501D01*
Y8619D01*
X9366D01*
Y8649D01*
X9371Y8654D01*
X9386D01*
X9391Y8649D01*
D02*
G37*
G36*
X3505Y8404D02*
X3234D01*
Y8744D01*
X3505D01*
Y8404D01*
D02*
G37*
G36*
X9463Y8471D02*
X9468Y8466D01*
Y8349D01*
X9461D01*
Y8319D01*
X9456Y8314D01*
X9441D01*
X9436Y8319D01*
X9436Y8349D01*
X9428D01*
Y8466D01*
X9433Y8471D01*
X9463Y8471D01*
D02*
G37*
G36*
X9531Y8649D02*
Y8619D01*
X9538D01*
Y8571D01*
X9623D01*
X9628Y8566D01*
Y8551D01*
X9623Y8546D01*
X9538D01*
Y8521D01*
X9623D01*
X9628Y8516D01*
Y8501D01*
X9623Y8496D01*
X9538D01*
Y8471D01*
X9623D01*
X9628Y8466D01*
Y8451D01*
X9623Y8446D01*
X9538D01*
Y8421D01*
X9623D01*
X9628Y8416D01*
Y8401D01*
X9623Y8396D01*
X9538D01*
Y8349D01*
X9531D01*
Y8319D01*
X9526Y8314D01*
X9511D01*
X9506Y8319D01*
Y8349D01*
X9498D01*
Y8619D01*
X9506D01*
X9506Y8649D01*
X9511Y8654D01*
X9526D01*
X9531Y8649D01*
D02*
G37*
G36*
X9393Y8471D02*
X9398Y8466D01*
Y8349D01*
X9391D01*
X9391Y8319D01*
X9386Y8314D01*
X9371D01*
X9366Y8319D01*
X9366Y8349D01*
X9358D01*
Y8466D01*
X9363Y8471D01*
X9393Y8471D01*
D02*
G37*
G36*
X9328Y6413D02*
X9328Y6383D01*
X9336D01*
Y6266D01*
X9331Y6261D01*
X9301Y6261D01*
X9296Y6266D01*
Y6383D01*
X9303D01*
Y6413D01*
X9308Y6418D01*
X9323D01*
X9328Y6413D01*
D02*
G37*
G36*
X9258D02*
Y6383D01*
X9266D01*
X9266Y6266D01*
X9261Y6261D01*
X9231Y6261D01*
X9226Y6266D01*
Y6383D01*
X9233D01*
Y6413D01*
X9238Y6418D01*
X9253D01*
X9258Y6413D01*
D02*
G37*
G36*
X9331Y6236D02*
X9336Y6231D01*
Y6113D01*
X9328D01*
Y6083D01*
X9323Y6078D01*
X9308D01*
X9303Y6083D01*
X9303Y6113D01*
X9296D01*
Y6231D01*
X9301Y6236D01*
X9331Y6236D01*
D02*
G37*
G36*
X9398Y6413D02*
Y6383D01*
X9406D01*
Y6336D01*
X9491D01*
X9496Y6331D01*
Y6316D01*
X9491Y6311D01*
X9406D01*
Y6286D01*
X9491D01*
X9496Y6281D01*
Y6266D01*
X9491Y6261D01*
X9406D01*
Y6236D01*
X9491D01*
X9496Y6231D01*
Y6216D01*
X9491Y6211D01*
X9406D01*
Y6186D01*
X9491D01*
X9496Y6181D01*
Y6166D01*
X9491Y6161D01*
X9406D01*
Y6113D01*
X9398D01*
Y6083D01*
X9393Y6078D01*
X9378D01*
X9373Y6083D01*
Y6113D01*
X9366D01*
Y6383D01*
X9373D01*
X9373Y6413D01*
X9378Y6418D01*
X9393D01*
X9398Y6413D01*
D02*
G37*
G36*
X9261Y6236D02*
X9266Y6231D01*
Y6113D01*
X9258D01*
X9258Y6083D01*
X9253Y6078D01*
X9238D01*
X9233Y6083D01*
X9233Y6113D01*
X9226D01*
Y6231D01*
X9231Y6236D01*
X9261Y6236D01*
D02*
G37*
G36*
X9575Y4394D02*
X9575Y4364D01*
X9582D01*
Y4247D01*
X9577Y4242D01*
X9547Y4242D01*
X9542Y4247D01*
Y4364D01*
X9550D01*
Y4394D01*
X9555Y4399D01*
X9570D01*
X9575Y4394D01*
D02*
G37*
G36*
X9505D02*
Y4364D01*
X9512D01*
X9512Y4247D01*
X9507Y4242D01*
X9477Y4242D01*
X9472Y4247D01*
Y4364D01*
X9480D01*
Y4394D01*
X9485Y4399D01*
X9500D01*
X9505Y4394D01*
D02*
G37*
G36*
X9577Y4217D02*
X9582Y4212D01*
Y4094D01*
X9575D01*
Y4064D01*
X9570Y4059D01*
X9555D01*
X9550Y4064D01*
X9550Y4094D01*
X9542D01*
Y4212D01*
X9547Y4217D01*
X9577Y4217D01*
D02*
G37*
G36*
X9645Y4394D02*
Y4364D01*
X9652D01*
Y4317D01*
X9737D01*
X9742Y4312D01*
Y4297D01*
X9737Y4292D01*
X9652D01*
Y4267D01*
X9737D01*
X9742Y4262D01*
Y4247D01*
X9737Y4242D01*
X9652D01*
Y4217D01*
X9737D01*
X9742Y4212D01*
Y4197D01*
X9737Y4192D01*
X9652D01*
Y4167D01*
X9737D01*
X9742Y4162D01*
Y4147D01*
X9737Y4142D01*
X9652D01*
Y4094D01*
X9645D01*
Y4064D01*
X9640Y4059D01*
X9625D01*
X9620Y4064D01*
Y4094D01*
X9612D01*
Y4364D01*
X9620D01*
X9620Y4394D01*
X9625Y4399D01*
X9640D01*
X9645Y4394D01*
D02*
G37*
G36*
X9507Y4217D02*
X9512Y4212D01*
Y4094D01*
X9505D01*
X9505Y4064D01*
X9500Y4059D01*
X9485D01*
X9480Y4064D01*
X9480Y4094D01*
X9472D01*
Y4212D01*
X9477Y4217D01*
X9507Y4217D01*
D02*
G37*
D18*
X3640Y8764D02*
D03*
Y8638D02*
D03*
Y8511D02*
D03*
Y8383D02*
D03*
X3100D02*
D03*
Y8511D02*
D03*
Y8638D02*
D03*
Y8764D02*
D03*
D19*
X9168Y8409D02*
D03*
Y8459D02*
D03*
Y8509D02*
D03*
Y8559D02*
D03*
X9036Y6323D02*
D03*
Y6273D02*
D03*
Y6223D02*
D03*
Y6173D02*
D03*
X9282Y4154D02*
D03*
Y4204D02*
D03*
Y4254D02*
D03*
Y4304D02*
D03*
D20*
X9221Y8624D02*
D03*
X9271D02*
D03*
X9321D02*
D03*
Y8344D02*
D03*
X9271D02*
D03*
X9221D02*
D03*
X9088Y6108D02*
D03*
X9138D02*
D03*
X9188D02*
D03*
Y6388D02*
D03*
X9138D02*
D03*
X9088D02*
D03*
X9335Y4369D02*
D03*
X9385D02*
D03*
X9435D02*
D03*
Y4089D02*
D03*
X9385D02*
D03*
X9335D02*
D03*
D21*
X2956Y6706D02*
D03*
Y6641D02*
D03*
Y6576D02*
D03*
Y6511D02*
D03*
Y6446D02*
D03*
D22*
X2934Y6896D02*
D03*
Y6256D02*
D03*
D23*
X2689Y6696D02*
D03*
Y6456D02*
D03*
D24*
X4119Y4470D02*
D03*
Y4550D02*
D03*
Y4630D02*
D03*
Y4710D02*
D03*
Y4790D02*
D03*
Y4870D02*
D03*
Y4950D02*
D03*
Y5030D02*
D03*
X4974D02*
D03*
Y4950D02*
D03*
Y4870D02*
D03*
Y4790D02*
D03*
Y4710D02*
D03*
Y4630D02*
D03*
Y4550D02*
D03*
Y4470D02*
D03*
D25*
X4267Y5177D02*
D03*
X4347D02*
D03*
X4427D02*
D03*
X4507D02*
D03*
X4587D02*
D03*
X4667D02*
D03*
X4747D02*
D03*
X4827D02*
D03*
Y4322D02*
D03*
X4747D02*
D03*
X4667D02*
D03*
X4587D02*
D03*
X4507D02*
D03*
X4427D02*
D03*
X4347D02*
D03*
X4267D02*
D03*
D26*
X4106Y8230D02*
D03*
X4606D02*
D03*
D27*
X3886Y5575D02*
D03*
X3480D02*
D03*
X3886Y5702D02*
D03*
X3480D02*
D03*
X3886Y5829D02*
D03*
X3480D02*
D03*
X3886Y5956D02*
D03*
X3480D02*
D03*
X3886Y6083D02*
D03*
X3480D02*
D03*
D28*
X4705Y6750D02*
D03*
X4515D02*
D03*
X4705Y7010D02*
D03*
X4610D02*
D03*
X4515D02*
D03*
X3315Y6699D02*
D03*
X3505D02*
D03*
X3315Y6439D02*
D03*
X3410D02*
D03*
X3505D02*
D03*
D29*
X4883Y8077D02*
D03*
X5023D02*
D03*
X4883Y8204D02*
D03*
X5023D02*
D03*
X4883Y8331D02*
D03*
X5023D02*
D03*
X4883Y8458D02*
D03*
X5023D02*
D03*
X4883Y8585D02*
D03*
X5023D02*
D03*
X2991Y8192D02*
D03*
X3131D02*
D03*
X5607Y7798D02*
D03*
X5747D02*
D03*
X9458Y3264D02*
D03*
X9318D02*
D03*
X9643Y7175D02*
D03*
X9503D02*
D03*
X4248Y3950D02*
D03*
X4108D02*
D03*
X5201Y6248D02*
D03*
X5061D02*
D03*
X4108Y4178D02*
D03*
X4248D02*
D03*
X5188Y5448D02*
D03*
X5048D02*
D03*
X5099Y5283D02*
D03*
X4959D02*
D03*
D30*
X4978Y8858D02*
D03*
Y8718D02*
D03*
X4851Y8858D02*
D03*
Y8718D02*
D03*
X4724Y8858D02*
D03*
Y8718D02*
D03*
X4597Y8858D02*
D03*
Y8718D02*
D03*
X2832Y8782D02*
D03*
Y8642D02*
D03*
Y8503D02*
D03*
Y8363D02*
D03*
X3810Y8769D02*
D03*
Y8909D02*
D03*
X3810Y8630D02*
D03*
Y8490D02*
D03*
X4064Y8909D02*
D03*
Y8769D02*
D03*
X4191Y8909D02*
D03*
Y8769D02*
D03*
X3937Y8909D02*
D03*
Y8769D02*
D03*
X9271Y5429D02*
D03*
Y5289D02*
D03*
X9538Y3613D02*
D03*
Y3473D02*
D03*
X9601Y5289D02*
D03*
Y5429D02*
D03*
X9741Y7658D02*
D03*
Y7518D02*
D03*
X5118Y5163D02*
D03*
Y5023D02*
D03*
X7595Y4394D02*
D03*
Y4534D02*
D03*
X4851Y6597D02*
D03*
Y6738D02*
D03*
X4381Y6890D02*
D03*
Y6750D02*
D03*
X7582Y5518D02*
D03*
Y5658D02*
D03*
X6693Y6648D02*
D03*
Y6788D02*
D03*
X7582Y6636D02*
D03*
Y6776D02*
D03*
X4508Y3949D02*
D03*
Y4089D02*
D03*
X6693Y5518D02*
D03*
Y5658D02*
D03*
Y4400D02*
D03*
Y4540D02*
D03*
D31*
X6388Y8367D02*
D03*
X6261D02*
D03*
X6134D02*
D03*
X6007D02*
D03*
D32*
X3428Y9055D02*
D03*
X3278D02*
D03*
X8862Y3962D02*
D03*
X8712D02*
D03*
X8865Y4140D02*
D03*
X8715D02*
D03*
X8865Y4318D02*
D03*
X8715D02*
D03*
X8484Y6160D02*
D03*
X8634D02*
D03*
X8484Y5982D02*
D03*
X8634D02*
D03*
X8485Y6337D02*
D03*
X8635D02*
D03*
X8865Y4496D02*
D03*
X8715D02*
D03*
X8485Y6528D02*
D03*
X8635D02*
D03*
X8637Y8750D02*
D03*
X8787D02*
D03*
X8637Y8407D02*
D03*
X8787D02*
D03*
X8637Y8242D02*
D03*
X8787D02*
D03*
X8637Y8585D02*
D03*
X8787D02*
D03*
X3812Y3950D02*
D03*
X3962D02*
D03*
X6044Y7798D02*
D03*
X5894D02*
D03*
D33*
X2667Y8636D02*
D03*
Y8786D02*
D03*
X2667Y8358D02*
D03*
Y8508D02*
D03*
X9207Y3949D02*
D03*
Y3799D02*
D03*
X9373Y3468D02*
D03*
Y3618D02*
D03*
X9030Y5702D02*
D03*
Y5852D02*
D03*
X9436Y5284D02*
D03*
Y5434D02*
D03*
X9322Y7719D02*
D03*
Y7569D02*
D03*
X9525Y7719D02*
D03*
Y7569D02*
D03*
X4521Y6489D02*
D03*
Y6338D02*
D03*
D34*
X10782Y4432D02*
D03*
Y3772D02*
D03*
Y5893D02*
D03*
Y6579D02*
D03*
Y8077D02*
D03*
Y8763D02*
D03*
D35*
X7377Y4762D02*
D03*
Y4890D02*
D03*
Y5017D02*
D03*
Y5144D02*
D03*
Y5271D02*
D03*
Y5397D02*
D03*
Y5524D02*
D03*
Y5651D02*
D03*
X6897Y4762D02*
D03*
Y4890D02*
D03*
Y5017D02*
D03*
Y5144D02*
D03*
Y5271D02*
D03*
Y5397D02*
D03*
Y5524D02*
D03*
Y5651D02*
D03*
X6899Y6782D02*
D03*
Y6655D02*
D03*
Y6528D02*
D03*
Y6401D02*
D03*
Y6274D02*
D03*
Y6147D02*
D03*
Y6020D02*
D03*
Y5893D02*
D03*
X7379Y6782D02*
D03*
Y6655D02*
D03*
Y6528D02*
D03*
Y6401D02*
D03*
Y6274D02*
D03*
Y6147D02*
D03*
Y6020D02*
D03*
Y5893D02*
D03*
X6899Y4534D02*
D03*
Y4407D02*
D03*
Y4280D02*
D03*
Y4153D02*
D03*
Y4026D02*
D03*
Y3899D02*
D03*
Y3772D02*
D03*
Y3645D02*
D03*
X7379Y4534D02*
D03*
Y4407D02*
D03*
Y4280D02*
D03*
Y4153D02*
D03*
Y4026D02*
D03*
Y3899D02*
D03*
Y3772D02*
D03*
Y3645D02*
D03*
D36*
X7658Y8801D02*
D03*
X7112D02*
D03*
M02*
