G04*
G04 #@! TF.GenerationSoftware,Altium Limited,Altium Designer,21.9.1 (22)*
G04*
G04 Layer_Physical_Order=1*
G04 Layer_Color=255*
%FSLAX42Y42*%
%MOMM*%
G71*
G04*
G04 #@! TF.SameCoordinates,B3A7D64E-7091-44AA-A069-5FD8CBDAA8E7*
G04*
G04*
G04 #@! TF.FilePolarity,Positive*
G04*
G01*
G75*
%ADD16C,0.25*%
G04:AMPARAMS|DCode=18|XSize=1.55mm|YSize=0.6mm|CornerRadius=0.02mm|HoleSize=0mm|Usage=FLASHONLY|Rotation=0.000|XOffset=0mm|YOffset=0mm|HoleType=Round|Shape=RoundedRectangle|*
%AMROUNDEDRECTD18*
21,1,1.55,0.57,0,0,0.0*
21,1,1.52,0.60,0,0,0.0*
1,1,0.03,0.76,-0.28*
1,1,0.03,-0.76,-0.28*
1,1,0.03,-0.76,0.28*
1,1,0.03,0.76,0.28*
%
%ADD18ROUNDEDRECTD18*%
%ADD19R,0.60X0.25*%
%ADD20R,0.25X0.60*%
%ADD21R,1.35X0.40*%
%ADD22R,1.40X1.60*%
%ADD23R,1.90X1.90*%
%ADD24R,1.36X0.50*%
%ADD25R,0.50X1.36*%
%ADD26R,2.00X1.70*%
%ADD27R,2.79X0.74*%
%ADD28R,0.60X1.00*%
%ADD29R,0.80X0.90*%
%ADD30R,0.90X0.80*%
%ADD31R,0.60X1.62*%
%ADD32R,0.70X0.90*%
%ADD33R,0.90X0.70*%
%ADD34R,4.45X3.56*%
%ADD35O,2.20X0.60*%
%ADD36R,3.56X4.45*%
%ADD62R,2.95X4.90*%
%ADD63R,0.50X1.68*%
%ADD64R,1.40X3.50*%
%ADD65R,0.50X3.50*%
%ADD66R,4.80X4.58*%
%ADD67C,0.51*%
%ADD68C,0.38*%
%ADD69C,0.50*%
%ADD70C,1.78*%
%ADD71C,0.76*%
%ADD72C,0.64*%
%ADD73C,0.48*%
%ADD74O,1.80X0.90*%
%ADD75C,1.52*%
%ADD76R,1.36X1.36*%
%ADD77C,1.36*%
%ADD78C,1.55*%
%ADD79C,1.20*%
%ADD80R,1.20X1.20*%
%ADD81R,1.36X1.36*%
%ADD82C,1.27*%
%ADD83C,1.02*%
G36*
X3556Y8852D02*
X3505Y8801D01*
X3238D01*
X3175Y8865D01*
Y8954D01*
X3556D01*
Y8852D01*
D02*
G37*
G36*
X10630Y8928D02*
Y8870D01*
X10629Y8865D01*
X10630Y8860D01*
Y8814D01*
X9563D01*
X9461Y8712D01*
Y8649D01*
X9436D01*
X9429Y8656D01*
Y8821D01*
X9425Y8840D01*
X9423Y8842D01*
Y8903D01*
X9500Y8979D01*
X10579D01*
X10630Y8928D01*
D02*
G37*
G36*
X10236Y8674D02*
X10401D01*
Y8103D01*
X9715D01*
X9500Y8318D01*
Y8674D01*
X9589Y8763D01*
X10147D01*
X10236Y8674D01*
D02*
G37*
G36*
X9468Y8283D02*
X9474D01*
Y8268D01*
X9677Y8064D01*
X10439D01*
X10465Y8090D01*
X10604D01*
Y7973D01*
X10593Y7961D01*
X10582Y7945D01*
X10578Y7925D01*
X10582Y7905D01*
X10588Y7896D01*
X10516Y7823D01*
X9821D01*
X9817Y7824D01*
X9715D01*
X9423Y8115D01*
Y8159D01*
X9425Y8161D01*
X9429Y8180D01*
Y8318D01*
X9468D01*
Y8283D01*
D02*
G37*
G36*
X3734Y7785D02*
X3670Y7722D01*
X2934D01*
X2896Y7760D01*
Y8052D01*
X2921Y8077D01*
X3226D01*
Y8344D01*
X3454Y8395D01*
X3734D01*
Y7785D01*
D02*
G37*
G36*
X10592Y6591D02*
X10429D01*
X10427Y6592D01*
X9487D01*
X9484Y6591D01*
X9449D01*
X9335Y6477D01*
Y6414D01*
X9298D01*
Y6606D01*
X9436Y6744D01*
X10592D01*
Y6591D01*
D02*
G37*
G36*
X9335Y6096D02*
Y6058D01*
X9335Y6057D01*
Y6048D01*
X9344D01*
X9411Y5982D01*
X10617D01*
Y5804D01*
X9449D01*
X9304Y5949D01*
X9303Y5953D01*
X9297Y5963D01*
X9297Y5964D01*
Y6096D01*
X9303Y6103D01*
X9309Y6106D01*
X9309Y6106D01*
X9316Y6105D01*
X9324Y6107D01*
X9335Y6096D01*
D02*
G37*
G36*
X10427Y6020D02*
X9436D01*
X9371Y6085D01*
Y6450D01*
X9487Y6566D01*
X10427D01*
Y6020D01*
D02*
G37*
G36*
X10810Y4609D02*
X10805Y4597D01*
X10328D01*
X10325Y4598D01*
X9703D01*
X9700Y4597D01*
X9677D01*
X9589Y4508D01*
Y4486D01*
X9588Y4483D01*
Y4429D01*
X9582D01*
Y4400D01*
X9576Y4394D01*
X9543D01*
Y4516D01*
X9539Y4535D01*
X9538Y4537D01*
Y4661D01*
X9652Y4775D01*
X10655D01*
X10810Y4609D01*
D02*
G37*
G36*
X10325Y3861D02*
X9741D01*
X9614Y3988D01*
Y4407D01*
Y4483D01*
X9703Y4572D01*
X10325D01*
Y3861D01*
D02*
G37*
G36*
X9582Y4066D02*
Y4029D01*
X9588D01*
Y3988D01*
X9589Y3985D01*
Y3975D01*
X9728Y3835D01*
X9738D01*
X9741Y3835D01*
X10325D01*
X10328Y3835D01*
X10579D01*
Y3649D01*
X10567Y3644D01*
X10478Y3734D01*
X9703Y3734D01*
X9543Y3894D01*
Y4065D01*
X9553Y4073D01*
X9582Y4066D01*
D02*
G37*
D16*
X8954Y7849D02*
Y8204D01*
X9076Y8326D02*
X9220D01*
X8954Y8204D02*
X9076Y8326D01*
X8787Y8242D02*
X8915D01*
X9082Y8409D01*
X9168D01*
X9614Y7785D02*
X9817D01*
X10160Y7442D01*
Y6998D02*
Y7442D01*
X9419Y7980D02*
X9614Y7785D01*
X9385Y3945D02*
X9435Y3995D01*
Y4089D01*
X9385Y3924D02*
Y3945D01*
X9184Y6096D02*
X9187Y6099D01*
X9184Y6025D02*
Y6096D01*
X9138Y6065D02*
Y6108D01*
X9042Y5969D02*
X9138Y6065D01*
X9119Y5960D02*
X9184Y6025D01*
X9119Y5778D02*
Y5960D01*
Y5778D02*
X9169Y5728D01*
X9042Y5866D02*
Y5969D01*
X9753Y5626D02*
X10262D01*
X9651Y5728D02*
X9753Y5626D01*
X9169Y5728D02*
X9651D01*
X9138Y6108D02*
X9138Y6108D01*
X9004Y8164D02*
X9101Y8261D01*
X9004Y7925D02*
Y8164D01*
Y7925D02*
X9207Y7722D01*
X8954Y7849D02*
X9195Y7607D01*
X9326Y7980D02*
X9419D01*
X9233Y8157D02*
X9321Y8245D01*
X9233Y8073D02*
Y8157D01*
Y8073D02*
X9326Y7980D01*
X9101Y8261D02*
X9247D01*
X9321Y8245D02*
Y8344D01*
X9220Y8326D02*
X9221Y8326D01*
Y8344D01*
X8407Y8928D02*
X8911D01*
X8280Y8801D02*
X8407Y8928D01*
X8280Y8484D02*
Y8801D01*
X8787Y8585D02*
X8940D01*
X9016Y8509D02*
X9143D01*
X8940Y8585D02*
X9016Y8509D01*
X9017Y8459D02*
X9168D01*
X8787Y8407D02*
X8966D01*
X9017Y8459D01*
X8634Y6160D02*
X8763D01*
X8827Y6223D02*
X9036D01*
X8763Y6160D02*
X8827Y6223D01*
X8928Y5994D02*
X9025Y6091D01*
X8928Y5613D02*
Y5994D01*
Y5613D02*
X9258Y5283D01*
X9106Y5612D02*
Y5636D01*
X9040Y5702D02*
X9106Y5636D01*
X9322Y3264D02*
Y3265D01*
X9291Y3296D02*
X9322Y3265D01*
X9289Y3296D02*
X9291D01*
X9106Y3480D02*
X9289Y3296D01*
X9106Y3480D02*
Y4001D01*
X9538Y3613D02*
X9544Y3619D01*
X9843D01*
X9247Y8261D02*
X9271Y8284D01*
Y8344D01*
X9106Y4001D02*
X9177Y4072D01*
X9373Y3618D02*
X9533D01*
X9538Y3613D01*
X9373Y3468D02*
X9383D01*
X9363Y3618D02*
X9373D01*
X9340Y3641D02*
X9363Y3618D01*
X9218Y3959D02*
X9291D01*
X9385Y4053D01*
X9207Y3949D02*
X9218Y3959D01*
X9385Y4053D02*
Y4089D01*
X9385Y4089D01*
X9177Y4072D02*
X9335D01*
X9335Y4072D01*
Y4089D01*
X9195Y7239D02*
Y7607D01*
X9207Y7722D02*
X9319D01*
X9195Y7239D02*
X9258Y7175D01*
X9319Y7722D02*
X9322Y7719D01*
X9321Y8624D02*
Y8688D01*
X9144Y8839D02*
X9169D01*
X9321Y8688D01*
X9102Y8738D02*
X9192D01*
X9270Y8659D01*
Y8624D02*
Y8659D01*
X8911Y8928D02*
X9102Y8738D01*
X9270Y8624D02*
X9271Y8624D01*
X9126Y8641D02*
X9220D01*
X8903Y8865D02*
X9126Y8641D01*
X8458Y8865D02*
X8903D01*
X9220Y8641D02*
X9221Y8641D01*
Y8624D02*
Y8641D01*
X7377Y5397D02*
X7811D01*
X7925Y5512D01*
X8407Y8814D02*
X8458Y8865D01*
X8407Y8712D02*
Y8814D01*
X8128Y5423D02*
Y7607D01*
X7976Y5271D02*
X8128Y5423D01*
X8174Y5278D02*
Y6561D01*
X8039Y5144D02*
X8174Y5278D01*
X8219Y5184D02*
Y6492D01*
X8052Y5017D02*
X8219Y5184D01*
X8128Y7607D02*
X8280Y7760D01*
X7404Y5017D02*
X8052D01*
X8174Y6561D02*
X8347Y6734D01*
X7377Y5144D02*
X8039D01*
X8219Y6492D02*
X8382Y6655D01*
X7391Y5271D02*
X7976D01*
X9030Y5702D02*
X9040D01*
X8634Y5982D02*
X8763D01*
X8955Y6173D01*
X9036D01*
X9042Y5866D02*
X9042Y5866D01*
X8972Y6451D02*
X9111D01*
X9134Y6428D01*
X8936Y6406D02*
X9088D01*
X9138Y6389D02*
Y6413D01*
X9134Y6418D02*
Y6428D01*
Y6418D02*
X9138Y6413D01*
X9188Y6389D02*
Y6439D01*
X9025Y6091D02*
X9088D01*
X9088Y6091D02*
Y6108D01*
X9088Y6091D02*
X9088Y6091D01*
X9188Y6389D02*
X9188Y6388D01*
X9138Y6389D02*
X9138Y6388D01*
X9088Y6406D02*
X9088Y6406D01*
Y6388D02*
Y6406D01*
X8459Y4661D02*
X8954D01*
X9068Y4648D02*
Y4775D01*
X7379Y4153D02*
X8115D01*
X7379Y4280D02*
X8078D01*
X8115Y4153D02*
X8560Y4597D01*
X8078Y4280D02*
X8459Y4661D01*
X8862Y3962D02*
X8928D01*
X9120Y4154D01*
X8865Y4140D02*
X8966D01*
X9030Y4204D01*
X9282D01*
X9030Y4254D02*
X9282D01*
X9182Y4432D02*
X9357D01*
X9139Y4386D02*
X9335D01*
X9435Y4369D02*
Y4419D01*
X9357Y4432D02*
X9385Y4405D01*
X9376Y4478D02*
X9435Y4419D01*
X9385Y4369D02*
X9385Y4369D01*
X8954Y4661D02*
X9182Y4432D01*
X9385Y4369D02*
Y4405D01*
X9068Y4648D02*
X9238Y4478D01*
X9376D01*
X9120Y4154D02*
X9282D01*
X9120Y4304D02*
X9282D01*
X8966Y4318D02*
X9030Y4254D01*
X8865Y4318D02*
X8966D01*
X8928Y4496D02*
X9120Y4304D01*
X8865Y4496D02*
X8928D01*
X8928Y4597D02*
X9139Y4386D01*
X8560Y4597D02*
X8928D01*
X8635Y6337D02*
X8763D01*
X8827Y6273D02*
X9036D01*
X8763Y6337D02*
X8827Y6273D01*
X8929Y6323D02*
X9036D01*
X8725Y6528D02*
X8929Y6323D01*
X8635Y6528D02*
X8725D01*
X8687Y6655D02*
X8936Y6406D01*
X8689Y6734D02*
X8972Y6451D01*
X8635Y6528D02*
X8635Y6528D01*
X8347Y6734D02*
X8689D01*
X8382Y6655D02*
X8687D01*
X9068Y6553D02*
X9074D01*
X9188Y6439D01*
X9258Y7175D02*
X9503D01*
X9094Y8559D02*
X9168D01*
X9143Y8509D02*
X9143Y8509D01*
X9151D01*
X8787Y8750D02*
X8787Y8750D01*
X8903D01*
X9094Y8559D01*
D18*
X3640Y8764D02*
D03*
Y8638D02*
D03*
Y8511D02*
D03*
Y8383D02*
D03*
X3100D02*
D03*
Y8511D02*
D03*
Y8638D02*
D03*
Y8764D02*
D03*
D19*
X9168Y8409D02*
D03*
Y8459D02*
D03*
Y8509D02*
D03*
Y8559D02*
D03*
X9036Y6323D02*
D03*
Y6273D02*
D03*
Y6223D02*
D03*
Y6173D02*
D03*
X9282Y4154D02*
D03*
Y4204D02*
D03*
Y4254D02*
D03*
Y4304D02*
D03*
D20*
X9221Y8624D02*
D03*
X9271D02*
D03*
X9321D02*
D03*
Y8344D02*
D03*
X9271D02*
D03*
X9221D02*
D03*
X9088Y6108D02*
D03*
X9138D02*
D03*
X9188D02*
D03*
Y6388D02*
D03*
X9138D02*
D03*
X9088D02*
D03*
X9335Y4369D02*
D03*
X9385D02*
D03*
X9435D02*
D03*
Y4089D02*
D03*
X9385D02*
D03*
X9335D02*
D03*
D21*
X2956Y6706D02*
D03*
Y6641D02*
D03*
Y6576D02*
D03*
Y6511D02*
D03*
Y6446D02*
D03*
D22*
X2934Y6896D02*
D03*
Y6256D02*
D03*
D23*
X2689Y6696D02*
D03*
Y6456D02*
D03*
D24*
X4119Y4470D02*
D03*
Y4550D02*
D03*
Y4630D02*
D03*
Y4710D02*
D03*
Y4790D02*
D03*
Y4870D02*
D03*
Y4950D02*
D03*
Y5030D02*
D03*
X4974D02*
D03*
Y4950D02*
D03*
Y4870D02*
D03*
Y4790D02*
D03*
Y4710D02*
D03*
Y4630D02*
D03*
Y4550D02*
D03*
Y4470D02*
D03*
D25*
X4267Y5177D02*
D03*
X4347D02*
D03*
X4427D02*
D03*
X4507D02*
D03*
X4587D02*
D03*
X4667D02*
D03*
X4747D02*
D03*
X4827D02*
D03*
Y4322D02*
D03*
X4747D02*
D03*
X4667D02*
D03*
X4587D02*
D03*
X4507D02*
D03*
X4427D02*
D03*
X4347D02*
D03*
X4267D02*
D03*
D26*
X4106Y8230D02*
D03*
X4606D02*
D03*
D27*
X3886Y5575D02*
D03*
X3480D02*
D03*
X3886Y5702D02*
D03*
X3480D02*
D03*
X3886Y5829D02*
D03*
X3480D02*
D03*
X3886Y5956D02*
D03*
X3480D02*
D03*
X3886Y6083D02*
D03*
X3480D02*
D03*
D28*
X4705Y6750D02*
D03*
X4515D02*
D03*
X4705Y7010D02*
D03*
X4610D02*
D03*
X4515D02*
D03*
X3315Y6699D02*
D03*
X3505D02*
D03*
X3315Y6439D02*
D03*
X3410D02*
D03*
X3505D02*
D03*
D29*
X4883Y8077D02*
D03*
X5023D02*
D03*
X4883Y8204D02*
D03*
X5023D02*
D03*
X4883Y8331D02*
D03*
X5023D02*
D03*
X4883Y8458D02*
D03*
X5023D02*
D03*
X4883Y8585D02*
D03*
X5023D02*
D03*
X2991Y8192D02*
D03*
X3131D02*
D03*
X5607Y7798D02*
D03*
X5747D02*
D03*
X9458Y3264D02*
D03*
X9318D02*
D03*
X9643Y7175D02*
D03*
X9503D02*
D03*
X4248Y3950D02*
D03*
X4108D02*
D03*
X5201Y6248D02*
D03*
X5061D02*
D03*
X4108Y4178D02*
D03*
X4248D02*
D03*
X5188Y5448D02*
D03*
X5048D02*
D03*
X5099Y5283D02*
D03*
X4959D02*
D03*
D30*
X4978Y8858D02*
D03*
Y8718D02*
D03*
X4851Y8858D02*
D03*
Y8718D02*
D03*
X4724Y8858D02*
D03*
Y8718D02*
D03*
X4597Y8858D02*
D03*
Y8718D02*
D03*
X2832Y8782D02*
D03*
Y8642D02*
D03*
Y8503D02*
D03*
Y8363D02*
D03*
X3810Y8769D02*
D03*
Y8909D02*
D03*
X3810Y8630D02*
D03*
Y8490D02*
D03*
X4064Y8909D02*
D03*
Y8769D02*
D03*
X4191Y8909D02*
D03*
Y8769D02*
D03*
X3937Y8909D02*
D03*
Y8769D02*
D03*
X9271Y5429D02*
D03*
Y5289D02*
D03*
X9538Y3613D02*
D03*
Y3473D02*
D03*
X9601Y5289D02*
D03*
Y5429D02*
D03*
X9741Y7658D02*
D03*
Y7518D02*
D03*
X5118Y5163D02*
D03*
Y5023D02*
D03*
X7595Y4394D02*
D03*
Y4534D02*
D03*
X4851Y6597D02*
D03*
Y6738D02*
D03*
X4381Y6890D02*
D03*
Y6750D02*
D03*
X7582Y5518D02*
D03*
Y5658D02*
D03*
X6693Y6648D02*
D03*
Y6788D02*
D03*
X7582Y6636D02*
D03*
Y6776D02*
D03*
X4508Y3949D02*
D03*
Y4089D02*
D03*
X6693Y5518D02*
D03*
Y5658D02*
D03*
Y4400D02*
D03*
Y4540D02*
D03*
D31*
X6388Y8367D02*
D03*
X6261D02*
D03*
X6134D02*
D03*
X6007D02*
D03*
D32*
X3428Y9055D02*
D03*
X3278D02*
D03*
X8862Y3962D02*
D03*
X8712D02*
D03*
X8865Y4140D02*
D03*
X8715D02*
D03*
X8865Y4318D02*
D03*
X8715D02*
D03*
X8484Y6160D02*
D03*
X8634D02*
D03*
X8484Y5982D02*
D03*
X8634D02*
D03*
X8485Y6337D02*
D03*
X8635D02*
D03*
X8865Y4496D02*
D03*
X8715D02*
D03*
X8485Y6528D02*
D03*
X8635D02*
D03*
X8637Y8750D02*
D03*
X8787D02*
D03*
X8637Y8407D02*
D03*
X8787D02*
D03*
X8637Y8242D02*
D03*
X8787D02*
D03*
X8637Y8585D02*
D03*
X8787D02*
D03*
X3812Y3950D02*
D03*
X3962D02*
D03*
X6044Y7798D02*
D03*
X5894D02*
D03*
D33*
X2667Y8636D02*
D03*
Y8786D02*
D03*
X2667Y8358D02*
D03*
Y8508D02*
D03*
X9207Y3949D02*
D03*
Y3799D02*
D03*
X9373Y3468D02*
D03*
Y3618D02*
D03*
X9030Y5702D02*
D03*
Y5852D02*
D03*
X9436Y5284D02*
D03*
Y5434D02*
D03*
X9322Y7719D02*
D03*
Y7569D02*
D03*
X9525Y7719D02*
D03*
Y7569D02*
D03*
X4521Y6489D02*
D03*
Y6338D02*
D03*
D34*
X10782Y4432D02*
D03*
Y3772D02*
D03*
Y5893D02*
D03*
Y6579D02*
D03*
Y8077D02*
D03*
Y8763D02*
D03*
D35*
X7377Y4762D02*
D03*
Y4890D02*
D03*
Y5017D02*
D03*
Y5144D02*
D03*
Y5271D02*
D03*
Y5397D02*
D03*
Y5524D02*
D03*
Y5651D02*
D03*
X6897Y4762D02*
D03*
Y4890D02*
D03*
Y5017D02*
D03*
Y5144D02*
D03*
Y5271D02*
D03*
Y5397D02*
D03*
Y5524D02*
D03*
Y5651D02*
D03*
X6899Y6782D02*
D03*
Y6655D02*
D03*
Y6528D02*
D03*
Y6401D02*
D03*
Y6274D02*
D03*
Y6147D02*
D03*
Y6020D02*
D03*
Y5893D02*
D03*
X7379Y6782D02*
D03*
Y6655D02*
D03*
Y6528D02*
D03*
Y6401D02*
D03*
Y6274D02*
D03*
Y6147D02*
D03*
Y6020D02*
D03*
Y5893D02*
D03*
X6899Y4534D02*
D03*
Y4407D02*
D03*
Y4280D02*
D03*
Y4153D02*
D03*
Y4026D02*
D03*
Y3899D02*
D03*
Y3772D02*
D03*
Y3645D02*
D03*
X7379Y4534D02*
D03*
Y4407D02*
D03*
Y4280D02*
D03*
Y4153D02*
D03*
Y4026D02*
D03*
Y3899D02*
D03*
Y3772D02*
D03*
Y3645D02*
D03*
D36*
X7658Y8801D02*
D03*
X7112D02*
D03*
D62*
X3370Y8574D02*
D03*
D63*
X9448Y8575D02*
D03*
Y8392D02*
D03*
X9316Y6157D02*
D03*
Y6340D02*
D03*
X9562Y4320D02*
D03*
Y4138D02*
D03*
D64*
X9563Y8484D02*
D03*
X9431Y6248D02*
D03*
X9677Y4229D02*
D03*
D65*
X9378Y8484D02*
D03*
X9246Y6248D02*
D03*
X9492Y4229D02*
D03*
D66*
X6198Y8738D02*
D03*
D67*
X6440Y4788D02*
X6688Y4540D01*
X6439Y4788D02*
X6440D01*
X6693Y5658D02*
X6699Y5651D01*
X6897D01*
X6690Y5655D02*
X6693Y5658D01*
X6426Y5651D02*
X6429Y5655D01*
X6690D01*
X6248Y6782D02*
X6249Y6782D01*
X6899D01*
X3315Y6699D02*
X3319Y6704D01*
X5537Y6160D02*
Y6502D01*
X3319Y6704D02*
Y6724D01*
X4508Y6883D02*
X4699D01*
X4254Y6882D02*
X4256Y6883D01*
X4515Y6890D02*
Y7010D01*
X3478Y6882D02*
X4254D01*
X4508Y6883D02*
X4515Y6890D01*
X4256Y6883D02*
X4508D01*
X3319Y6724D02*
X3478Y6882D01*
X4699Y6883D02*
X5156D01*
X5537Y6502D01*
X5199Y6012D02*
Y6248D01*
X4705Y6750D02*
X5010D01*
X5201Y6248D02*
Y6559D01*
X5010Y6750D02*
X5201Y6559D01*
X7586Y6274D02*
X7798D01*
X7912Y6388D01*
X9741Y7658D02*
X9836D01*
X9736D02*
X9741D01*
X9675Y7719D02*
X9736Y7658D01*
X9525Y7719D02*
X9675D01*
X9515Y7729D02*
X9525Y7719D01*
X9760Y5289D02*
X9919Y5448D01*
Y5461D01*
X9601Y5289D02*
X9760D01*
X9436Y5284D02*
X9439Y5287D01*
X9599D01*
X9601Y5289D01*
X9917Y6873D02*
X9919Y6871D01*
X9917Y6873D02*
Y7577D01*
X9836Y7658D02*
X9917Y7577D01*
X9004Y6921D02*
X9081Y6998D01*
X8560Y6921D02*
X9004D01*
X9202Y6652D02*
Y6673D01*
X9247Y6381D02*
Y6608D01*
X9202Y6652D02*
X9247Y6608D01*
X7459Y6401D02*
X7586Y6274D01*
X7379Y6401D02*
X7459D01*
X9246Y5964D02*
Y6099D01*
X9220Y5939D02*
X9246Y5964D01*
X9220Y5918D02*
Y5939D01*
X9106Y8115D02*
X9492Y7729D01*
X9515D01*
X3805Y8490D02*
X3810D01*
X3428Y9055D02*
X3545D01*
X3609Y8638D02*
X3612Y8634D01*
X3806D02*
X3810Y8630D01*
X3612Y8634D02*
X3806D01*
X3609Y8764D02*
Y8991D01*
X3545Y9055D02*
X3609Y8991D01*
X3069Y8764D02*
X3100D01*
X2832Y8782D02*
X2832Y8782D01*
X3104Y8769D02*
Y9008D01*
X3100Y8764D02*
X3104Y8769D01*
X2830Y8784D02*
X2832Y8782D01*
X2669Y8784D02*
X2830D01*
X2667Y8786D02*
X2669Y8784D01*
X3104Y9008D02*
X3151Y9055D01*
X3278D01*
X2832Y8782D02*
Y8954D01*
X2667Y8508D02*
Y8636D01*
X2670Y8639D02*
X2829D01*
X2667Y8636D02*
X2670Y8639D01*
X2667Y8636D02*
X2667Y8636D01*
X2832Y8642D02*
X2834Y8640D01*
X2829Y8639D02*
X2832Y8642D01*
X3121Y8201D02*
X3131Y8192D01*
X3066Y8640D02*
X3069Y8638D01*
X2845Y8511D02*
X3069D01*
X2834Y8640D02*
X3066D01*
X3121Y8201D02*
Y8379D01*
X3116Y8383D02*
X3121Y8379D01*
X5772Y7798D02*
X5894D01*
X5048Y4950D02*
X5099Y5000D01*
Y5008D01*
X4974Y4950D02*
X4974Y4950D01*
X5048D01*
X5099Y5008D02*
X5113Y5023D01*
X5118D01*
X4898Y4950D02*
X4974D01*
X4827Y5021D02*
X4898Y4950D01*
X4833Y5239D02*
X5054Y5461D01*
X7379Y4026D02*
X7734D01*
X9246Y6380D02*
X9247Y6381D01*
X10681Y8865D02*
X10782Y8763D01*
X10630Y7925D02*
X10782Y8077D01*
X9316Y6157D02*
X9316Y6157D01*
X10668Y6693D02*
X10782Y6579D01*
X10744Y3734D02*
X10782Y3772D01*
X4273Y4467D02*
X4827Y5021D01*
X4273Y4395D02*
Y4467D01*
X5054Y5474D02*
Y5664D01*
X4827Y5021D02*
Y5177D01*
X5055Y5867D02*
X5199Y6012D01*
X6899Y6782D02*
X6899Y6782D01*
X5055Y5665D02*
Y5867D01*
X6401Y8020D02*
X6420Y8039D01*
X7379Y3899D02*
X8039D01*
D68*
X6556Y6652D02*
X6683D01*
X6672Y6651D02*
X6890D01*
X6553Y6655D02*
X6556Y6652D01*
X6582Y5521D02*
X6690D01*
X6579Y5524D02*
X6582Y5521D01*
X6690D02*
X6693Y5518D01*
X6696Y5521D01*
X6894D01*
X2957Y6705D02*
X3308D01*
X4699Y6883D02*
X4705Y6889D01*
X4694Y6999D02*
X4705Y7010D01*
X3308Y6705D02*
X3315Y6699D01*
X2956Y6706D02*
X2957Y6705D01*
X4705Y6889D02*
Y7010D01*
X5664Y5550D02*
Y5906D01*
X5626Y5512D02*
X5664Y5550D01*
X5626Y4801D02*
Y5512D01*
X7379Y6782D02*
X7382Y6779D01*
X7328Y6782D02*
X7379D01*
X7318Y6792D02*
X7328Y6782D01*
X7604Y6779D02*
X7607Y6776D01*
X6185Y7798D02*
X6185Y7798D01*
X6044Y7798D02*
X6185D01*
X3810Y8909D02*
Y9081D01*
X3810Y9081D02*
X3810Y9081D01*
X9538Y3473D02*
X9543D01*
X9597Y3383D02*
Y3419D01*
X9543Y3473D02*
X9597Y3419D01*
Y3383D02*
X9614Y3365D01*
X9434Y5432D02*
X9436Y5434D01*
X9271Y5429D02*
X9274Y5432D01*
X9434D01*
X9068Y6553D02*
Y6731D01*
X9220Y6883D02*
Y7074D01*
X9068Y6731D02*
X9220Y6883D01*
X9068Y7226D02*
Y7620D01*
Y7226D02*
X9220Y7074D01*
X8839Y7849D02*
X9068Y7620D01*
X4587Y5642D02*
X4623Y5678D01*
X4587Y5177D02*
Y5642D01*
X4623Y5678D02*
Y5702D01*
X4153Y5436D02*
X4165Y5423D01*
Y5315D02*
Y5423D01*
X4013Y5220D02*
X4119Y5114D01*
X4667Y5177D02*
Y5475D01*
X4750Y5558D01*
Y5563D01*
X4048Y4956D02*
X4113D01*
X3835Y5169D02*
Y5321D01*
X4113Y4956D02*
X4119Y4950D01*
X3835Y5169D02*
X4048Y4956D01*
X3886Y4902D02*
Y5017D01*
X4119Y4790D02*
X4125Y4784D01*
X3721Y5105D02*
X3797D01*
X3886Y5017D01*
X3619Y5207D02*
X3721Y5105D01*
X3311Y4531D02*
X3759Y4978D01*
X3886Y4902D02*
X3994Y4794D01*
X3311Y4001D02*
Y4531D01*
X3391Y5183D02*
X3783Y5575D01*
X3391Y4775D02*
Y5183D01*
X3569Y4610D02*
Y4612D01*
X3667Y4710D01*
X4184Y5114D02*
Y5296D01*
X4165Y5315D02*
X4184Y5296D01*
X5855Y5309D02*
X5956D01*
X5753Y5410D02*
X5855Y5309D01*
X5956D02*
X6261Y5613D01*
Y6160D01*
X6502Y6401D01*
X6899D01*
X9754Y7410D02*
X9766Y7398D01*
X9741Y7518D02*
X9754Y7505D01*
Y7410D02*
Y7505D01*
X9262Y5439D02*
X9271Y5429D01*
X6388Y8367D02*
X6398Y8357D01*
X6464D01*
X2677Y8358D02*
X2818Y8217D01*
X2667Y8358D02*
X2677D01*
X2832Y8217D02*
X2845Y8204D01*
X2667Y8358D02*
X2669Y8360D01*
X2825D02*
X2827Y8363D01*
X2832Y8217D02*
Y8363D01*
X2818Y8217D02*
X2832D01*
X2827Y8363D02*
X2832D01*
X2832Y8363D01*
X2978Y8204D02*
X2991Y8192D01*
X2845Y8204D02*
X2978D01*
X3467Y4470D02*
X3683D01*
X3842Y4630D02*
X4119D01*
X3683Y4470D02*
X3842Y4630D01*
X3400Y3667D02*
Y4010D01*
X3940Y4550D02*
X4119D01*
X3400Y4010D02*
X3940Y4550D01*
X4508Y3823D02*
Y3949D01*
X4891Y4322D02*
X5061Y4153D01*
X6312Y4026D02*
X6899D01*
X5061Y4153D02*
X6899D01*
X7546Y6528D02*
X7622Y6452D01*
X7379Y6528D02*
X7546D01*
X7622Y6452D02*
X7633D01*
X7699Y6645D02*
X7709Y6655D01*
X7592Y6645D02*
X7699D01*
X7582Y6636D02*
X7592Y6645D01*
X7383Y6651D02*
X7582D01*
X7572Y5521D02*
X7718D01*
X5111Y4630D02*
X5173Y4568D01*
X5304D01*
X5321Y4585D01*
X5925Y5048D02*
X6331D01*
X6426Y5144D02*
X6897D01*
X6331Y5048D02*
X6426Y5144D01*
X6461Y5026D02*
X6620D01*
X5817Y4953D02*
X6388D01*
X6461Y5026D01*
X4980Y4876D02*
X5118D01*
X5127Y4886D01*
X4974Y4790D02*
X5472D01*
X5690Y4572D01*
X4994Y5147D02*
X5102D01*
X4978Y5131D02*
X4994Y5147D01*
X5102D02*
X5118Y5163D01*
X4687Y4622D02*
X4755D01*
X4901Y4476D01*
X4674Y4635D02*
X4687Y4622D01*
X4867Y4427D02*
X4883Y4411D01*
X4786Y4427D02*
X4867D01*
X4974Y4870D02*
X4980Y4876D01*
X6691Y4537D02*
X6895D01*
X6688Y4540D02*
X6691Y4537D01*
X3962Y3950D02*
X4115D01*
X4248Y3950D02*
Y3951D01*
X4347Y4004D02*
Y4322D01*
X4269Y3972D02*
X4315D01*
X4248Y3951D02*
X4269Y3972D01*
X4315D02*
X4347Y4004D01*
X9643Y7175D02*
Y7362D01*
X9525Y7480D02*
Y7569D01*
Y7480D02*
X9643Y7362D01*
X9373Y3468D02*
X9373Y3468D01*
Y3416D02*
Y3468D01*
Y3416D02*
X9449Y3340D01*
Y3273D02*
Y3340D01*
Y3273D02*
X9458Y3264D01*
X8839Y7849D02*
Y8064D01*
X9736Y7518D02*
X9741D01*
X2948Y3596D02*
Y3638D01*
X3311Y4001D01*
X9207Y3682D02*
Y3799D01*
X9322Y7442D02*
Y7569D01*
X8484Y5982D02*
Y6160D01*
X8484Y6160D01*
Y6248D01*
X8369Y4775D02*
X9068D01*
X8712Y3962D02*
X8713Y3964D01*
Y4139D01*
X8611Y4229D02*
X8715D01*
X8039Y4445D02*
X8369Y4775D01*
X8715Y4229D02*
Y4318D01*
X8713Y4139D02*
X8715Y4140D01*
Y4229D01*
Y4318D02*
Y4496D01*
X8395Y6248D02*
X8484D01*
X8395Y6248D02*
X8395Y6248D01*
X8484D02*
Y6337D01*
X8635Y6327D02*
Y6337D01*
X8484Y6337D02*
X8485Y6337D01*
Y6528D01*
X8635D02*
X8637Y6525D01*
Y8242D02*
Y8407D01*
Y8496D01*
X8637Y8496D02*
X8637Y8496D01*
X8534Y8496D02*
X8637D01*
X8637Y8496D02*
Y8585D01*
Y8750D01*
X4378Y6747D02*
X4381Y6750D01*
X4242Y6744D02*
X4245Y6747D01*
X4378D01*
X5645Y4464D02*
X5734D01*
X5842Y4572D02*
Y4762D01*
X5734Y4464D02*
X5842Y4572D01*
X5556Y4553D02*
X5645Y4464D01*
X4112Y4182D02*
Y4327D01*
X4108Y4178D02*
X4112Y4182D01*
Y4327D02*
X4115Y4331D01*
Y4465D02*
X4119Y4470D01*
X4115Y4331D02*
Y4465D01*
X5232Y5296D02*
Y5320D01*
X5188Y5448D02*
X5206Y5430D01*
Y5346D02*
Y5430D01*
Y5346D02*
X5232Y5320D01*
X5226Y5290D02*
X5232Y5296D01*
X5099Y5283D02*
X5106Y5290D01*
X5226D01*
X4974Y5030D02*
X4978Y5034D01*
Y5131D01*
X7715Y4400D02*
X7722Y4407D01*
X7601Y4400D02*
X7715D01*
X7595Y4394D02*
X7601Y4400D01*
X3294Y5876D02*
X3330D01*
X3377Y5829D02*
X3480D01*
X3277Y5893D02*
X3322Y5939D01*
X3462D01*
X3330Y5876D02*
X3377Y5829D01*
X3277Y5893D02*
X3294Y5876D01*
X3462Y5939D02*
X3480Y5956D01*
X7569Y5524D02*
X7572Y5521D01*
X7718D02*
X7722Y5524D01*
X6706Y4762D02*
X6871D01*
X6620Y5026D02*
X6630Y5017D01*
X6897D01*
X7404Y4762D02*
X7582D01*
X6556Y4404D02*
X6690D01*
X6696D02*
X6813D01*
X6553Y4407D02*
X6556Y4404D01*
X6706Y3645D02*
X6883D01*
X7404D02*
X7582D01*
X7379Y5893D02*
X7582D01*
X6693D02*
X6896D01*
X4689Y6601D02*
X4853D01*
X4860Y6594D01*
X4685Y6605D02*
X4689Y6601D01*
X3467Y5563D02*
X3480Y5575D01*
X3467Y5448D02*
Y5563D01*
X3377Y5575D02*
X3480D01*
X3407Y6290D02*
Y6436D01*
X3410Y6439D01*
X3404Y6287D02*
X3407Y6290D01*
X3107Y6447D02*
X3111Y6452D01*
X2957Y6447D02*
X3107D01*
X2956Y6446D02*
X2957Y6447D01*
X4610Y7010D02*
Y7150D01*
X3686Y3950D02*
X3812D01*
X3812Y3950D01*
X3685Y3950D02*
X3686Y3950D01*
X4261Y4316D02*
X4267Y4322D01*
X4261Y4191D02*
Y4316D01*
X4248Y4178D02*
X4261Y4191D01*
X5054Y5461D02*
Y5474D01*
X4833Y5183D02*
Y5239D01*
X4827Y5177D02*
X4833Y5183D01*
X5048Y5448D02*
X5048Y5449D01*
X4747Y5384D02*
X4977Y5614D01*
Y6032D01*
X4741Y5171D02*
X4747Y5177D01*
X4977Y6032D02*
X4978Y6033D01*
X6274Y6528D02*
X6896D01*
X6160Y6414D02*
X6274Y6528D01*
X6894Y5521D02*
X6897Y5524D01*
X6690Y4404D02*
X6693Y4400D01*
X6696Y4404D01*
X6895Y4537D02*
X6899Y4534D01*
X5017Y4280D02*
X6899D01*
X4885Y4411D02*
X5017Y4280D01*
X6813Y4407D02*
X6899D01*
X7586Y4403D02*
X7595Y4394D01*
X7379Y4407D02*
X7383Y4403D01*
X7586D01*
X7379Y4534D02*
X7595D01*
X7823D02*
X8103Y4813D01*
X7595Y4534D02*
X7823D01*
X7378Y5524D02*
X7569D01*
X7377Y5524D02*
X7378Y5524D01*
X7379Y6655D02*
X7383Y6651D01*
X4747Y5177D02*
Y5384D01*
X4507Y5177D02*
Y6103D01*
X3911Y6699D02*
X4507Y6103D01*
X4427Y5177D02*
Y5923D01*
X3911Y6439D02*
X4427Y5923D01*
X4119Y5030D02*
Y5114D01*
X3994Y4794D02*
X4115D01*
X4119Y4790D01*
X4267Y4322D02*
X4273Y4328D01*
X5664Y5906D02*
X5791Y6033D01*
X8095Y4813D02*
X8103D01*
X6160Y5892D02*
Y6414D01*
X5944Y5499D02*
Y5676D01*
X6160Y5892D01*
X3214Y6641D02*
X3264Y6591D01*
X2956Y6641D02*
X3214D01*
X3505Y6439D02*
X3911D01*
X3505Y6699D02*
X3911D01*
X3505Y6614D02*
Y6699D01*
X3264Y6591D02*
X3482D01*
X3505Y6614D01*
X2956Y6576D02*
X3185D01*
X3236Y6526D02*
X3471D01*
X3185Y6576D02*
X3236Y6526D01*
X3494Y6450D02*
X3505Y6439D01*
X3471Y6526D02*
X3494Y6503D01*
Y6450D02*
Y6503D01*
X3004Y5938D02*
X3149Y6083D01*
X3480D01*
X5556Y4553D02*
Y4553D01*
X5400Y4710D02*
X5556Y4553D01*
X4974Y4710D02*
X5400D01*
X4974Y4630D02*
X5111D01*
X5077Y4550D02*
X5232Y4394D01*
X4974Y4550D02*
X5077D01*
X4968Y4476D02*
X4974Y4470D01*
X4753Y4394D02*
X4786Y4427D01*
X4883Y4411D02*
X4885D01*
X4901Y4476D02*
X4968D01*
X5817Y5156D02*
X5925Y5048D01*
X6287Y5156D02*
X6401Y5271D01*
X6058Y5156D02*
X6287D01*
X4507Y4322D02*
X4508Y4323D01*
Y4508D01*
X4508Y4508D01*
X4273Y4328D02*
Y4395D01*
X4974Y5030D02*
X5017D01*
X5486Y3734D02*
X5956D01*
X6121Y3899D02*
X6899D01*
X5956Y3734D02*
X6121Y3899D01*
X4593Y4221D02*
X4915Y3899D01*
X5842D01*
X4673Y4231D02*
X4890Y4013D01*
X5626D01*
X4593Y4221D02*
Y4316D01*
X4673Y4231D02*
Y4316D01*
X4827Y4322D02*
X4891D01*
X4747D02*
X4753Y4328D01*
Y4394D01*
X3667Y4710D02*
X4119D01*
X4184Y5114D02*
X4224Y5075D01*
X4190Y4876D02*
X4224Y4910D01*
X4125Y4876D02*
X4190D01*
X4119Y4870D02*
X4125Y4876D01*
X4224Y4910D02*
Y5075D01*
X2807Y3454D02*
X2948Y3596D01*
X3061Y3327D02*
X3400Y3667D01*
X4587Y4322D02*
X4593Y4316D01*
X4667Y4322D02*
X4673Y4316D01*
X8158Y8759D02*
Y8784D01*
X8141Y8801D02*
X8158Y8784D01*
Y8619D02*
X8168D01*
X8141Y8636D02*
X8158Y8619D01*
X3004Y5780D02*
Y5938D01*
Y5780D02*
X3109Y5675D01*
Y5517D02*
Y5675D01*
X3061Y5469D02*
X3109Y5517D01*
X3061Y5321D02*
Y5469D01*
X3783Y5575D02*
X3886D01*
X4018Y5939D02*
X4267Y5690D01*
X3886Y5956D02*
X3904Y5939D01*
X4267Y5177D02*
Y5690D01*
X3904Y5939D02*
X4018D01*
X4016Y6066D02*
X4347Y5735D01*
X3886Y6083D02*
X3904Y6066D01*
X4347Y5177D02*
Y5735D01*
X3904Y6066D02*
X4016D01*
X6401Y5271D02*
X6897D01*
X6203Y5321D02*
X6279Y5397D01*
X6897D01*
X6185Y5321D02*
X6203D01*
X4508Y4090D02*
X4508Y4089D01*
X4508Y4090D02*
Y4321D01*
X4507Y4322D02*
X4508Y4321D01*
D69*
X7112Y7188D02*
X8026D01*
X7382Y6779D02*
X7604D01*
X7382Y5656D02*
X7624D01*
X8026Y5867D02*
Y7188D01*
X7318Y6792D02*
Y6982D01*
X7112Y7188D02*
X7318Y6982D01*
X5099Y8077D02*
X5378Y7798D01*
X5607D01*
X4521Y6338D02*
X4703D01*
X4794Y6248D01*
X4518Y6492D02*
X4521Y6489D01*
X4515Y6750D02*
X4518Y6747D01*
Y6492D02*
Y6747D01*
X4794Y6248D02*
X5061D01*
X5061Y6248D01*
X7377Y5651D02*
X7382Y5656D01*
X7624D02*
X7633Y5664D01*
X8023Y5867D02*
X8026D01*
X7820Y5664D02*
X8023Y5867D01*
X7633Y5664D02*
X7820D01*
D70*
X6420Y8039D02*
X8403D01*
X8848Y7595D01*
X6261Y8674D02*
X7074D01*
X6198Y8738D02*
X6261Y8674D01*
Y8039D02*
X6420D01*
X7074Y8674D02*
X7125Y8725D01*
X6134Y8039D02*
X6261D01*
X6007D02*
X6134D01*
D71*
X4064Y8769D02*
X4185D01*
X3937D02*
X4064D01*
X5804Y8242D02*
X6007Y8039D01*
X5804Y8242D02*
Y8992D01*
X5651Y9144D02*
X5804Y8992D01*
X4521Y9144D02*
X5651D01*
X4407Y9030D02*
X4521Y9144D01*
X4407Y8903D02*
Y9030D01*
X4275Y8771D02*
X4407Y8903D01*
X4191Y8769D02*
X4193Y8771D01*
X4275D01*
X4915Y8858D02*
Y8979D01*
X4915Y8979D02*
X4915Y8979D01*
X4661Y8979D02*
X4661Y8979D01*
Y8858D02*
Y8979D01*
X4064Y8909D02*
X4191D01*
X4432Y8598D02*
Y8725D01*
X4439Y8718D01*
X4606Y8230D02*
X4623Y8246D01*
X4883Y8141D02*
Y8204D01*
Y8077D02*
Y8141D01*
X4864D02*
X4883D01*
X4737Y8014D02*
X4864Y8141D01*
X4883Y8522D02*
Y8585D01*
Y8458D02*
Y8522D01*
X4883Y8522D02*
X4883Y8522D01*
X4737Y8522D02*
X4883D01*
X4915Y8858D02*
X4978D01*
X4851D02*
X4915D01*
X4661D02*
X4724D01*
X4597D02*
X4661D01*
X4724D02*
X4851D01*
X4883Y8331D02*
Y8458D01*
Y8204D02*
Y8331D01*
X5144Y8636D02*
X5241Y8733D01*
X5317D02*
X5347Y8763D01*
X5241Y8733D02*
X5317D01*
X5144Y8122D02*
Y8636D01*
X5099Y8077D02*
X5144Y8122D01*
X5023Y8077D02*
X5099D01*
X5023Y8077D02*
X5023Y8077D01*
X5023Y8458D02*
Y8585D01*
Y8331D02*
Y8458D01*
Y8204D02*
Y8331D01*
Y8077D02*
Y8204D01*
X4983Y8718D02*
X4985Y8717D01*
Y8711D02*
Y8717D01*
X4978Y8718D02*
X4983D01*
X4985Y8711D02*
X5021Y8676D01*
Y8587D02*
Y8676D01*
Y8587D02*
X5023Y8585D01*
X4851Y8718D02*
X4978D01*
X4724D02*
X4851D01*
X4597D02*
X4724D01*
X4439D02*
X4597D01*
X4432Y8598D02*
X4606Y8424D01*
Y8230D02*
Y8424D01*
X9601Y5429D02*
Y5575D01*
Y5429D02*
X9601Y5429D01*
X3058Y4457D02*
X3238Y4637D01*
X3061Y5321D02*
X3238Y5144D01*
Y4637D02*
Y5144D01*
X3810Y8769D02*
X3937D01*
X2837Y8503D02*
X2845Y8511D01*
X2832Y8503D02*
X2837D01*
X4064Y9030D02*
X4064D01*
X4064D02*
X4064D01*
X3937Y8909D02*
X3939Y8911D01*
X3958D01*
X4064Y9030D02*
X4064Y9030D01*
Y8909D02*
Y9030D01*
X3988Y8909D02*
X4064D01*
X5747Y7798D02*
X5747Y7798D01*
X5894D02*
X5894Y7798D01*
X2934Y6896D02*
X2940Y6902D01*
X3067D02*
X3073Y6909D01*
X2940Y6902D02*
X3067D01*
X2938Y6252D02*
X3082D01*
X3086Y6248D01*
X2934Y6256D02*
X2938Y6252D01*
X6134Y8039D02*
Y8367D01*
X6261Y8039D02*
Y8367D01*
X6007Y8039D02*
Y8367D01*
X7658Y8801D02*
X7976D01*
X8141D01*
X7798Y8966D02*
X7976D01*
X7798Y8636D02*
X7976D01*
X8141D01*
X7658Y8776D02*
X7798Y8636D01*
X7658Y8776D02*
Y8801D01*
Y8826D01*
X7798Y8966D01*
X7976D02*
X8141D01*
X2689Y6456D02*
X2847Y6298D01*
X2902D01*
X2689Y6456D02*
Y6696D01*
X2847Y6854D02*
X2902D01*
X2689Y6696D02*
X2847Y6854D01*
D72*
X3637Y8507D02*
X3788D01*
X3635Y8509D02*
X3637Y8507D01*
X3810Y8490D02*
X3815D01*
X3788Y8507D02*
X3805Y8490D01*
X3609Y8764D02*
X3763D01*
X3815Y8490D02*
X4089Y8216D01*
D73*
X9449Y3772D02*
Y3793D01*
X9492Y3837D01*
Y4516D01*
X9322Y8877D02*
X9378Y8821D01*
X9319Y8880D02*
X9322Y8877D01*
X9378Y8484D02*
Y8821D01*
Y8180D02*
Y8484D01*
X9335Y8137D02*
X9378Y8180D01*
X9335Y8115D02*
Y8137D01*
X9398Y4610D02*
X9492Y4516D01*
D74*
X2689Y6906D02*
D03*
Y6246D02*
D03*
D75*
X6452Y7125D02*
D03*
X10312Y3200D02*
D03*
X10439Y7353D02*
D03*
X6769Y3150D02*
D03*
X3772Y7264D02*
D03*
X3708Y3238D02*
D03*
D76*
X5347Y8763D02*
D03*
X5537Y6160D02*
D03*
Y7099D02*
D03*
X2807Y5448D02*
D03*
Y3708D02*
D03*
X2805Y4584D02*
D03*
D77*
X5601Y8636D02*
D03*
X5347Y8509D02*
D03*
X5601Y8382D02*
D03*
X5791Y6033D02*
D03*
X5537Y5906D02*
D03*
X5791Y5778D02*
D03*
Y6718D02*
D03*
X5537Y6845D02*
D03*
X5791Y6972D02*
D03*
X7671Y3365D02*
D03*
X7798Y3111D02*
D03*
X7925Y3365D02*
D03*
X3061Y5321D02*
D03*
X2807Y5194D02*
D03*
X3061Y5067D02*
D03*
Y3327D02*
D03*
X2807Y3454D02*
D03*
X3061Y3581D02*
D03*
X3058Y4203D02*
D03*
X2805Y4330D02*
D03*
X3058Y4457D02*
D03*
D78*
X5527Y8903D02*
D03*
X5717Y6299D02*
D03*
Y7239D02*
D03*
X7404Y3292D02*
D03*
X2987Y5588D02*
D03*
Y3848D02*
D03*
X2984Y4724D02*
D03*
D79*
X8361Y7607D02*
D03*
X8365Y3467D02*
D03*
X8348Y5499D02*
D03*
D80*
X8861Y7607D02*
D03*
X8865Y3467D02*
D03*
X8848Y5499D02*
D03*
D81*
X7544Y3111D02*
D03*
D82*
X9855Y8192D02*
D03*
X3632Y8268D02*
D03*
X3302Y7811D02*
D03*
X3442Y8890D02*
D03*
X3454Y8395D02*
D03*
X3289Y8509D02*
D03*
X3442Y8649D02*
D03*
X3302Y8776D02*
D03*
X6439Y4788D02*
D03*
X6426Y5651D02*
D03*
X6248Y6782D02*
D03*
X6553Y6655D02*
D03*
X6579Y5524D02*
D03*
X8026Y7188D02*
D03*
X7912Y6388D02*
D03*
X7112Y7188D02*
D03*
X6185Y7798D02*
D03*
X4915Y8979D02*
D03*
X4661D02*
D03*
X4432Y8725D02*
D03*
X4737Y8014D02*
D03*
Y8522D02*
D03*
X3810Y9081D02*
D03*
X9449Y3772D02*
D03*
X9614Y3365D02*
D03*
X9919Y5461D02*
D03*
X9601Y5575D02*
D03*
X10262Y5626D02*
D03*
X10160Y6998D02*
D03*
X9919Y6871D02*
D03*
X9081Y6998D02*
D03*
X9202Y6673D02*
D03*
X8560Y6921D02*
D03*
X10058Y6121D02*
D03*
Y6490D02*
D03*
X9106Y8115D02*
D03*
X4153Y5436D02*
D03*
X4013Y5220D02*
D03*
X4623Y5702D02*
D03*
X4750Y5563D02*
D03*
X3835Y5321D02*
D03*
X3759Y4978D02*
D03*
X3619Y5207D02*
D03*
X3569Y4610D02*
D03*
X3391Y4775D02*
D03*
X5753Y5410D02*
D03*
X9766Y7398D02*
D03*
X6464Y8357D02*
D03*
X3454Y8166D02*
D03*
X2832Y8217D02*
D03*
Y8954D02*
D03*
X3023Y8014D02*
D03*
X3632Y7811D02*
D03*
X3302Y8014D02*
D03*
X3454Y7925D02*
D03*
X3023Y7811D02*
D03*
X3302Y8268D02*
D03*
X3632Y8014D02*
D03*
X4064Y9030D02*
D03*
X4508Y3823D02*
D03*
X6312Y4026D02*
D03*
X7633Y6452D02*
D03*
X7709Y6655D02*
D03*
X9728Y4496D02*
D03*
X9741Y3962D02*
D03*
X9589Y6274D02*
D03*
X10312Y6299D02*
D03*
X5321Y4585D02*
D03*
X10211Y4496D02*
D03*
Y4318D02*
D03*
Y4140D02*
D03*
Y3962D02*
D03*
X9931Y4496D02*
D03*
Y4140D02*
D03*
Y4318D02*
D03*
Y3962D02*
D03*
X9436Y4229D02*
D03*
X9563Y6477D02*
D03*
X9195Y6261D02*
D03*
X9220Y5918D02*
D03*
X9335Y8115D02*
D03*
X9322Y8484D02*
D03*
Y8877D02*
D03*
X9106Y5612D02*
D03*
X9843Y3619D02*
D03*
X8839Y8064D02*
D03*
X9207Y3682D02*
D03*
X9398Y4610D02*
D03*
X9322Y7442D02*
D03*
X9144Y8839D02*
D03*
X7925Y5512D02*
D03*
X8280Y8484D02*
D03*
X7734Y4026D02*
D03*
X8280Y7760D02*
D03*
X8407Y8712D02*
D03*
X8395Y6248D02*
D03*
X9703Y6121D02*
D03*
X10262D02*
D03*
X10147Y6299D02*
D03*
X10262Y6490D02*
D03*
X9715Y6401D02*
D03*
X9068Y6553D02*
D03*
X10300Y8192D02*
D03*
X10084D02*
D03*
X10300Y8382D02*
D03*
X9855D02*
D03*
X10084D02*
D03*
X8534Y8496D02*
D03*
X9855Y8598D02*
D03*
X10084D02*
D03*
X10300D02*
D03*
X8611Y4229D02*
D03*
X8039Y4445D02*
D03*
X9068Y4775D02*
D03*
X4242Y6744D02*
D03*
X5690Y4572D02*
D03*
X4115Y4331D02*
D03*
X5232Y5296D02*
D03*
X4978Y5131D02*
D03*
X7722Y4407D02*
D03*
X3277Y5893D02*
D03*
X7722Y5524D02*
D03*
X6706Y4762D02*
D03*
X7582D02*
D03*
X6553Y4407D02*
D03*
X6706Y3645D02*
D03*
X7582D02*
D03*
Y5893D02*
D03*
X6693D02*
D03*
X4685Y6605D02*
D03*
X3467Y5448D02*
D03*
X3404Y6287D02*
D03*
X3073Y6909D02*
D03*
X3086Y6248D02*
D03*
X3111Y6452D02*
D03*
X4610Y7150D02*
D03*
X3685Y3950D02*
D03*
X4978Y6033D02*
D03*
X8026Y5867D02*
D03*
X8103Y4813D02*
D03*
X5944Y5499D02*
D03*
X5842Y4762D02*
D03*
X5626Y4801D02*
D03*
X5232Y4394D02*
D03*
X4674Y4635D02*
D03*
X5817Y4953D02*
D03*
Y5156D02*
D03*
X4508Y4508D02*
D03*
X5486Y3734D02*
D03*
X5842Y3899D02*
D03*
X5626Y4013D02*
D03*
X3467Y4470D02*
D03*
X8039Y3899D02*
D03*
X7976Y8801D02*
D03*
X8141Y8636D02*
D03*
X7976Y8966D02*
D03*
X8141D02*
D03*
X7976Y8636D02*
D03*
X8141Y8801D02*
D03*
X5010Y6750D02*
D03*
X6185Y5321D02*
D03*
X6058Y5156D02*
D03*
D83*
X9385Y3924D02*
D03*
X5127Y4886D02*
D03*
M02*
