G04*
G04 #@! TF.GenerationSoftware,Altium Limited,Altium Designer,21.9.1 (22)*
G04*
G04 Layer_Color=8388736*
%FSLAX42Y42*%
%MOMM*%
G71*
G04*
G04 #@! TF.SameCoordinates,B3A7D64E-7091-44AA-A069-5FD8CBDAA8E7*
G04*
G04*
G04 #@! TF.FilePolarity,Negative*
G04*
G01*
G75*
%ADD24R,1.36X0.50*%
%ADD25R,0.50X1.36*%
%ADD37R,0.70X0.35*%
%ADD38R,0.35X0.70*%
%ADD39R,1.55X0.60*%
%ADD40R,1.60X1.80*%
%ADD41R,2.10X2.10*%
%ADD42R,2.20X1.90*%
%ADD43R,2.90X0.84*%
%ADD44R,0.80X1.20*%
%ADD45R,1.00X1.10*%
%ADD46R,1.10X1.00*%
%ADD47R,0.80X1.82*%
%ADD48R,5.00X4.78*%
%ADD49R,0.90X1.10*%
%ADD50R,1.10X0.90*%
%ADD51R,4.65X3.76*%
%ADD52O,2.40X0.80*%
%ADD53R,3.76X4.65*%
%ADD54O,2.00X1.10*%
%ADD55C,1.73*%
%ADD56R,1.56X1.56*%
%ADD57C,1.56*%
%ADD58C,1.75*%
%ADD59C,1.40*%
%ADD60R,1.40X1.40*%
%ADD61R,1.56X1.56*%
G36*
X3719Y8801D02*
X3720Y8801D01*
X3720Y8801D01*
X3720Y8801D01*
X3720Y8801D01*
X3721Y8801D01*
X3721Y8801D01*
X3721Y8801D01*
X3721Y8801D01*
X3722Y8801D01*
X3722Y8801D01*
X3722Y8801D01*
X3722Y8800D01*
X3722Y8800D01*
X3723Y8800D01*
X3723Y8800D01*
X3723Y8800D01*
X3723Y8799D01*
X3723Y8799D01*
X3723Y8799D01*
X3724Y8799D01*
X3724Y8799D01*
X3724Y8798D01*
X3724Y8798D01*
X3724Y8798D01*
X3724Y8798D01*
X3724Y8797D01*
X3724Y8797D01*
X3724Y8797D01*
X3724Y8796D01*
Y8732D01*
X3724Y8732D01*
X3724Y8732D01*
X3724Y8732D01*
X3724Y8731D01*
X3724Y8731D01*
X3724Y8731D01*
X3724Y8731D01*
X3724Y8730D01*
X3724Y8730D01*
X3723Y8730D01*
X3723Y8730D01*
X3723Y8730D01*
X3723Y8729D01*
X3723Y8729D01*
X3723Y8729D01*
X3722Y8729D01*
X3722Y8729D01*
X3722Y8728D01*
X3722Y8728D01*
X3722Y8728D01*
X3721Y8728D01*
X3721Y8728D01*
X3721Y8728D01*
X3721Y8728D01*
X3720Y8728D01*
X3720Y8728D01*
X3720Y8728D01*
X3720Y8728D01*
X3719Y8728D01*
X3719Y8728D01*
X3560D01*
X3560Y8728D01*
X3560Y8728D01*
X3559Y8728D01*
X3559Y8728D01*
X3559Y8728D01*
X3559Y8728D01*
X3558Y8728D01*
X3558Y8728D01*
X3558Y8728D01*
X3558Y8728D01*
X3557Y8728D01*
X3557Y8728D01*
X3557Y8729D01*
X3557Y8729D01*
X3557Y8729D01*
X3556Y8729D01*
X3556Y8729D01*
X3556Y8730D01*
X3556Y8730D01*
X3556Y8730D01*
X3556Y8730D01*
X3555Y8730D01*
X3555Y8731D01*
X3555Y8731D01*
X3555Y8731D01*
X3555Y8731D01*
X3555Y8732D01*
X3555Y8732D01*
X3555Y8732D01*
X3555Y8732D01*
Y8796D01*
X3555Y8797D01*
X3555Y8797D01*
X3555Y8797D01*
X3555Y8798D01*
X3555Y8798D01*
X3555Y8798D01*
X3555Y8798D01*
X3555Y8799D01*
X3556Y8799D01*
X3556Y8799D01*
X3556Y8799D01*
X3556Y8799D01*
X3556Y8800D01*
X3556Y8800D01*
X3557Y8800D01*
X3557Y8800D01*
X3557Y8800D01*
X3557Y8801D01*
X3557Y8801D01*
X3558Y8801D01*
X3558Y8801D01*
X3558Y8801D01*
X3558Y8801D01*
X3559Y8801D01*
X3559Y8801D01*
X3559Y8801D01*
X3559Y8801D01*
X3560Y8801D01*
X3560Y8801D01*
X3560Y8801D01*
X3719D01*
X3719Y8801D01*
D02*
G37*
G36*
X3179D02*
X3180Y8801D01*
X3180Y8801D01*
X3180Y8801D01*
X3180Y8801D01*
X3181Y8801D01*
X3181Y8801D01*
X3181Y8801D01*
X3181Y8801D01*
X3182Y8801D01*
X3182Y8801D01*
X3182Y8801D01*
X3182Y8800D01*
X3182Y8800D01*
X3183Y8800D01*
X3183Y8800D01*
X3183Y8800D01*
X3183Y8799D01*
X3183Y8799D01*
X3183Y8799D01*
X3184Y8799D01*
X3184Y8799D01*
X3184Y8798D01*
X3184Y8798D01*
X3184Y8798D01*
X3184Y8798D01*
X3184Y8797D01*
X3184Y8797D01*
X3184Y8797D01*
X3184Y8796D01*
Y8732D01*
X3184Y8732D01*
X3184Y8732D01*
X3184Y8732D01*
X3184Y8731D01*
X3184Y8731D01*
X3184Y8731D01*
X3184Y8731D01*
X3184Y8730D01*
X3184Y8730D01*
X3183Y8730D01*
X3183Y8730D01*
X3183Y8730D01*
X3183Y8729D01*
X3183Y8729D01*
X3183Y8729D01*
X3182Y8729D01*
X3182Y8729D01*
X3182Y8728D01*
X3182Y8728D01*
X3182Y8728D01*
X3181Y8728D01*
X3181Y8728D01*
X3181Y8728D01*
X3181Y8728D01*
X3180Y8728D01*
X3180Y8728D01*
X3180Y8728D01*
X3180Y8728D01*
X3179Y8728D01*
X3179Y8728D01*
X3020D01*
X3020Y8728D01*
X3020Y8728D01*
X3019Y8728D01*
X3019Y8728D01*
X3019Y8728D01*
X3019Y8728D01*
X3018Y8728D01*
X3018Y8728D01*
X3018Y8728D01*
X3018Y8728D01*
X3017Y8728D01*
X3017Y8728D01*
X3017Y8729D01*
X3017Y8729D01*
X3017Y8729D01*
X3016Y8729D01*
X3016Y8729D01*
X3016Y8730D01*
X3016Y8730D01*
X3016Y8730D01*
X3016Y8730D01*
X3015Y8730D01*
X3015Y8731D01*
X3015Y8731D01*
X3015Y8731D01*
X3015Y8731D01*
X3015Y8732D01*
X3015Y8732D01*
X3015Y8732D01*
X3015Y8732D01*
Y8796D01*
X3015Y8797D01*
X3015Y8797D01*
X3015Y8797D01*
X3015Y8798D01*
X3015Y8798D01*
X3015Y8798D01*
X3015Y8798D01*
X3015Y8799D01*
X3016Y8799D01*
X3016Y8799D01*
X3016Y8799D01*
X3016Y8799D01*
X3016Y8800D01*
X3016Y8800D01*
X3017Y8800D01*
X3017Y8800D01*
X3017Y8800D01*
X3017Y8801D01*
X3017Y8801D01*
X3018Y8801D01*
X3018Y8801D01*
X3018Y8801D01*
X3018Y8801D01*
X3019Y8801D01*
X3019Y8801D01*
X3019Y8801D01*
X3019Y8801D01*
X3020Y8801D01*
X3020Y8801D01*
X3020Y8801D01*
X3179D01*
X3179Y8801D01*
D02*
G37*
G36*
X3719Y8674D02*
X3720Y8674D01*
X3720Y8674D01*
X3720Y8674D01*
X3720Y8674D01*
X3721Y8674D01*
X3721Y8674D01*
X3721Y8674D01*
X3721Y8674D01*
X3722Y8674D01*
X3722Y8674D01*
X3722Y8674D01*
X3722Y8673D01*
X3722Y8673D01*
X3723Y8673D01*
X3723Y8673D01*
X3723Y8673D01*
X3723Y8672D01*
X3723Y8672D01*
X3723Y8672D01*
X3724Y8672D01*
X3724Y8672D01*
X3724Y8671D01*
X3724Y8671D01*
X3724Y8671D01*
X3724Y8671D01*
X3724Y8670D01*
X3724Y8670D01*
X3724Y8670D01*
X3724Y8669D01*
Y8606D01*
X3724Y8605D01*
X3724Y8605D01*
X3724Y8605D01*
X3724Y8604D01*
X3724Y8604D01*
X3724Y8604D01*
X3724Y8604D01*
X3724Y8603D01*
X3724Y8603D01*
X3723Y8603D01*
X3723Y8603D01*
X3723Y8603D01*
X3723Y8602D01*
X3723Y8602D01*
X3723Y8602D01*
X3722Y8602D01*
X3722Y8602D01*
X3722Y8601D01*
X3722Y8601D01*
X3722Y8601D01*
X3721Y8601D01*
X3721Y8601D01*
X3721Y8601D01*
X3721Y8601D01*
X3720Y8601D01*
X3720Y8601D01*
X3720Y8601D01*
X3720Y8601D01*
X3719Y8601D01*
X3719Y8600D01*
X3560D01*
X3560Y8601D01*
X3560Y8601D01*
X3559Y8601D01*
X3559Y8601D01*
X3559Y8601D01*
X3559Y8601D01*
X3558Y8601D01*
X3558Y8601D01*
X3558Y8601D01*
X3558Y8601D01*
X3557Y8601D01*
X3557Y8601D01*
X3557Y8602D01*
X3557Y8602D01*
X3557Y8602D01*
X3556Y8602D01*
X3556Y8602D01*
X3556Y8603D01*
X3556Y8603D01*
X3556Y8603D01*
X3556Y8603D01*
X3555Y8603D01*
X3555Y8604D01*
X3555Y8604D01*
X3555Y8604D01*
X3555Y8604D01*
X3555Y8605D01*
X3555Y8605D01*
X3555Y8605D01*
X3555Y8606D01*
Y8669D01*
X3555Y8670D01*
X3555Y8670D01*
X3555Y8670D01*
X3555Y8671D01*
X3555Y8671D01*
X3555Y8671D01*
X3555Y8671D01*
X3555Y8672D01*
X3556Y8672D01*
X3556Y8672D01*
X3556Y8672D01*
X3556Y8672D01*
X3556Y8673D01*
X3556Y8673D01*
X3557Y8673D01*
X3557Y8673D01*
X3557Y8673D01*
X3557Y8674D01*
X3557Y8674D01*
X3558Y8674D01*
X3558Y8674D01*
X3558Y8674D01*
X3558Y8674D01*
X3559Y8674D01*
X3559Y8674D01*
X3559Y8674D01*
X3559Y8674D01*
X3560Y8674D01*
X3560Y8674D01*
X3560Y8675D01*
X3719D01*
X3719Y8674D01*
D02*
G37*
G36*
X3179D02*
X3180Y8674D01*
X3180Y8674D01*
X3180Y8674D01*
X3180Y8674D01*
X3181Y8674D01*
X3181Y8674D01*
X3181Y8674D01*
X3181Y8674D01*
X3182Y8674D01*
X3182Y8674D01*
X3182Y8674D01*
X3182Y8673D01*
X3182Y8673D01*
X3183Y8673D01*
X3183Y8673D01*
X3183Y8673D01*
X3183Y8672D01*
X3183Y8672D01*
X3183Y8672D01*
X3184Y8672D01*
X3184Y8672D01*
X3184Y8671D01*
X3184Y8671D01*
X3184Y8671D01*
X3184Y8671D01*
X3184Y8670D01*
X3184Y8670D01*
X3184Y8670D01*
X3184Y8669D01*
Y8606D01*
X3184Y8605D01*
X3184Y8605D01*
X3184Y8605D01*
X3184Y8604D01*
X3184Y8604D01*
X3184Y8604D01*
X3184Y8604D01*
X3184Y8603D01*
X3184Y8603D01*
X3183Y8603D01*
X3183Y8603D01*
X3183Y8603D01*
X3183Y8602D01*
X3183Y8602D01*
X3183Y8602D01*
X3182Y8602D01*
X3182Y8602D01*
X3182Y8601D01*
X3182Y8601D01*
X3182Y8601D01*
X3181Y8601D01*
X3181Y8601D01*
X3181Y8601D01*
X3181Y8601D01*
X3180Y8601D01*
X3180Y8601D01*
X3180Y8601D01*
X3180Y8601D01*
X3179Y8601D01*
X3179Y8600D01*
X3020D01*
X3020Y8601D01*
X3020Y8601D01*
X3019Y8601D01*
X3019Y8601D01*
X3019Y8601D01*
X3019Y8601D01*
X3018Y8601D01*
X3018Y8601D01*
X3018Y8601D01*
X3018Y8601D01*
X3017Y8601D01*
X3017Y8601D01*
X3017Y8602D01*
X3017Y8602D01*
X3017Y8602D01*
X3016Y8602D01*
X3016Y8602D01*
X3016Y8603D01*
X3016Y8603D01*
X3016Y8603D01*
X3016Y8603D01*
X3015Y8603D01*
X3015Y8604D01*
X3015Y8604D01*
X3015Y8604D01*
X3015Y8604D01*
X3015Y8605D01*
X3015Y8605D01*
X3015Y8605D01*
X3015Y8606D01*
Y8669D01*
X3015Y8670D01*
X3015Y8670D01*
X3015Y8670D01*
X3015Y8671D01*
X3015Y8671D01*
X3015Y8671D01*
X3015Y8671D01*
X3015Y8672D01*
X3016Y8672D01*
X3016Y8672D01*
X3016Y8672D01*
X3016Y8672D01*
X3016Y8673D01*
X3016Y8673D01*
X3017Y8673D01*
X3017Y8673D01*
X3017Y8673D01*
X3017Y8674D01*
X3017Y8674D01*
X3018Y8674D01*
X3018Y8674D01*
X3018Y8674D01*
X3018Y8674D01*
X3019Y8674D01*
X3019Y8674D01*
X3019Y8674D01*
X3019Y8674D01*
X3020Y8674D01*
X3020Y8674D01*
X3020Y8675D01*
X3179D01*
X3179Y8674D01*
D02*
G37*
G36*
X9338Y8649D02*
Y8599D01*
X9328Y8589D01*
X9313D01*
X9303Y8599D01*
Y8649D01*
X9313Y8659D01*
X9328D01*
X9338Y8649D01*
D02*
G37*
G36*
X9288D02*
Y8599D01*
X9278Y8589D01*
X9263D01*
X9253Y8599D01*
Y8649D01*
X9263Y8659D01*
X9278D01*
X9288Y8649D01*
D02*
G37*
G36*
X9238D02*
Y8599D01*
X9228Y8589D01*
X9213D01*
X9203Y8599D01*
Y8649D01*
X9213Y8659D01*
X9228D01*
X9238Y8649D01*
D02*
G37*
G36*
X9203Y8566D02*
Y8551D01*
X9193Y8541D01*
X9143D01*
X9133Y8551D01*
Y8566D01*
X9143Y8576D01*
X9193D01*
X9203Y8566D01*
D02*
G37*
G36*
X9461Y8649D02*
X9461Y8619D01*
X9468D01*
Y8501D01*
X9463Y8496D01*
X9433Y8496D01*
X9428Y8501D01*
Y8619D01*
X9436D01*
Y8649D01*
X9441Y8654D01*
X9456D01*
X9461Y8649D01*
D02*
G37*
G36*
X9391D02*
Y8619D01*
X9398D01*
X9398Y8501D01*
X9393Y8496D01*
X9363Y8496D01*
X9358Y8501D01*
Y8619D01*
X9366D01*
Y8649D01*
X9371Y8654D01*
X9386D01*
X9391Y8649D01*
D02*
G37*
G36*
X9203Y8516D02*
Y8501D01*
X9193Y8491D01*
X9143D01*
X9133Y8501D01*
Y8516D01*
X9143Y8526D01*
X9193D01*
X9203Y8516D01*
D02*
G37*
G36*
X3719Y8547D02*
X3720Y8547D01*
X3720Y8547D01*
X3720Y8547D01*
X3720Y8547D01*
X3721Y8547D01*
X3721Y8547D01*
X3721Y8547D01*
X3721Y8547D01*
X3722Y8547D01*
X3722Y8547D01*
X3722Y8547D01*
X3722Y8546D01*
X3722Y8546D01*
X3723Y8546D01*
X3723Y8546D01*
X3723Y8546D01*
X3723Y8545D01*
X3723Y8545D01*
X3723Y8545D01*
X3724Y8545D01*
X3724Y8545D01*
X3724Y8544D01*
X3724Y8544D01*
X3724Y8544D01*
X3724Y8544D01*
X3724Y8543D01*
X3724Y8543D01*
X3724Y8543D01*
X3724Y8543D01*
Y8479D01*
X3724Y8478D01*
X3724Y8478D01*
X3724Y8478D01*
X3724Y8477D01*
X3724Y8477D01*
X3724Y8477D01*
X3724Y8477D01*
X3724Y8476D01*
X3724Y8476D01*
X3723Y8476D01*
X3723Y8476D01*
X3723Y8476D01*
X3723Y8475D01*
X3723Y8475D01*
X3723Y8475D01*
X3722Y8475D01*
X3722Y8475D01*
X3722Y8474D01*
X3722Y8474D01*
X3722Y8474D01*
X3721Y8474D01*
X3721Y8474D01*
X3721Y8474D01*
X3721Y8474D01*
X3720Y8474D01*
X3720Y8474D01*
X3720Y8474D01*
X3720Y8474D01*
X3719Y8474D01*
X3719Y8474D01*
X3560D01*
X3560Y8474D01*
X3560Y8474D01*
X3559Y8474D01*
X3559Y8474D01*
X3559Y8474D01*
X3559Y8474D01*
X3558Y8474D01*
X3558Y8474D01*
X3558Y8474D01*
X3558Y8474D01*
X3557Y8474D01*
X3557Y8474D01*
X3557Y8475D01*
X3557Y8475D01*
X3557Y8475D01*
X3556Y8475D01*
X3556Y8475D01*
X3556Y8476D01*
X3556Y8476D01*
X3556Y8476D01*
X3556Y8476D01*
X3555Y8476D01*
X3555Y8477D01*
X3555Y8477D01*
X3555Y8477D01*
X3555Y8477D01*
X3555Y8478D01*
X3555Y8478D01*
X3555Y8478D01*
X3555Y8479D01*
Y8543D01*
X3555Y8543D01*
X3555Y8543D01*
X3555Y8543D01*
X3555Y8544D01*
X3555Y8544D01*
X3555Y8544D01*
X3555Y8544D01*
X3555Y8545D01*
X3556Y8545D01*
X3556Y8545D01*
X3556Y8545D01*
X3556Y8545D01*
X3556Y8546D01*
X3556Y8546D01*
X3557Y8546D01*
X3557Y8546D01*
X3557Y8546D01*
X3557Y8547D01*
X3557Y8547D01*
X3558Y8547D01*
X3558Y8547D01*
X3558Y8547D01*
X3558Y8547D01*
X3559Y8547D01*
X3559Y8547D01*
X3559Y8547D01*
X3559Y8547D01*
X3560Y8547D01*
X3560Y8547D01*
X3560Y8547D01*
X3719D01*
X3719Y8547D01*
D02*
G37*
G36*
X3179D02*
X3180Y8547D01*
X3180Y8547D01*
X3180Y8547D01*
X3180Y8547D01*
X3181Y8547D01*
X3181Y8547D01*
X3181Y8547D01*
X3181Y8547D01*
X3182Y8547D01*
X3182Y8547D01*
X3182Y8547D01*
X3182Y8546D01*
X3182Y8546D01*
X3183Y8546D01*
X3183Y8546D01*
X3183Y8546D01*
X3183Y8545D01*
X3183Y8545D01*
X3183Y8545D01*
X3184Y8545D01*
X3184Y8545D01*
X3184Y8544D01*
X3184Y8544D01*
X3184Y8544D01*
X3184Y8544D01*
X3184Y8543D01*
X3184Y8543D01*
X3184Y8543D01*
X3184Y8543D01*
Y8479D01*
X3184Y8478D01*
X3184Y8478D01*
X3184Y8478D01*
X3184Y8477D01*
X3184Y8477D01*
X3184Y8477D01*
X3184Y8477D01*
X3184Y8476D01*
X3184Y8476D01*
X3183Y8476D01*
X3183Y8476D01*
X3183Y8476D01*
X3183Y8475D01*
X3183Y8475D01*
X3183Y8475D01*
X3182Y8475D01*
X3182Y8475D01*
X3182Y8474D01*
X3182Y8474D01*
X3182Y8474D01*
X3181Y8474D01*
X3181Y8474D01*
X3181Y8474D01*
X3181Y8474D01*
X3180Y8474D01*
X3180Y8474D01*
X3180Y8474D01*
X3180Y8474D01*
X3179Y8474D01*
X3179Y8474D01*
X3020D01*
X3020Y8474D01*
X3020Y8474D01*
X3019Y8474D01*
X3019Y8474D01*
X3019Y8474D01*
X3019Y8474D01*
X3018Y8474D01*
X3018Y8474D01*
X3018Y8474D01*
X3018Y8474D01*
X3017Y8474D01*
X3017Y8474D01*
X3017Y8475D01*
X3017Y8475D01*
X3017Y8475D01*
X3016Y8475D01*
X3016Y8475D01*
X3016Y8476D01*
X3016Y8476D01*
X3016Y8476D01*
X3016Y8476D01*
X3015Y8476D01*
X3015Y8477D01*
X3015Y8477D01*
X3015Y8477D01*
X3015Y8477D01*
X3015Y8478D01*
X3015Y8478D01*
X3015Y8478D01*
X3015Y8479D01*
Y8543D01*
X3015Y8543D01*
X3015Y8543D01*
X3015Y8543D01*
X3015Y8544D01*
X3015Y8544D01*
X3015Y8544D01*
X3015Y8544D01*
X3015Y8545D01*
X3016Y8545D01*
X3016Y8545D01*
X3016Y8545D01*
X3016Y8545D01*
X3016Y8546D01*
X3016Y8546D01*
X3017Y8546D01*
X3017Y8546D01*
X3017Y8546D01*
X3017Y8547D01*
X3017Y8547D01*
X3018Y8547D01*
X3018Y8547D01*
X3018Y8547D01*
X3018Y8547D01*
X3019Y8547D01*
X3019Y8547D01*
X3019Y8547D01*
X3019Y8547D01*
X3020Y8547D01*
X3020Y8547D01*
X3020Y8547D01*
X3179D01*
X3179Y8547D01*
D02*
G37*
G36*
X9203Y8466D02*
Y8451D01*
X9193Y8441D01*
X9143D01*
X9133Y8451D01*
Y8466D01*
X9143Y8476D01*
X9193D01*
X9203Y8466D01*
D02*
G37*
G36*
X3505Y8404D02*
X3234D01*
Y8744D01*
X3505D01*
Y8404D01*
D02*
G37*
G36*
X9203Y8416D02*
Y8401D01*
X9193Y8391D01*
X9143D01*
X9133Y8401D01*
Y8416D01*
X9143Y8426D01*
X9193D01*
X9203Y8416D01*
D02*
G37*
G36*
X3719Y8420D02*
X3720Y8420D01*
X3720Y8420D01*
X3720Y8420D01*
X3720Y8420D01*
X3721Y8420D01*
X3721Y8420D01*
X3721Y8420D01*
X3721Y8420D01*
X3722Y8420D01*
X3722Y8420D01*
X3722Y8420D01*
X3722Y8419D01*
X3722Y8419D01*
X3723Y8419D01*
X3723Y8419D01*
X3723Y8419D01*
X3723Y8418D01*
X3723Y8418D01*
X3723Y8418D01*
X3724Y8418D01*
X3724Y8418D01*
X3724Y8417D01*
X3724Y8417D01*
X3724Y8417D01*
X3724Y8417D01*
X3724Y8416D01*
X3724Y8416D01*
X3724Y8416D01*
X3724Y8415D01*
Y8351D01*
X3724Y8351D01*
X3724Y8351D01*
X3724Y8351D01*
X3724Y8350D01*
X3724Y8350D01*
X3724Y8350D01*
X3724Y8350D01*
X3724Y8349D01*
X3724Y8349D01*
X3723Y8349D01*
X3723Y8349D01*
X3723Y8349D01*
X3723Y8348D01*
X3723Y8348D01*
X3723Y8348D01*
X3722Y8348D01*
X3722Y8348D01*
X3722Y8347D01*
X3722Y8347D01*
X3722Y8347D01*
X3721Y8347D01*
X3721Y8347D01*
X3721Y8347D01*
X3721Y8347D01*
X3720Y8347D01*
X3720Y8347D01*
X3720Y8347D01*
X3720Y8347D01*
X3719Y8347D01*
X3719Y8346D01*
X3560D01*
X3560Y8347D01*
X3560Y8347D01*
X3559Y8347D01*
X3559Y8347D01*
X3559Y8347D01*
X3559Y8347D01*
X3558Y8347D01*
X3558Y8347D01*
X3558Y8347D01*
X3558Y8347D01*
X3557Y8347D01*
X3557Y8347D01*
X3557Y8348D01*
X3557Y8348D01*
X3557Y8348D01*
X3556Y8348D01*
X3556Y8348D01*
X3556Y8349D01*
X3556Y8349D01*
X3556Y8349D01*
X3556Y8349D01*
X3555Y8349D01*
X3555Y8350D01*
X3555Y8350D01*
X3555Y8350D01*
X3555Y8350D01*
X3555Y8351D01*
X3555Y8351D01*
X3555Y8351D01*
X3555Y8351D01*
Y8415D01*
X3555Y8416D01*
X3555Y8416D01*
X3555Y8416D01*
X3555Y8417D01*
X3555Y8417D01*
X3555Y8417D01*
X3555Y8417D01*
X3555Y8418D01*
X3556Y8418D01*
X3556Y8418D01*
X3556Y8418D01*
X3556Y8418D01*
X3556Y8419D01*
X3556Y8419D01*
X3557Y8419D01*
X3557Y8419D01*
X3557Y8419D01*
X3557Y8420D01*
X3557Y8420D01*
X3558Y8420D01*
X3558Y8420D01*
X3558Y8420D01*
X3558Y8420D01*
X3559Y8420D01*
X3559Y8420D01*
X3559Y8420D01*
X3559Y8420D01*
X3560Y8420D01*
X3560Y8420D01*
X3560Y8421D01*
X3719D01*
X3719Y8420D01*
D02*
G37*
G36*
X3179D02*
X3180Y8420D01*
X3180Y8420D01*
X3180Y8420D01*
X3180Y8420D01*
X3181Y8420D01*
X3181Y8420D01*
X3181Y8420D01*
X3181Y8420D01*
X3182Y8420D01*
X3182Y8420D01*
X3182Y8420D01*
X3182Y8419D01*
X3182Y8419D01*
X3183Y8419D01*
X3183Y8419D01*
X3183Y8419D01*
X3183Y8418D01*
X3183Y8418D01*
X3183Y8418D01*
X3184Y8418D01*
X3184Y8418D01*
X3184Y8417D01*
X3184Y8417D01*
X3184Y8417D01*
X3184Y8417D01*
X3184Y8416D01*
X3184Y8416D01*
X3184Y8416D01*
X3184Y8415D01*
Y8351D01*
X3184Y8351D01*
X3184Y8351D01*
X3184Y8351D01*
X3184Y8350D01*
X3184Y8350D01*
X3184Y8350D01*
X3184Y8350D01*
X3184Y8349D01*
X3184Y8349D01*
X3183Y8349D01*
X3183Y8349D01*
X3183Y8349D01*
X3183Y8348D01*
X3183Y8348D01*
X3183Y8348D01*
X3182Y8348D01*
X3182Y8348D01*
X3182Y8347D01*
X3182Y8347D01*
X3182Y8347D01*
X3181Y8347D01*
X3181Y8347D01*
X3181Y8347D01*
X3181Y8347D01*
X3180Y8347D01*
X3180Y8347D01*
X3180Y8347D01*
X3180Y8347D01*
X3179Y8347D01*
X3179Y8346D01*
X3020D01*
X3020Y8347D01*
X3020Y8347D01*
X3019Y8347D01*
X3019Y8347D01*
X3019Y8347D01*
X3019Y8347D01*
X3018Y8347D01*
X3018Y8347D01*
X3018Y8347D01*
X3018Y8347D01*
X3017Y8347D01*
X3017Y8347D01*
X3017Y8348D01*
X3017Y8348D01*
X3017Y8348D01*
X3016Y8348D01*
X3016Y8348D01*
X3016Y8349D01*
X3016Y8349D01*
X3016Y8349D01*
X3016Y8349D01*
X3015Y8349D01*
X3015Y8350D01*
X3015Y8350D01*
X3015Y8350D01*
X3015Y8350D01*
X3015Y8351D01*
X3015Y8351D01*
X3015Y8351D01*
X3015Y8351D01*
Y8415D01*
X3015Y8416D01*
X3015Y8416D01*
X3015Y8416D01*
X3015Y8417D01*
X3015Y8417D01*
X3015Y8417D01*
X3015Y8417D01*
X3015Y8418D01*
X3016Y8418D01*
X3016Y8418D01*
X3016Y8418D01*
X3016Y8418D01*
X3016Y8419D01*
X3016Y8419D01*
X3017Y8419D01*
X3017Y8419D01*
X3017Y8419D01*
X3017Y8420D01*
X3017Y8420D01*
X3018Y8420D01*
X3018Y8420D01*
X3018Y8420D01*
X3018Y8420D01*
X3019Y8420D01*
X3019Y8420D01*
X3019Y8420D01*
X3019Y8420D01*
X3020Y8420D01*
X3020Y8420D01*
X3020Y8421D01*
X3179D01*
X3179Y8420D01*
D02*
G37*
G36*
X9463Y8471D02*
X9468Y8466D01*
Y8349D01*
X9461D01*
Y8319D01*
X9456Y8314D01*
X9441D01*
X9436Y8319D01*
X9436Y8349D01*
X9428D01*
Y8466D01*
X9433Y8471D01*
X9463Y8471D01*
D02*
G37*
G36*
X9531Y8649D02*
Y8619D01*
X9538D01*
Y8571D01*
X9623D01*
X9628Y8566D01*
Y8551D01*
X9623Y8546D01*
X9538D01*
Y8521D01*
X9623D01*
X9628Y8516D01*
Y8501D01*
X9623Y8496D01*
X9538D01*
Y8471D01*
X9623D01*
X9628Y8466D01*
Y8451D01*
X9623Y8446D01*
X9538D01*
Y8421D01*
X9623D01*
X9628Y8416D01*
Y8401D01*
X9623Y8396D01*
X9538D01*
Y8349D01*
X9531D01*
Y8319D01*
X9526Y8314D01*
X9511D01*
X9506Y8319D01*
Y8349D01*
X9498D01*
Y8619D01*
X9506D01*
X9506Y8649D01*
X9511Y8654D01*
X9526D01*
X9531Y8649D01*
D02*
G37*
G36*
X9393Y8471D02*
X9398Y8466D01*
Y8349D01*
X9391D01*
X9391Y8319D01*
X9386Y8314D01*
X9371D01*
X9366Y8319D01*
X9366Y8349D01*
X9358D01*
Y8466D01*
X9363Y8471D01*
X9393Y8471D01*
D02*
G37*
G36*
X9338Y8369D02*
Y8319D01*
X9328Y8309D01*
X9313D01*
X9303Y8319D01*
Y8369D01*
X9313Y8379D01*
X9328D01*
X9338Y8369D01*
D02*
G37*
G36*
X9288D02*
Y8319D01*
X9278Y8309D01*
X9263D01*
X9253Y8319D01*
Y8369D01*
X9263Y8379D01*
X9278D01*
X9288Y8369D01*
D02*
G37*
G36*
X9238D02*
Y8319D01*
X9228Y8309D01*
X9213D01*
X9203Y8319D01*
Y8369D01*
X9213Y8379D01*
X9228D01*
X9238Y8369D01*
D02*
G37*
G36*
X9206Y6413D02*
Y6363D01*
X9196Y6353D01*
X9181D01*
X9171Y6363D01*
Y6413D01*
X9181Y6423D01*
X9196D01*
X9206Y6413D01*
D02*
G37*
G36*
X9156D02*
Y6363D01*
X9146Y6353D01*
X9131D01*
X9121Y6363D01*
Y6413D01*
X9131Y6423D01*
X9146D01*
X9156Y6413D01*
D02*
G37*
G36*
X9106D02*
Y6363D01*
X9096Y6353D01*
X9081D01*
X9071Y6363D01*
Y6413D01*
X9081Y6423D01*
X9096D01*
X9106Y6413D01*
D02*
G37*
G36*
X9071Y6331D02*
Y6316D01*
X9061Y6306D01*
X9011D01*
X9001Y6316D01*
Y6331D01*
X9011Y6341D01*
X9061D01*
X9071Y6331D01*
D02*
G37*
G36*
X9328Y6413D02*
X9328Y6383D01*
X9336D01*
Y6266D01*
X9331Y6261D01*
X9301Y6261D01*
X9296Y6266D01*
Y6383D01*
X9303D01*
Y6413D01*
X9308Y6418D01*
X9323D01*
X9328Y6413D01*
D02*
G37*
G36*
X9258D02*
Y6383D01*
X9266D01*
X9266Y6266D01*
X9261Y6261D01*
X9231Y6261D01*
X9226Y6266D01*
Y6383D01*
X9233D01*
Y6413D01*
X9238Y6418D01*
X9253D01*
X9258Y6413D01*
D02*
G37*
G36*
X9071Y6281D02*
Y6266D01*
X9061Y6256D01*
X9011D01*
X9001Y6266D01*
Y6281D01*
X9011Y6291D01*
X9061D01*
X9071Y6281D01*
D02*
G37*
G36*
Y6231D02*
Y6216D01*
X9061Y6206D01*
X9011D01*
X9001Y6216D01*
Y6231D01*
X9011Y6241D01*
X9061D01*
X9071Y6231D01*
D02*
G37*
G36*
Y6181D02*
Y6166D01*
X9061Y6156D01*
X9011D01*
X9001Y6166D01*
Y6181D01*
X9011Y6191D01*
X9061D01*
X9071Y6181D01*
D02*
G37*
G36*
X9331Y6236D02*
X9336Y6231D01*
Y6113D01*
X9328D01*
Y6083D01*
X9323Y6078D01*
X9308D01*
X9303Y6083D01*
X9303Y6113D01*
X9296D01*
Y6231D01*
X9301Y6236D01*
X9331Y6236D01*
D02*
G37*
G36*
X9398Y6413D02*
Y6383D01*
X9406D01*
Y6336D01*
X9491D01*
X9496Y6331D01*
Y6316D01*
X9491Y6311D01*
X9406D01*
Y6286D01*
X9491D01*
X9496Y6281D01*
Y6266D01*
X9491Y6261D01*
X9406D01*
Y6236D01*
X9491D01*
X9496Y6231D01*
Y6216D01*
X9491Y6211D01*
X9406D01*
Y6186D01*
X9491D01*
X9496Y6181D01*
Y6166D01*
X9491Y6161D01*
X9406D01*
Y6113D01*
X9398D01*
Y6083D01*
X9393Y6078D01*
X9378D01*
X9373Y6083D01*
Y6113D01*
X9366D01*
Y6383D01*
X9373D01*
X9373Y6413D01*
X9378Y6418D01*
X9393D01*
X9398Y6413D01*
D02*
G37*
G36*
X9261Y6236D02*
X9266Y6231D01*
Y6113D01*
X9258D01*
X9258Y6083D01*
X9253Y6078D01*
X9238D01*
X9233Y6083D01*
X9233Y6113D01*
X9226D01*
Y6231D01*
X9231Y6236D01*
X9261Y6236D01*
D02*
G37*
G36*
X9206Y6133D02*
Y6083D01*
X9196Y6073D01*
X9181D01*
X9171Y6083D01*
Y6133D01*
X9181Y6143D01*
X9196D01*
X9206Y6133D01*
D02*
G37*
G36*
X9156D02*
Y6083D01*
X9146Y6073D01*
X9131D01*
X9121Y6083D01*
Y6133D01*
X9131Y6143D01*
X9146D01*
X9156Y6133D01*
D02*
G37*
G36*
X9106D02*
Y6083D01*
X9096Y6073D01*
X9081D01*
X9071Y6083D01*
Y6133D01*
X9081Y6143D01*
X9096D01*
X9106Y6133D01*
D02*
G37*
G36*
X9452Y4394D02*
Y4344D01*
X9442Y4334D01*
X9427D01*
X9417Y4344D01*
Y4394D01*
X9427Y4404D01*
X9442D01*
X9452Y4394D01*
D02*
G37*
G36*
X9402D02*
Y4344D01*
X9392Y4334D01*
X9377D01*
X9367Y4344D01*
Y4394D01*
X9377Y4404D01*
X9392D01*
X9402Y4394D01*
D02*
G37*
G36*
X9352D02*
Y4344D01*
X9342Y4334D01*
X9327D01*
X9317Y4344D01*
Y4394D01*
X9327Y4404D01*
X9342D01*
X9352Y4394D01*
D02*
G37*
G36*
X9317Y4312D02*
Y4297D01*
X9307Y4287D01*
X9257D01*
X9247Y4297D01*
Y4312D01*
X9257Y4322D01*
X9307D01*
X9317Y4312D01*
D02*
G37*
G36*
X9575Y4394D02*
X9575Y4364D01*
X9582D01*
Y4247D01*
X9577Y4242D01*
X9547Y4242D01*
X9542Y4247D01*
Y4364D01*
X9550D01*
Y4394D01*
X9555Y4399D01*
X9570D01*
X9575Y4394D01*
D02*
G37*
G36*
X9505D02*
Y4364D01*
X9512D01*
X9512Y4247D01*
X9507Y4242D01*
X9477Y4242D01*
X9472Y4247D01*
Y4364D01*
X9480D01*
Y4394D01*
X9485Y4399D01*
X9500D01*
X9505Y4394D01*
D02*
G37*
G36*
X9317Y4262D02*
Y4247D01*
X9307Y4237D01*
X9257D01*
X9247Y4247D01*
Y4262D01*
X9257Y4272D01*
X9307D01*
X9317Y4262D01*
D02*
G37*
G36*
Y4212D02*
Y4197D01*
X9307Y4187D01*
X9257D01*
X9247Y4197D01*
Y4212D01*
X9257Y4222D01*
X9307D01*
X9317Y4212D01*
D02*
G37*
G36*
Y4162D02*
Y4147D01*
X9307Y4137D01*
X9257D01*
X9247Y4147D01*
Y4162D01*
X9257Y4172D01*
X9307D01*
X9317Y4162D01*
D02*
G37*
G36*
X9577Y4217D02*
X9582Y4212D01*
Y4094D01*
X9575D01*
Y4064D01*
X9570Y4059D01*
X9555D01*
X9550Y4064D01*
X9550Y4094D01*
X9542D01*
Y4212D01*
X9547Y4217D01*
X9577Y4217D01*
D02*
G37*
G36*
X9645Y4394D02*
Y4364D01*
X9652D01*
Y4317D01*
X9737D01*
X9742Y4312D01*
Y4297D01*
X9737Y4292D01*
X9652D01*
Y4267D01*
X9737D01*
X9742Y4262D01*
Y4247D01*
X9737Y4242D01*
X9652D01*
Y4217D01*
X9737D01*
X9742Y4212D01*
Y4197D01*
X9737Y4192D01*
X9652D01*
Y4167D01*
X9737D01*
X9742Y4162D01*
Y4147D01*
X9737Y4142D01*
X9652D01*
Y4094D01*
X9645D01*
Y4064D01*
X9640Y4059D01*
X9625D01*
X9620Y4064D01*
Y4094D01*
X9612D01*
Y4364D01*
X9620D01*
X9620Y4394D01*
X9625Y4399D01*
X9640D01*
X9645Y4394D01*
D02*
G37*
G36*
X9507Y4217D02*
X9512Y4212D01*
Y4094D01*
X9505D01*
X9505Y4064D01*
X9500Y4059D01*
X9485D01*
X9480Y4064D01*
X9480Y4094D01*
X9472D01*
Y4212D01*
X9477Y4217D01*
X9507Y4217D01*
D02*
G37*
G36*
X9452Y4114D02*
Y4064D01*
X9442Y4054D01*
X9427D01*
X9417Y4064D01*
Y4114D01*
X9427Y4124D01*
X9442D01*
X9452Y4114D01*
D02*
G37*
G36*
X9402D02*
Y4064D01*
X9392Y4054D01*
X9377D01*
X9367Y4064D01*
Y4114D01*
X9377Y4124D01*
X9392D01*
X9402Y4114D01*
D02*
G37*
G36*
X9352D02*
Y4064D01*
X9342Y4054D01*
X9327D01*
X9317Y4064D01*
Y4114D01*
X9327Y4124D01*
X9342D01*
X9352Y4114D01*
D02*
G37*
D24*
X4119Y4470D02*
D03*
Y4550D02*
D03*
Y4630D02*
D03*
Y4710D02*
D03*
Y4790D02*
D03*
Y4870D02*
D03*
Y4950D02*
D03*
Y5030D02*
D03*
X4974D02*
D03*
Y4950D02*
D03*
Y4870D02*
D03*
Y4790D02*
D03*
Y4710D02*
D03*
Y4630D02*
D03*
Y4550D02*
D03*
Y4470D02*
D03*
D25*
X4267Y5177D02*
D03*
X4347D02*
D03*
X4427D02*
D03*
X4507D02*
D03*
X4587D02*
D03*
X4667D02*
D03*
X4747D02*
D03*
X4827D02*
D03*
Y4322D02*
D03*
X4747D02*
D03*
X4667D02*
D03*
X4587D02*
D03*
X4507D02*
D03*
X4427D02*
D03*
X4347D02*
D03*
X4267D02*
D03*
D37*
X9168Y8409D02*
D03*
Y8459D02*
D03*
Y8509D02*
D03*
Y8559D02*
D03*
X9036Y6323D02*
D03*
Y6273D02*
D03*
Y6223D02*
D03*
Y6173D02*
D03*
X9282Y4154D02*
D03*
Y4204D02*
D03*
Y4254D02*
D03*
Y4304D02*
D03*
D38*
X9221Y8624D02*
D03*
X9271D02*
D03*
X9321D02*
D03*
Y8344D02*
D03*
X9271D02*
D03*
X9221D02*
D03*
X9088Y6108D02*
D03*
X9138D02*
D03*
X9188D02*
D03*
Y6388D02*
D03*
X9138D02*
D03*
X9088D02*
D03*
X9335Y4369D02*
D03*
X9385D02*
D03*
X9435D02*
D03*
Y4089D02*
D03*
X9385D02*
D03*
X9335D02*
D03*
D39*
X2956Y6706D02*
D03*
Y6641D02*
D03*
Y6576D02*
D03*
Y6511D02*
D03*
Y6446D02*
D03*
D40*
X2934Y6896D02*
D03*
Y6256D02*
D03*
D41*
X2689Y6696D02*
D03*
Y6456D02*
D03*
D42*
X4106Y8230D02*
D03*
X4606D02*
D03*
D43*
X3886Y5575D02*
D03*
X3480D02*
D03*
X3886Y5702D02*
D03*
X3480D02*
D03*
X3886Y5829D02*
D03*
X3480D02*
D03*
X3886Y5956D02*
D03*
X3480D02*
D03*
X3886Y6083D02*
D03*
X3480D02*
D03*
D44*
X4705Y6750D02*
D03*
X4515D02*
D03*
X4705Y7010D02*
D03*
X4610D02*
D03*
X4515D02*
D03*
X3315Y6699D02*
D03*
X3505D02*
D03*
X3315Y6439D02*
D03*
X3410D02*
D03*
X3505D02*
D03*
D45*
X4883Y8077D02*
D03*
X5023D02*
D03*
X4883Y8204D02*
D03*
X5023D02*
D03*
X4883Y8331D02*
D03*
X5023D02*
D03*
X4883Y8458D02*
D03*
X5023D02*
D03*
X4883Y8585D02*
D03*
X5023D02*
D03*
X2991Y8192D02*
D03*
X3131D02*
D03*
X5607Y7798D02*
D03*
X5747D02*
D03*
X9458Y3264D02*
D03*
X9318D02*
D03*
X9643Y7175D02*
D03*
X9503D02*
D03*
X4248Y3950D02*
D03*
X4108D02*
D03*
X5201Y6248D02*
D03*
X5061D02*
D03*
X4108Y4178D02*
D03*
X4248D02*
D03*
X5188Y5448D02*
D03*
X5048D02*
D03*
X5099Y5283D02*
D03*
X4959D02*
D03*
D46*
X4978Y8858D02*
D03*
Y8718D02*
D03*
X4851Y8858D02*
D03*
Y8718D02*
D03*
X4724Y8858D02*
D03*
Y8718D02*
D03*
X4597Y8858D02*
D03*
Y8718D02*
D03*
X2832Y8782D02*
D03*
Y8642D02*
D03*
Y8503D02*
D03*
Y8363D02*
D03*
X3810Y8769D02*
D03*
Y8909D02*
D03*
X3810Y8630D02*
D03*
Y8490D02*
D03*
X4064Y8909D02*
D03*
Y8769D02*
D03*
X4191Y8909D02*
D03*
Y8769D02*
D03*
X3937Y8909D02*
D03*
Y8769D02*
D03*
X9271Y5429D02*
D03*
Y5289D02*
D03*
X9538Y3613D02*
D03*
Y3473D02*
D03*
X9601Y5289D02*
D03*
Y5429D02*
D03*
X9741Y7658D02*
D03*
Y7518D02*
D03*
X5118Y5163D02*
D03*
Y5023D02*
D03*
X7595Y4394D02*
D03*
Y4534D02*
D03*
X4851Y6597D02*
D03*
Y6738D02*
D03*
X4381Y6890D02*
D03*
Y6750D02*
D03*
X7582Y5518D02*
D03*
Y5658D02*
D03*
X6693Y6648D02*
D03*
Y6788D02*
D03*
X7582Y6636D02*
D03*
Y6776D02*
D03*
X4508Y3949D02*
D03*
Y4089D02*
D03*
X6693Y5518D02*
D03*
Y5658D02*
D03*
Y4400D02*
D03*
Y4540D02*
D03*
D47*
X6388Y8367D02*
D03*
X6261D02*
D03*
X6134D02*
D03*
X6007D02*
D03*
D48*
X6198Y8738D02*
D03*
D49*
X3428Y9055D02*
D03*
X3278D02*
D03*
X8862Y3962D02*
D03*
X8712D02*
D03*
X8865Y4140D02*
D03*
X8715D02*
D03*
X8865Y4318D02*
D03*
X8715D02*
D03*
X8484Y6160D02*
D03*
X8634D02*
D03*
X8484Y5982D02*
D03*
X8634D02*
D03*
X8485Y6337D02*
D03*
X8635D02*
D03*
X8865Y4496D02*
D03*
X8715D02*
D03*
X8485Y6528D02*
D03*
X8635D02*
D03*
X8637Y8750D02*
D03*
X8787D02*
D03*
X8637Y8407D02*
D03*
X8787D02*
D03*
X8637Y8242D02*
D03*
X8787D02*
D03*
X8637Y8585D02*
D03*
X8787D02*
D03*
X3812Y3950D02*
D03*
X3962D02*
D03*
X6044Y7798D02*
D03*
X5894D02*
D03*
D50*
X2667Y8636D02*
D03*
Y8786D02*
D03*
X2667Y8358D02*
D03*
Y8508D02*
D03*
X9207Y3949D02*
D03*
Y3799D02*
D03*
X9373Y3468D02*
D03*
Y3618D02*
D03*
X9030Y5702D02*
D03*
Y5852D02*
D03*
X9436Y5284D02*
D03*
Y5434D02*
D03*
X9322Y7719D02*
D03*
Y7569D02*
D03*
X9525Y7719D02*
D03*
Y7569D02*
D03*
X4521Y6489D02*
D03*
Y6338D02*
D03*
D51*
X10782Y4432D02*
D03*
Y3772D02*
D03*
Y5893D02*
D03*
Y6579D02*
D03*
Y8077D02*
D03*
Y8763D02*
D03*
D52*
X7377Y4762D02*
D03*
Y4890D02*
D03*
Y5017D02*
D03*
Y5144D02*
D03*
Y5271D02*
D03*
Y5397D02*
D03*
Y5524D02*
D03*
Y5651D02*
D03*
X6897Y4762D02*
D03*
Y4890D02*
D03*
Y5017D02*
D03*
Y5144D02*
D03*
Y5271D02*
D03*
Y5397D02*
D03*
Y5524D02*
D03*
Y5651D02*
D03*
X6899Y6782D02*
D03*
Y6655D02*
D03*
Y6528D02*
D03*
Y6401D02*
D03*
Y6274D02*
D03*
Y6147D02*
D03*
Y6020D02*
D03*
Y5893D02*
D03*
X7379Y6782D02*
D03*
Y6655D02*
D03*
Y6528D02*
D03*
Y6401D02*
D03*
Y6274D02*
D03*
Y6147D02*
D03*
Y6020D02*
D03*
Y5893D02*
D03*
X6899Y4534D02*
D03*
Y4407D02*
D03*
Y4280D02*
D03*
Y4153D02*
D03*
Y4026D02*
D03*
Y3899D02*
D03*
Y3772D02*
D03*
Y3645D02*
D03*
X7379Y4534D02*
D03*
Y4407D02*
D03*
Y4280D02*
D03*
Y4153D02*
D03*
Y4026D02*
D03*
Y3899D02*
D03*
Y3772D02*
D03*
Y3645D02*
D03*
D53*
X7658Y8801D02*
D03*
X7112D02*
D03*
D54*
X2689Y6906D02*
D03*
Y6246D02*
D03*
D55*
X6452Y7125D02*
D03*
X10312Y3200D02*
D03*
X10439Y7353D02*
D03*
X6769Y3150D02*
D03*
X3772Y7264D02*
D03*
X3708Y3238D02*
D03*
D56*
X5347Y8763D02*
D03*
X5537Y6160D02*
D03*
Y7099D02*
D03*
X2807Y5448D02*
D03*
Y3708D02*
D03*
X2805Y4584D02*
D03*
D57*
X5601Y8636D02*
D03*
X5347Y8509D02*
D03*
X5601Y8382D02*
D03*
X5791Y6033D02*
D03*
X5537Y5906D02*
D03*
X5791Y5778D02*
D03*
Y6718D02*
D03*
X5537Y6845D02*
D03*
X5791Y6972D02*
D03*
X7671Y3365D02*
D03*
X7798Y3111D02*
D03*
X7925Y3365D02*
D03*
X3061Y5321D02*
D03*
X2807Y5194D02*
D03*
X3061Y5067D02*
D03*
Y3327D02*
D03*
X2807Y3454D02*
D03*
X3061Y3581D02*
D03*
X3058Y4203D02*
D03*
X2805Y4330D02*
D03*
X3058Y4457D02*
D03*
D58*
X5527Y8903D02*
D03*
X5717Y6299D02*
D03*
Y7239D02*
D03*
X7404Y3292D02*
D03*
X2987Y5588D02*
D03*
Y3848D02*
D03*
X2984Y4724D02*
D03*
D59*
X8361Y7607D02*
D03*
X8365Y3467D02*
D03*
X8348Y5499D02*
D03*
D60*
X8861Y7607D02*
D03*
X8865Y3467D02*
D03*
X8848Y5499D02*
D03*
D61*
X7544Y3111D02*
D03*
M02*
