G04*
G04 #@! TF.GenerationSoftware,Altium Limited,Altium Designer,21.9.1 (22)*
G04*
G04 Layer_Color=16711935*
%FSLAX42Y42*%
%MOMM*%
G71*
G04*
G04 #@! TF.SameCoordinates,B3A7D64E-7091-44AA-A069-5FD8CBDAA8E7*
G04*
G04*
G04 #@! TF.FilePolarity,Negative*
G04*
G01*
G75*
%ADD45R,1.00X1.10*%
%ADD54O,2.00X1.10*%
%ADD55C,1.73*%
%ADD56R,1.56X1.56*%
%ADD57C,1.56*%
%ADD58C,1.75*%
%ADD59C,1.40*%
%ADD60R,1.40X1.40*%
%ADD61R,1.56X1.56*%
D45*
X9646Y4305D02*
D03*
X9506D02*
D03*
X9404Y6337D02*
D03*
X9264D02*
D03*
X9519Y8560D02*
D03*
X9379D02*
D03*
X9646Y4153D02*
D03*
X9506D02*
D03*
X9404Y6210D02*
D03*
X9264D02*
D03*
X9519Y8407D02*
D03*
X9379D02*
D03*
D54*
X2689Y6906D02*
D03*
Y6246D02*
D03*
D55*
X6452Y7125D02*
D03*
X10312Y3200D02*
D03*
X10439Y7353D02*
D03*
X6769Y3150D02*
D03*
X3772Y7264D02*
D03*
X3708Y3238D02*
D03*
D56*
X5347Y8763D02*
D03*
X5537Y6160D02*
D03*
Y7099D02*
D03*
X2807Y5448D02*
D03*
Y3708D02*
D03*
X2805Y4584D02*
D03*
D57*
X5601Y8636D02*
D03*
X5347Y8509D02*
D03*
X5601Y8382D02*
D03*
X5791Y6033D02*
D03*
X5537Y5906D02*
D03*
X5791Y5778D02*
D03*
Y6718D02*
D03*
X5537Y6845D02*
D03*
X5791Y6972D02*
D03*
X7671Y3365D02*
D03*
X7798Y3111D02*
D03*
X7925Y3365D02*
D03*
X3061Y5321D02*
D03*
X2807Y5194D02*
D03*
X3061Y5067D02*
D03*
Y3327D02*
D03*
X2807Y3454D02*
D03*
X3061Y3581D02*
D03*
X3058Y4203D02*
D03*
X2805Y4330D02*
D03*
X3058Y4457D02*
D03*
D58*
X5527Y8903D02*
D03*
X5717Y6299D02*
D03*
Y7239D02*
D03*
X7404Y3292D02*
D03*
X2987Y5588D02*
D03*
Y3848D02*
D03*
X2984Y4724D02*
D03*
D59*
X8361Y7607D02*
D03*
X8365Y3467D02*
D03*
X8348Y5499D02*
D03*
D60*
X8861Y7607D02*
D03*
X8865Y3467D02*
D03*
X8848Y5499D02*
D03*
D61*
X7544Y3111D02*
D03*
M02*
