G04*
G04 #@! TF.GenerationSoftware,Altium Limited,Altium Designer,21.9.1 (22)*
G04*
G04 Layer_Color=65535*
%FSLAX42Y42*%
%MOMM*%
G71*
G04*
G04 #@! TF.SameCoordinates,B3A7D64E-7091-44AA-A069-5FD8CBDAA8E7*
G04*
G04*
G04 #@! TF.FilePolarity,Positive*
G04*
G01*
G75*
%ADD10C,0.20*%
%ADD11C,0.25*%
%ADD12C,0.13*%
%ADD13C,0.40*%
%ADD14C,0.15*%
%ADD15C,0.15*%
%ADD16C,0.25*%
%ADD17C,0.08*%
G36*
X4026Y4649D02*
Y4611D01*
X4001D01*
Y4649D01*
X4026D01*
D02*
G37*
G36*
X5067Y4569D02*
Y4531D01*
X5093D01*
Y4569D01*
X5067D01*
D02*
G37*
G36*
X4568Y5271D02*
Y5296D01*
X4606D01*
Y5271D01*
X4568D01*
D02*
G37*
D10*
X2973Y8764D02*
G03*
X2973Y8764I-10J0D01*
G01*
X3049Y6776D02*
G03*
X3049Y6776I-10J0D01*
G01*
X5908Y8352D02*
G03*
X5908Y8352I-10J0D01*
G01*
X5156Y8763D02*
G03*
X5156Y8763I-10J0D01*
G01*
X9096Y7607D02*
G03*
X9096Y7607I-10J0D01*
G01*
X9100Y3467D02*
G03*
X9100Y3467I-10J0D01*
G01*
X9083Y5499D02*
G03*
X9083Y5499I-10J0D01*
G01*
X5346Y6160D02*
G03*
X5346Y6160I-10J0D01*
G01*
Y7099D02*
G03*
X5346Y7099I-10J0D01*
G01*
X7554Y2911D02*
G03*
X7554Y2911I-10J0D01*
G01*
X2616Y5448D02*
G03*
X2616Y5448I-10J0D01*
G01*
Y3708D02*
G03*
X2616Y3708I-10J0D01*
G01*
X2614Y4584D02*
G03*
X2614Y4584I-10J0D01*
G01*
X3976Y8610D02*
X4736D01*
X3976Y7850D02*
X4736D01*
X3976Y8355D02*
Y8610D01*
X4736Y8355D02*
Y8610D01*
X3976Y7850D02*
Y8105D01*
X4736Y7850D02*
Y8105D01*
X3333Y9020D02*
X3373D01*
X3333Y9090D02*
X3373D01*
X2632Y8691D02*
Y8731D01*
X2702Y8691D02*
Y8731D01*
X2632Y8413D02*
Y8453D01*
X2702Y8413D02*
Y8453D01*
X8767Y3927D02*
X8807D01*
X8767Y3997D02*
X8807D01*
X8770Y4105D02*
X8810D01*
X8770Y4175D02*
X8810D01*
X8770Y4283D02*
X8810D01*
X8770Y4353D02*
X8810D01*
X8539Y6194D02*
X8579D01*
X8539Y6124D02*
X8579D01*
X8539Y6017D02*
X8579D01*
X8539Y5947D02*
X8579D01*
X8540Y6372D02*
X8580D01*
X8540Y6302D02*
X8580D01*
X8770Y4461D02*
X8810D01*
X8770Y4531D02*
X8810D01*
X9243Y3853D02*
Y3894D01*
X9172Y3853D02*
Y3894D01*
X9338Y3523D02*
Y3563D01*
X9408Y3523D02*
Y3563D01*
X8995Y5757D02*
Y5797D01*
X9065Y5757D02*
Y5797D01*
X9401Y5339D02*
Y5379D01*
X9471Y5339D02*
Y5379D01*
X8540Y6563D02*
X8580D01*
X8540Y6493D02*
X8580D01*
X8692Y8785D02*
X8732D01*
X8692Y8715D02*
X8732D01*
X8692Y8442D02*
X8732D01*
X8692Y8372D02*
X8732D01*
X8692Y8277D02*
X8732D01*
X8692Y8207D02*
X8732D01*
X8692Y8620D02*
X8732D01*
X8692Y8550D02*
X8732D01*
X9357Y7624D02*
Y7664D01*
X9287Y7624D02*
Y7664D01*
X9560Y7624D02*
Y7664D01*
X9490Y7624D02*
Y7664D01*
X7047Y4707D02*
X7227D01*
X7047Y5707D02*
X7227D01*
Y4707D02*
Y5707D01*
X7047Y4707D02*
Y5707D01*
X7049Y5837D02*
Y6837D01*
X7229Y5837D02*
Y6837D01*
X7049D02*
X7229D01*
X7049Y5837D02*
X7229D01*
X7049Y3589D02*
Y4589D01*
X7229Y3589D02*
Y4589D01*
X7049D02*
X7229D01*
X7049Y3589D02*
X7229D01*
X4556Y6394D02*
Y6433D01*
X4486Y6394D02*
Y6433D01*
X3867Y3985D02*
X3907D01*
X3867Y3915D02*
X3907D01*
X5949Y7763D02*
X5989D01*
X5949Y7833D02*
X5989D01*
D11*
X9233Y8251D02*
G03*
X9233Y8251I-12J0D01*
G01*
X9101Y6016D02*
G03*
X9101Y6016I-12J0D01*
G01*
X9347Y3997D02*
G03*
X9347Y3997I-12J0D01*
G01*
X6910Y5737D02*
G03*
X6910Y5737I-12J0D01*
G01*
X6911Y6867D02*
G03*
X6911Y6867I-12J0D01*
G01*
Y4619D02*
G03*
X6911Y4619I-12J0D01*
G01*
D12*
X9011Y7607D02*
G03*
X9011Y7607I-400J0D01*
G01*
X9015Y3467D02*
G03*
X9015Y3467I-400J0D01*
G01*
X8998Y5499D02*
G03*
X8998Y5499I-400J0D01*
G01*
X3175Y8826D02*
X3565D01*
X3175Y8321D02*
X3565D01*
X2544Y6196D02*
Y6956D01*
X2799D02*
X2839D01*
X2799Y6196D02*
X2839D01*
X2549Y6956D02*
X2579D01*
X2549Y6196D02*
X2579D01*
X6470Y8434D02*
Y8829D01*
X5926Y8434D02*
Y8829D01*
X5214Y8928D02*
X5417D01*
X5637D02*
X5734D01*
Y8221D02*
Y8928D01*
X5214Y8221D02*
X5734D01*
X5214D02*
Y8928D01*
X5404Y6324D02*
X5607D01*
X5827D02*
X5924D01*
Y5617D02*
Y6324D01*
X5404Y5617D02*
X5924D01*
X5404D02*
Y6324D01*
Y6557D02*
Y7264D01*
Y6557D02*
X5924D01*
Y7264D01*
X5827D02*
X5924D01*
X5404D02*
X5607D01*
X7379Y2978D02*
Y3182D01*
Y3401D02*
Y3499D01*
X8086D01*
Y2978D02*
Y3499D01*
X7379Y2978D02*
X8086D01*
X2674Y5613D02*
X2877D01*
X3097D02*
X3194D01*
Y4906D02*
Y5613D01*
X2674Y4906D02*
X3194D01*
X2674D02*
Y5613D01*
Y3166D02*
Y3873D01*
Y3166D02*
X3194D01*
Y3873D01*
X3097D02*
X3194D01*
X2674D02*
X2877D01*
X2672Y4042D02*
Y4749D01*
Y4042D02*
X3192D01*
Y4749D01*
X3094D02*
X3192D01*
X2672D02*
X2875D01*
D13*
X4780Y7010D02*
D03*
X3240Y6439D02*
D03*
D14*
X9153Y8329D02*
Y8359D01*
Y8609D02*
Y8639D01*
X9171D01*
X9153Y8329D02*
X9171D01*
X9021Y6093D02*
X9038D01*
X9021Y6403D02*
X9038D01*
X9021Y6373D02*
Y6403D01*
Y6093D02*
Y6123D01*
X9267Y4074D02*
Y4104D01*
Y4354D02*
Y4384D01*
X9285D01*
X9267Y4074D02*
X9285D01*
D15*
X4174Y5122D02*
X4208D01*
X4919Y5088D02*
Y5122D01*
X4885Y4378D02*
X4919D01*
X4174D02*
X4208D01*
X4174Y5088D02*
Y5122D01*
X4885D02*
X4919D01*
Y4378D02*
Y4411D01*
X4174Y4378D02*
Y4411D01*
X4898Y7984D02*
X4881Y8001D01*
X4847D01*
X4830Y7984D01*
Y7916D01*
X4847Y7899D01*
X4881D01*
X4898Y7916D01*
X4932Y7984D02*
X4949Y8001D01*
X4983D01*
X5000Y7984D01*
Y7967D01*
X4983Y7950D01*
X4966D01*
X4983D01*
X5000Y7933D01*
Y7916D01*
X4983Y7899D01*
X4949D01*
X4932Y7916D01*
X5084Y7899D02*
Y8001D01*
X5033Y7950D01*
X5101D01*
X5304Y7781D02*
X5287Y7798D01*
X5254D01*
X5237Y7781D01*
Y7713D01*
X5254Y7696D01*
X5287D01*
X5304Y7713D01*
X5338Y7781D02*
X5355Y7798D01*
X5389D01*
X5406Y7781D01*
Y7764D01*
X5389Y7747D01*
X5372D01*
X5389D01*
X5406Y7730D01*
Y7713D01*
X5389Y7696D01*
X5355D01*
X5338Y7713D01*
X5440Y7781D02*
X5457Y7798D01*
X5491D01*
X5508Y7781D01*
Y7764D01*
X5491Y7747D01*
X5474D01*
X5491D01*
X5508Y7730D01*
Y7713D01*
X5491Y7696D01*
X5457D01*
X5440Y7713D01*
X5304Y7908D02*
X5287Y7925D01*
X5254D01*
X5237Y7908D01*
Y7840D01*
X5254Y7823D01*
X5287D01*
X5304Y7840D01*
X5338Y7908D02*
X5355Y7925D01*
X5389D01*
X5406Y7908D01*
Y7891D01*
X5389Y7874D01*
X5372D01*
X5389D01*
X5406Y7857D01*
Y7840D01*
X5389Y7823D01*
X5355D01*
X5338Y7840D01*
X5508Y7823D02*
X5440D01*
X5508Y7891D01*
Y7908D01*
X5491Y7925D01*
X5457D01*
X5440Y7908D01*
X5309Y8035D02*
X5292Y8052D01*
X5258D01*
X5241Y8035D01*
Y7967D01*
X5258Y7950D01*
X5292D01*
X5309Y7967D01*
X5342Y8035D02*
X5359Y8052D01*
X5393D01*
X5410Y8035D01*
Y8018D01*
X5393Y8001D01*
X5376D01*
X5393D01*
X5410Y7984D01*
Y7967D01*
X5393Y7950D01*
X5359D01*
X5342Y7967D01*
X5444Y7950D02*
X5478D01*
X5461D01*
Y8052D01*
X5444Y8035D01*
X5304Y8162D02*
X5287Y8179D01*
X5254D01*
X5237Y8162D01*
Y8094D01*
X5254Y8077D01*
X5287D01*
X5304Y8094D01*
X5338Y8162D02*
X5355Y8179D01*
X5389D01*
X5406Y8162D01*
Y8145D01*
X5389Y8128D01*
X5372D01*
X5389D01*
X5406Y8111D01*
Y8094D01*
X5389Y8077D01*
X5355D01*
X5338Y8094D01*
X5440Y8162D02*
X5457Y8179D01*
X5491D01*
X5508Y8162D01*
Y8094D01*
X5491Y8077D01*
X5457D01*
X5440Y8094D01*
Y8162D01*
X4945Y8987D02*
X4928Y8970D01*
Y8937D01*
X4945Y8920D01*
X5012D01*
X5029Y8937D01*
Y8970D01*
X5012Y8987D01*
X5029Y9089D02*
Y9021D01*
X4961Y9089D01*
X4945D01*
X4928Y9072D01*
Y9038D01*
X4945Y9021D01*
X5012Y9123D02*
X5029Y9140D01*
Y9174D01*
X5012Y9191D01*
X4945D01*
X4928Y9174D01*
Y9140D01*
X4945Y9123D01*
X4961D01*
X4978Y9140D01*
Y9191D01*
X4564Y8983D02*
X4547Y8966D01*
Y8932D01*
X4564Y8915D01*
X4631D01*
X4648Y8932D01*
Y8966D01*
X4631Y8983D01*
X4648Y9017D02*
Y9051D01*
Y9034D01*
X4547D01*
X4564Y9017D01*
Y9102D02*
X4547Y9119D01*
Y9152D01*
X4564Y9169D01*
X4580D01*
X4597Y9152D01*
X4614Y9169D01*
X4631D01*
X4648Y9152D01*
Y9119D01*
X4631Y9102D01*
X4614D01*
X4597Y9119D01*
X4580Y9102D01*
X4564D01*
X4597Y9119D02*
Y9152D01*
X4818Y8987D02*
X4801Y8970D01*
Y8937D01*
X4818Y8920D01*
X4885D01*
X4902Y8937D01*
Y8970D01*
X4885Y8987D01*
X4902Y9089D02*
Y9021D01*
X4834Y9089D01*
X4818D01*
X4801Y9072D01*
Y9038D01*
X4818Y9021D01*
X4902Y9191D02*
Y9123D01*
X4834Y9191D01*
X4818D01*
X4801Y9174D01*
Y9140D01*
X4818Y9123D01*
X4157Y9025D02*
X4140Y9009D01*
Y8975D01*
X4157Y8958D01*
X4225D01*
X4242Y8975D01*
Y9009D01*
X4225Y9025D01*
X4242Y9127D02*
Y9059D01*
X4174Y9127D01*
X4157D01*
X4140Y9110D01*
Y9076D01*
X4157Y9059D01*
Y9161D02*
X4140Y9178D01*
Y9212D01*
X4157Y9229D01*
X4174D01*
X4191Y9212D01*
X4208Y9229D01*
X4225D01*
X4242Y9212D01*
Y9178D01*
X4225Y9161D01*
X4208D01*
X4191Y9178D01*
X4174Y9161D01*
X4157D01*
X4191Y9178D02*
Y9212D01*
X4030Y9025D02*
X4013Y9009D01*
Y8975D01*
X4030Y8958D01*
X4098D01*
X4115Y8975D01*
Y9009D01*
X4098Y9025D01*
X4115Y9127D02*
Y9059D01*
X4047Y9127D01*
X4030D01*
X4013Y9110D01*
Y9076D01*
X4030Y9059D01*
X4013Y9161D02*
Y9229D01*
X4030D01*
X4098Y9161D01*
X4115D01*
X3903Y9025D02*
X3886Y9009D01*
Y8975D01*
X3903Y8958D01*
X3971D01*
X3988Y8975D01*
Y9009D01*
X3971Y9025D01*
X3988Y9127D02*
Y9059D01*
X3920Y9127D01*
X3903D01*
X3886Y9110D01*
Y9076D01*
X3903Y9059D01*
X3886Y9229D02*
X3903Y9195D01*
X3937Y9161D01*
X3971D01*
X3988Y9178D01*
Y9212D01*
X3971Y9229D01*
X3954D01*
X3937Y9212D01*
Y9161D01*
X3281Y8865D02*
Y8966D01*
X3332D01*
X3349Y8949D01*
Y8915D01*
X3332Y8898D01*
X3281D01*
X3315D02*
X3349Y8865D01*
X3433D02*
Y8966D01*
X3382Y8915D01*
X3450D01*
X4691Y8987D02*
X4674Y8970D01*
Y8937D01*
X4691Y8920D01*
X4758D01*
X4775Y8937D01*
Y8970D01*
X4758Y8987D01*
X4775Y9089D02*
Y9021D01*
X4707Y9089D01*
X4691D01*
X4674Y9072D01*
Y9038D01*
X4691Y9021D01*
Y9123D02*
X4674Y9140D01*
Y9174D01*
X4691Y9191D01*
X4758D01*
X4775Y9174D01*
Y9140D01*
X4758Y9123D01*
X4691D01*
D16*
X3302Y6198D02*
X4064D01*
X3302Y5461D02*
Y6198D01*
Y5461D02*
X4064D01*
Y6198D01*
X2553Y7658D02*
X6439Y7658D01*
X7049Y6833D02*
X7049Y2883D01*
X6439Y7658D02*
X7226Y6871D01*
X7226Y2883D01*
X2553Y7480D02*
X6401Y7480D01*
X7049Y6833D01*
X3493Y8039D02*
X3619D01*
X3645Y8065D01*
Y8115D01*
X3619Y8141D01*
X3493D01*
X3518Y8191D02*
X3493Y8217D01*
Y8268D01*
X3518Y8293D01*
X3543D01*
X3569Y8268D01*
X3594Y8293D01*
X3619D01*
X3645Y8268D01*
Y8217D01*
X3619Y8191D01*
X3594D01*
X3569Y8217D01*
X3543Y8191D01*
X3518D01*
X3569Y8217D02*
Y8268D01*
X2743Y7976D02*
X2591D01*
Y8052D01*
X2616Y8077D01*
X2667D01*
X2692Y8052D01*
Y7976D01*
Y8026D02*
X2743Y8077D01*
X2591Y8230D02*
X2616Y8179D01*
X2667Y8128D01*
X2718D01*
X2743Y8153D01*
Y8204D01*
X2718Y8230D01*
X2692D01*
X2667Y8204D01*
Y8128D01*
X2756Y8890D02*
X2604D01*
Y8966D01*
X2629Y8992D01*
X2680D01*
X2705Y8966D01*
Y8890D01*
Y8941D02*
X2756Y8992D01*
X2604Y9144D02*
Y9042D01*
X2680D01*
X2654Y9093D01*
Y9119D01*
X2680Y9144D01*
X2730D01*
X2756Y9119D01*
Y9068D01*
X2730Y9042D01*
X3683Y7887D02*
Y7734D01*
X3785D01*
X3835D02*
X3886D01*
X3861D01*
Y7887D01*
X3835Y7861D01*
X3810Y8090D02*
X3785Y8065D01*
Y8014D01*
X3810Y7988D01*
X3912D01*
X3937Y8014D01*
Y8065D01*
X3912Y8090D01*
X3937Y8242D02*
Y8141D01*
X3835Y8242D01*
X3810D01*
X3785Y8217D01*
Y8166D01*
X3810Y8141D01*
X3785Y8395D02*
Y8293D01*
X3861D01*
X3835Y8344D01*
Y8369D01*
X3861Y8395D01*
X3912D01*
X3937Y8369D01*
Y8318D01*
X3912Y8293D01*
X2908Y8915D02*
X2883Y8890D01*
Y8839D01*
X2908Y8814D01*
X3010D01*
X3035Y8839D01*
Y8890D01*
X3010Y8915D01*
X3035Y9068D02*
Y8966D01*
X2934Y9068D01*
X2908D01*
X2883Y9042D01*
Y8992D01*
X2908Y8966D01*
X3035Y9195D02*
X2883D01*
X2959Y9119D01*
Y9220D01*
X3150Y8052D02*
X3124Y8077D01*
X3073D01*
X3048Y8052D01*
Y7950D01*
X3073Y7925D01*
X3124D01*
X3150Y7950D01*
X3302Y7925D02*
X3200D01*
X3302Y8026D01*
Y8052D01*
X3277Y8077D01*
X3226D01*
X3200Y8052D01*
X3353D02*
X3378Y8077D01*
X3429D01*
X3454Y8052D01*
Y8026D01*
X3429Y8001D01*
X3404D01*
X3429D01*
X3454Y7976D01*
Y7950D01*
X3429Y7925D01*
X3378D01*
X3353Y7950D01*
X2819Y7861D02*
X2794Y7836D01*
Y7785D01*
X2819Y7760D01*
X2921D01*
X2946Y7785D01*
Y7836D01*
X2921Y7861D01*
X2946Y8014D02*
Y7912D01*
X2845Y8014D01*
X2819D01*
X2794Y7988D01*
Y7938D01*
X2819Y7912D01*
X2946Y8064D02*
Y8115D01*
Y8090D01*
X2794D01*
X2819Y8064D01*
X4382Y5664D02*
Y5537D01*
X4407Y5512D01*
X4458D01*
X4483Y5537D01*
Y5664D01*
X4635Y5512D02*
X4534D01*
X4635Y5613D01*
Y5639D01*
X4610Y5664D01*
X4559D01*
X4534Y5639D01*
X5982Y7074D02*
Y7023D01*
Y7049D01*
X6109D01*
X6134Y7023D01*
Y6998D01*
X6109Y6972D01*
Y7125D02*
X6134Y7150D01*
Y7201D01*
X6109Y7226D01*
X6007D01*
X5982Y7201D01*
Y7150D01*
X6007Y7125D01*
X6033D01*
X6058Y7150D01*
Y7226D01*
X3835Y4229D02*
X3810Y4254D01*
X3759D01*
X3734Y4229D01*
Y4128D01*
X3759Y4102D01*
X3810D01*
X3835Y4128D01*
X3886Y4229D02*
X3912Y4254D01*
X3962D01*
X3988Y4229D01*
Y4204D01*
X3962Y4178D01*
X3937D01*
X3962D01*
X3988Y4153D01*
Y4128D01*
X3962Y4102D01*
X3912D01*
X3886Y4128D01*
X6007Y6071D02*
Y6020D01*
Y6045D01*
X6134D01*
X6159Y6020D01*
Y5994D01*
X6134Y5969D01*
X6033Y6121D02*
X6007Y6147D01*
Y6198D01*
X6033Y6223D01*
X6058D01*
X6083Y6198D01*
X6109Y6223D01*
X6134D01*
X6159Y6198D01*
Y6147D01*
X6134Y6121D01*
X6109D01*
X6083Y6147D01*
X6058Y6121D01*
X6033D01*
X6083Y6147D02*
Y6198D01*
X5258Y4877D02*
X5232Y4851D01*
Y4801D01*
X5258Y4775D01*
X5359D01*
X5385Y4801D01*
Y4851D01*
X5359Y4877D01*
X5385Y4928D02*
Y4978D01*
Y4953D01*
X5232D01*
X5258Y4928D01*
X5359Y5055D02*
X5385Y5080D01*
Y5131D01*
X5359Y5156D01*
X5258D01*
X5232Y5131D01*
Y5080D01*
X5258Y5055D01*
X5283D01*
X5309Y5080D01*
Y5156D01*
X6210Y9042D02*
Y9144D01*
X6185Y9169D01*
X6134D01*
X6109Y9144D01*
Y9042D01*
X6134Y9017D01*
X6185D01*
X6160Y9068D02*
X6210Y9017D01*
X6185D02*
X6210Y9042D01*
X6261Y9017D02*
X6312D01*
X6286D01*
Y9169D01*
X6261Y9144D01*
X3607Y8941D02*
X3581Y8915D01*
Y8865D01*
X3607Y8839D01*
X3708D01*
X3734Y8865D01*
Y8915D01*
X3708Y8941D01*
X3734Y8992D02*
Y9042D01*
Y9017D01*
X3581D01*
X3607Y8992D01*
X3581Y9119D02*
Y9220D01*
X3607D01*
X3708Y9119D01*
X3734D01*
X7531Y6255D02*
X7506Y6229D01*
Y6178D01*
X7531Y6153D01*
X7633D01*
X7658Y6178D01*
Y6229D01*
X7633Y6255D01*
X7658Y6305D02*
Y6356D01*
Y6331D01*
X7506D01*
X7531Y6305D01*
X7506Y6534D02*
X7531Y6483D01*
X7582Y6432D01*
X7633D01*
X7658Y6458D01*
Y6509D01*
X7633Y6534D01*
X7607D01*
X7582Y6509D01*
Y6432D01*
X10574Y4696D02*
Y4849D01*
X10650D01*
X10676Y4823D01*
Y4773D01*
X10650Y4747D01*
X10574D01*
X10726Y4823D02*
X10752Y4849D01*
X10803D01*
X10828Y4823D01*
Y4798D01*
X10803Y4773D01*
X10828Y4747D01*
Y4722D01*
X10803Y4696D01*
X10752D01*
X10726Y4722D01*
Y4747D01*
X10752Y4773D01*
X10726Y4798D01*
Y4823D01*
X10752Y4773D02*
X10803D01*
X10574Y4036D02*
Y4188D01*
X10650D01*
X10676Y4163D01*
Y4112D01*
X10650Y4087D01*
X10574D01*
X10726Y4188D02*
X10828D01*
Y4163D01*
X10726Y4061D01*
Y4036D01*
X10574Y6843D02*
Y6995D01*
X10650D01*
X10676Y6970D01*
Y6919D01*
X10650Y6894D01*
X10574D01*
X10828Y6995D02*
X10777Y6970D01*
X10726Y6919D01*
Y6868D01*
X10752Y6843D01*
X10803D01*
X10828Y6868D01*
Y6894D01*
X10803Y6919D01*
X10726D01*
X10574Y6157D02*
Y6309D01*
X10650D01*
X10676Y6284D01*
Y6233D01*
X10650Y6208D01*
X10574D01*
X10828Y6309D02*
X10726D01*
Y6233D01*
X10777Y6259D01*
X10803D01*
X10828Y6233D01*
Y6182D01*
X10803Y6157D01*
X10752D01*
X10726Y6182D01*
X10574Y9027D02*
Y9180D01*
X10650D01*
X10676Y9154D01*
Y9103D01*
X10650Y9078D01*
X10574D01*
X10803Y9027D02*
Y9180D01*
X10726Y9103D01*
X10828D01*
X10574Y8341D02*
Y8494D01*
X10650D01*
X10676Y8468D01*
Y8418D01*
X10650Y8392D01*
X10574D01*
X10726Y8468D02*
X10752Y8494D01*
X10803D01*
X10828Y8468D01*
Y8443D01*
X10803Y8418D01*
X10777D01*
X10803D01*
X10828Y8392D01*
Y8367D01*
X10803Y8341D01*
X10752D01*
X10726Y8367D01*
X7531Y8369D02*
Y8522D01*
X7607D01*
X7633Y8496D01*
Y8446D01*
X7607Y8420D01*
X7531D01*
X7785Y8369D02*
X7683D01*
X7785Y8471D01*
Y8496D01*
X7760Y8522D01*
X7709D01*
X7683Y8496D01*
X7010Y8369D02*
Y8522D01*
X7087D01*
X7112Y8496D01*
Y8446D01*
X7087Y8420D01*
X7010D01*
X7163Y8369D02*
X7214D01*
X7188D01*
Y8522D01*
X7163Y8496D01*
X7264Y6871D02*
X7391D01*
X7417Y6896D01*
Y6947D01*
X7391Y6972D01*
X7264D01*
Y7023D02*
Y7125D01*
X7290D01*
X7391Y7023D01*
X7417D01*
X6426Y3391D02*
X6553D01*
X6579Y3416D01*
Y3467D01*
X6553Y3493D01*
X6426D01*
Y3645D02*
X6452Y3594D01*
X6502Y3543D01*
X6553D01*
X6579Y3569D01*
Y3619D01*
X6553Y3645D01*
X6528D01*
X6502Y3619D01*
Y3543D01*
X7830Y5042D02*
X7957D01*
X7982Y5067D01*
Y5118D01*
X7957Y5144D01*
X7830D01*
Y5296D02*
Y5194D01*
X7906D01*
X7881Y5245D01*
Y5270D01*
X7906Y5296D01*
X7957D01*
X7982Y5270D01*
Y5220D01*
X7957Y5194D01*
X4801Y7074D02*
Y6947D01*
X4826Y6922D01*
X4877D01*
X4902Y6947D01*
Y7074D01*
X4953Y7048D02*
X4978Y7074D01*
X5029D01*
X5055Y7048D01*
Y7023D01*
X5029Y6998D01*
X5004D01*
X5029D01*
X5055Y6972D01*
Y6947D01*
X5029Y6922D01*
X4978D01*
X4953Y6947D01*
X3289Y6947D02*
Y6820D01*
X3315Y6795D01*
X3366D01*
X3391Y6820D01*
Y6947D01*
X3442Y6795D02*
X3492D01*
X3467D01*
Y6947D01*
X3442Y6921D01*
X3759Y3696D02*
Y3848D01*
X3835D01*
X3861Y3823D01*
Y3772D01*
X3835Y3747D01*
X3759D01*
X3810D02*
X3861Y3696D01*
X3912Y3823D02*
X3937Y3848D01*
X3988D01*
X4013Y3823D01*
Y3797D01*
X3988Y3772D01*
X3962D01*
X3988D01*
X4013Y3747D01*
Y3721D01*
X3988Y3696D01*
X3937D01*
X3912Y3721D01*
X5893Y7912D02*
Y8064D01*
X5969D01*
X5994Y8039D01*
Y7988D01*
X5969Y7963D01*
X5893D01*
X5944D02*
X5994Y7912D01*
X6147D02*
X6045D01*
X6147Y8014D01*
Y8039D01*
X6121Y8064D01*
X6071D01*
X6045Y8039D01*
X4420Y6312D02*
X4267D01*
Y6388D01*
X4293Y6414D01*
X4343D01*
X4369Y6388D01*
Y6312D01*
Y6363D02*
X4420Y6414D01*
Y6464D02*
Y6515D01*
Y6490D01*
X4267D01*
X4293Y6464D01*
X5705Y9030D02*
Y8979D01*
Y9005D01*
X5831D01*
X5857Y8979D01*
Y8954D01*
X5831Y8928D01*
X5705Y9081D02*
Y9182D01*
X5730D01*
X5831Y9081D01*
X5857D01*
X3264Y3480D02*
Y3429D01*
Y3454D01*
X3391D01*
X3416Y3429D01*
Y3404D01*
X3391Y3378D01*
X3264Y3632D02*
X3289Y3581D01*
X3340Y3531D01*
X3391D01*
X3416Y3556D01*
Y3607D01*
X3391Y3632D01*
X3365D01*
X3340Y3607D01*
Y3531D01*
X3264Y4369D02*
Y4318D01*
Y4343D01*
X3391D01*
X3416Y4318D01*
Y4293D01*
X3391Y4267D01*
X3264Y4521D02*
Y4420D01*
X3340D01*
X3315Y4470D01*
Y4496D01*
X3340Y4521D01*
X3391D01*
X3416Y4496D01*
Y4445D01*
X3391Y4420D01*
X3251Y5194D02*
Y5144D01*
Y5169D01*
X3378D01*
X3404Y5144D01*
Y5118D01*
X3378Y5093D01*
X3404Y5321D02*
X3251D01*
X3327Y5245D01*
Y5347D01*
X7848Y3723D02*
X7798D01*
X7823D01*
Y3596D01*
X7798Y3571D01*
X7772D01*
X7747Y3596D01*
X7899Y3698D02*
X7924Y3723D01*
X7975D01*
X8001Y3698D01*
Y3672D01*
X7975Y3647D01*
X7950D01*
X7975D01*
X8001Y3622D01*
Y3596D01*
X7975Y3571D01*
X7924D01*
X7899Y3596D01*
X3696Y6337D02*
Y6287D01*
Y6312D01*
X3823D01*
X3848Y6287D01*
Y6261D01*
X3823Y6236D01*
X3848Y6490D02*
Y6388D01*
X3747Y6490D01*
X3721D01*
X3696Y6464D01*
Y6413D01*
X3721Y6388D01*
X2705Y7137D02*
Y7087D01*
Y7112D01*
X2832D01*
X2857Y7087D01*
Y7061D01*
X2832Y7036D01*
X2857Y7188D02*
Y7239D01*
Y7214D01*
X2705D01*
X2731Y7188D01*
X4077Y3848D02*
Y3696D01*
X4153D01*
X4178Y3721D01*
Y3823D01*
X4153Y3848D01*
X4077D01*
X4229Y3823D02*
X4254Y3848D01*
X4305D01*
X4331Y3823D01*
Y3797D01*
X4305Y3772D01*
X4280D01*
X4305D01*
X4331Y3747D01*
Y3721D01*
X4305Y3696D01*
X4254D01*
X4229Y3721D01*
X5563Y8064D02*
Y7912D01*
X5639D01*
X5664Y7938D01*
Y8039D01*
X5639Y8064D01*
X5563D01*
X5817Y7912D02*
X5715D01*
X5817Y8014D01*
Y8039D01*
X5791Y8064D01*
X5740D01*
X5715Y8039D01*
X5197Y6591D02*
Y6439D01*
X5273D01*
X5299Y6464D01*
Y6566D01*
X5273Y6591D01*
X5197D01*
X5349Y6439D02*
X5400D01*
X5375D01*
Y6591D01*
X5349Y6566D01*
X6604Y6261D02*
X6579Y6236D01*
Y6185D01*
X6604Y6160D01*
X6706D01*
X6731Y6185D01*
Y6236D01*
X6706Y6261D01*
X6731Y6312D02*
Y6363D01*
Y6337D01*
X6579D01*
X6604Y6312D01*
X6579Y6540D02*
Y6439D01*
X6655D01*
X6629Y6490D01*
Y6515D01*
X6655Y6540D01*
X6706D01*
X6731Y6515D01*
Y6464D01*
X6706Y6439D01*
X7785Y4382D02*
X7760Y4356D01*
Y4305D01*
X7785Y4280D01*
X7887D01*
X7912Y4305D01*
Y4356D01*
X7887Y4382D01*
X7912Y4432D02*
Y4483D01*
Y4458D01*
X7760D01*
X7785Y4432D01*
X7912Y4635D02*
X7760D01*
X7836Y4559D01*
Y4661D01*
X7760Y5518D02*
X7734Y5493D01*
Y5442D01*
X7760Y5416D01*
X7861D01*
X7887Y5442D01*
Y5493D01*
X7861Y5518D01*
X7887Y5569D02*
Y5620D01*
Y5594D01*
X7734D01*
X7760Y5569D01*
Y5696D02*
X7734Y5721D01*
Y5772D01*
X7760Y5797D01*
X7785D01*
X7810Y5772D01*
Y5747D01*
Y5772D01*
X7836Y5797D01*
X7861D01*
X7887Y5772D01*
Y5721D01*
X7861Y5696D01*
X6452Y4401D02*
X6426Y4375D01*
Y4325D01*
X6452Y4299D01*
X6553D01*
X6579Y4325D01*
Y4375D01*
X6553Y4401D01*
X6579Y4452D02*
Y4502D01*
Y4477D01*
X6426D01*
X6452Y4452D01*
X6579Y4578D02*
Y4629D01*
Y4604D01*
X6426D01*
X6452Y4578D01*
X6636Y5131D02*
X6610Y5105D01*
Y5055D01*
X6636Y5029D01*
X6737D01*
X6763Y5055D01*
Y5105D01*
X6737Y5131D01*
X6763Y5181D02*
Y5232D01*
Y5207D01*
X6610D01*
X6636Y5181D01*
Y5308D02*
X6610Y5334D01*
Y5385D01*
X6636Y5410D01*
X6737D01*
X6763Y5385D01*
Y5334D01*
X6737Y5308D01*
X6636D01*
X4636Y4001D02*
X4610Y3975D01*
Y3924D01*
X4636Y3899D01*
X4737D01*
X4762Y3924D01*
Y3975D01*
X4737Y4001D01*
X4610Y4153D02*
X4636Y4102D01*
X4686Y4051D01*
X4737D01*
X4762Y4077D01*
Y4127D01*
X4737Y4153D01*
X4712D01*
X4686Y4127D01*
Y4051D01*
X4978Y6445D02*
X4953Y6420D01*
Y6369D01*
X4978Y6344D01*
X5080D01*
X5105Y6369D01*
Y6420D01*
X5080Y6445D01*
X4953Y6597D02*
Y6496D01*
X5029D01*
X5004Y6547D01*
Y6572D01*
X5029Y6597D01*
X5080D01*
X5105Y6572D01*
Y6521D01*
X5080Y6496D01*
X4166Y6790D02*
X4140Y6764D01*
Y6714D01*
X4166Y6688D01*
X4267D01*
X4293Y6714D01*
Y6764D01*
X4267Y6790D01*
X4293Y6917D02*
X4140D01*
X4216Y6841D01*
Y6942D01*
X5309Y5334D02*
X5283Y5359D01*
X5232D01*
X5207Y5334D01*
Y5232D01*
X5232Y5207D01*
X5283D01*
X5309Y5232D01*
X5461Y5207D02*
X5359D01*
X5461Y5309D01*
Y5334D01*
X5436Y5359D01*
X5385D01*
X5359Y5334D01*
X5137Y5690D02*
X5112Y5715D01*
X5061D01*
X5036Y5690D01*
Y5588D01*
X5061Y5563D01*
X5112D01*
X5137Y5588D01*
X5188Y5563D02*
X5239D01*
X5213D01*
Y5715D01*
X5188Y5690D01*
D17*
X4146Y4159D02*
X4231Y4244D01*
Y4159D02*
X4146Y4244D01*
X4189Y4159D02*
Y4244D01*
X4231Y4202D02*
X4146D01*
M02*
