G04*
G04 #@! TF.GenerationSoftware,Altium Limited,Altium Designer,21.9.1 (22)*
G04*
G04 Layer_Color=16711935*
%FSLAX42Y42*%
%MOMM*%
G71*
G04*
G04 #@! TF.SameCoordinates,B3A7D64E-7091-44AA-A069-5FD8CBDAA8E7*
G04*
G04*
G04 #@! TF.FilePolarity,Positive*
G04*
G01*
G75*
%ADD10C,0.20*%
%ADD12C,0.13*%
%ADD14C,0.15*%
%ADD16C,0.25*%
%ADD17C,0.08*%
%ADD88C,0.03*%
%ADD89C,0.10*%
D10*
X2973Y8764D02*
G03*
X2973Y8764I-10J0D01*
G01*
X5908Y8352D02*
G03*
X5908Y8352I-10J0D01*
G01*
X5156Y8763D02*
G03*
X5156Y8763I-10J0D01*
G01*
X9096Y7607D02*
G03*
X9096Y7607I-10J0D01*
G01*
X9100Y3467D02*
G03*
X9100Y3467I-10J0D01*
G01*
X9083Y5499D02*
G03*
X9083Y5499I-10J0D01*
G01*
X5346Y6160D02*
G03*
X5346Y6160I-10J0D01*
G01*
Y7099D02*
G03*
X5346Y7099I-10J0D01*
G01*
X7554Y2911D02*
G03*
X7554Y2911I-10J0D01*
G01*
X2616Y5448D02*
G03*
X2616Y5448I-10J0D01*
G01*
Y3708D02*
G03*
X2616Y3708I-10J0D01*
G01*
X2614Y4584D02*
G03*
X2614Y4584I-10J0D01*
G01*
D12*
X2439Y6969D02*
G03*
X2479Y6956I26J14D01*
G01*
X2414Y6951D02*
G03*
X2469Y6916I45J10D01*
G01*
X2479Y6196D02*
G03*
X2439Y6183I-14J-26D01*
G01*
X2469Y6236D02*
G03*
X2409Y6201I-13J-47D01*
G01*
X9011Y7607D02*
G03*
X9011Y7607I-400J0D01*
G01*
X9015Y3467D02*
G03*
X9015Y3467I-400J0D01*
G01*
X8998Y5499D02*
G03*
X8998Y5499I-400J0D01*
G01*
X3175Y8819D02*
X3565D01*
Y8329D02*
Y8819D01*
X3175Y8329D02*
Y8819D01*
Y8329D02*
X3565D01*
X2979Y6196D02*
Y6956D01*
X2544Y6196D02*
X2979D01*
X2474D02*
X2544D01*
X2474D02*
Y6956D01*
X2479D01*
X2979D01*
X2414Y6951D02*
X2439Y6969D01*
X2414Y6896D02*
X2469D01*
X2414Y6256D02*
Y6896D01*
Y6256D02*
X2469D01*
X2409Y6201D02*
X2439Y6183D01*
X2544Y5961D02*
Y6196D01*
X5953Y8829D02*
X6443D01*
Y8434D02*
Y8829D01*
X5953Y8434D02*
X6443D01*
X5953D02*
Y8829D01*
X5214Y8928D02*
X5734D01*
Y8221D02*
Y8928D01*
X5214Y8221D02*
X5734D01*
X5214D02*
Y8928D01*
X5404Y6324D02*
X5924D01*
Y5617D02*
Y6324D01*
X5404Y5617D02*
X5924D01*
X5404D02*
Y6324D01*
Y6557D02*
Y7264D01*
Y6557D02*
X5924D01*
Y7264D01*
X5404D02*
X5924D01*
X7379Y2978D02*
Y3499D01*
X8086D01*
Y2978D02*
Y3499D01*
X7379Y2978D02*
X8086D01*
X2674Y5613D02*
X3194D01*
Y4906D02*
Y5613D01*
X2674Y4906D02*
X3194D01*
X2674D02*
Y5613D01*
Y3166D02*
Y3873D01*
Y3166D02*
X3194D01*
Y3873D01*
X2674D02*
X3194D01*
X2672Y4042D02*
Y4749D01*
Y4042D02*
X3192D01*
Y4749D01*
X2672D02*
X3192D01*
D14*
X9153Y8329D02*
Y8639D01*
X9613D01*
Y8329D02*
Y8639D01*
X9153Y8329D02*
X9613D01*
X9021Y6093D02*
X9481D01*
Y6403D01*
X9021D02*
X9481D01*
X9021Y6093D02*
Y6403D01*
X9267Y4074D02*
Y4384D01*
X9727D01*
Y4074D02*
Y4384D01*
X9267Y4074D02*
X9727D01*
D16*
X2559Y6101D02*
X2599D01*
Y6081D01*
X2593Y6074D01*
X2579D01*
X2572Y6081D01*
Y6101D01*
X2593Y6033D02*
X2599Y6040D01*
Y6054D01*
X2593Y6060D01*
X2565D01*
X2559Y6054D01*
Y6040D01*
X2565Y6033D01*
X2599Y6020D02*
X2559D01*
Y6000D01*
X2565Y5993D01*
X2572D01*
X2579Y6000D01*
Y6020D01*
Y6000D01*
X2586Y5993D01*
X2593D01*
X2599Y6000D01*
Y6020D01*
Y5912D02*
Y5939D01*
X2559D01*
Y5912D01*
X2579Y5939D02*
Y5925D01*
X2559Y5898D02*
X2599D01*
X2559Y5871D01*
X2599D01*
Y5857D02*
X2559D01*
Y5837D01*
X2565Y5830D01*
X2593D01*
X2599Y5837D01*
Y5857D01*
D17*
X4184Y4397D02*
X4269Y4481D01*
Y4397D02*
X4184Y4481D01*
X4227Y4397D02*
Y4481D01*
X4269Y4439D02*
X4184D01*
D88*
X4187Y4390D02*
X4906D01*
X4187D02*
Y5109D01*
X4906D01*
Y4390D02*
Y5109D01*
X4187Y4517D02*
X4314Y4390D01*
X4244Y5109D02*
Y5210D01*
X4289D01*
Y5109D02*
Y5210D01*
X4244Y5109D02*
X4289D01*
X4324D02*
Y5210D01*
X4369D01*
Y5109D02*
Y5210D01*
X4324Y5109D02*
X4369D01*
X4404D02*
Y5210D01*
X4449D01*
Y5109D02*
Y5210D01*
X4404Y5109D02*
X4449D01*
X4484D02*
Y5210D01*
X4529D01*
Y5109D02*
Y5210D01*
X4484Y5109D02*
X4529D01*
X4564D02*
Y5210D01*
X4609D01*
Y5109D02*
Y5210D01*
X4564Y5109D02*
X4609D01*
X4644D02*
Y5210D01*
X4689D01*
Y5109D02*
Y5210D01*
X4644Y5109D02*
X4689D01*
X4724D02*
Y5210D01*
X4769D01*
Y5109D02*
Y5210D01*
X4724Y5109D02*
X4769D01*
X4804D02*
Y5210D01*
X4849D01*
Y5109D02*
Y5210D01*
X4804Y5109D02*
X4849D01*
X4906Y5052D02*
X5006D01*
Y5007D02*
Y5052D01*
X4906Y5007D02*
X5006D01*
X4906D02*
Y5052D01*
Y4972D02*
X5006D01*
Y4927D02*
Y4972D01*
X4906Y4927D02*
X5006D01*
X4906D02*
Y4972D01*
Y4892D02*
X5006D01*
Y4847D02*
Y4892D01*
X4906Y4847D02*
X5006D01*
X4906D02*
Y4892D01*
Y4812D02*
X5006D01*
Y4767D02*
Y4812D01*
X4906Y4767D02*
X5006D01*
X4906D02*
Y4812D01*
Y4732D02*
X5006D01*
Y4687D02*
Y4732D01*
X4906Y4687D02*
X5006D01*
X4906D02*
Y4732D01*
Y4652D02*
X5006D01*
Y4607D02*
Y4652D01*
X4906Y4607D02*
X5006D01*
X4906D02*
Y4652D01*
Y4572D02*
X5006D01*
Y4527D02*
Y4572D01*
X4906Y4527D02*
X5006D01*
X4906D02*
Y4572D01*
Y4492D02*
X5006D01*
Y4447D02*
Y4492D01*
X4906Y4447D02*
X5006D01*
X4906D02*
Y4492D01*
X4849Y4290D02*
Y4390D01*
X4804Y4290D02*
X4849D01*
X4804D02*
Y4390D01*
X4849D01*
X4769Y4290D02*
Y4390D01*
X4724Y4290D02*
X4769D01*
X4724D02*
Y4390D01*
X4769D01*
X4689Y4290D02*
Y4390D01*
X4644Y4290D02*
X4689D01*
X4644D02*
Y4390D01*
X4689D01*
X4609Y4290D02*
Y4390D01*
X4564Y4290D02*
X4609D01*
X4564D02*
Y4390D01*
X4609D01*
X4529Y4290D02*
Y4390D01*
X4484Y4290D02*
X4529D01*
X4484D02*
Y4390D01*
X4529D01*
X4449Y4290D02*
Y4390D01*
X4404Y4290D02*
X4449D01*
X4404D02*
Y4390D01*
X4449D01*
X4369Y4290D02*
Y4390D01*
X4324Y4290D02*
X4369D01*
X4324D02*
Y4390D01*
X4369D01*
X4289Y4290D02*
Y4390D01*
X4244Y4290D02*
X4289D01*
X4244D02*
Y4390D01*
X4289D01*
X4087Y4447D02*
X4187D01*
X4087D02*
Y4492D01*
X4187D01*
Y4447D02*
Y4492D01*
X4087Y4527D02*
X4187D01*
X4087D02*
Y4572D01*
X4187D01*
Y4527D02*
Y4572D01*
X4087Y4607D02*
X4187D01*
X4087D02*
Y4652D01*
X4187D01*
Y4607D02*
Y4652D01*
X4087Y4687D02*
X4187D01*
X4087D02*
Y4732D01*
X4187D01*
Y4687D02*
Y4732D01*
X4087Y4767D02*
X4187D01*
X4087D02*
Y4812D01*
X4187D01*
Y4767D02*
Y4812D01*
X4087Y4847D02*
X4187D01*
X4087D02*
Y4892D01*
X4187D01*
Y4847D02*
Y4892D01*
X4087Y4927D02*
X4187D01*
X4087D02*
Y4972D01*
X4187D01*
Y4927D02*
Y4972D01*
X4087Y5007D02*
X4187D01*
X4087D02*
Y5052D01*
X4187D01*
Y5007D02*
Y5052D01*
D89*
X7077Y5617D02*
G03*
X7077Y5617I-50J0D01*
G01*
X7079Y6747D02*
G03*
X7079Y6747I-50J0D01*
G01*
Y4499D02*
G03*
X7079Y4499I-50J0D01*
G01*
X3976Y7850D02*
Y8610D01*
X4736Y7850D02*
Y8610D01*
X3976D02*
X4736D01*
X3976Y7850D02*
X4736D01*
X4865Y8030D02*
Y8125D01*
X5040Y8030D02*
Y8125D01*
X4865D02*
X5040D01*
X4865Y8030D02*
X5040D01*
X4865Y8157D02*
Y8252D01*
X5040Y8157D02*
Y8252D01*
X4865D02*
X5040D01*
X4865Y8157D02*
X5040D01*
X4865Y8284D02*
Y8379D01*
X5040Y8284D02*
Y8379D01*
X4865D02*
X5040D01*
X4865Y8284D02*
X5040D01*
X4865Y8411D02*
Y8506D01*
X5040Y8411D02*
Y8506D01*
X4865D02*
X5040D01*
X4865Y8411D02*
X5040D01*
X4865Y8538D02*
Y8633D01*
X5040Y8538D02*
Y8633D01*
X4865D02*
X5040D01*
X4865Y8538D02*
X5040D01*
X4931Y8876D02*
X5026D01*
X4931Y8701D02*
X5026D01*
Y8876D01*
X4931Y8701D02*
Y8876D01*
X4804D02*
X4899D01*
X4804Y8701D02*
X4899D01*
Y8876D01*
X4804Y8701D02*
Y8876D01*
X4677D02*
X4772D01*
X4677Y8701D02*
X4772D01*
Y8876D01*
X4677Y8701D02*
Y8876D01*
X4550D02*
X4645D01*
X4550Y8701D02*
X4645D01*
Y8876D01*
X4550Y8701D02*
Y8876D01*
X2973Y8239D02*
X3148D01*
X2973Y8144D02*
X3148D01*
X2973D02*
Y8239D01*
X3148Y8144D02*
Y8239D01*
X3268Y9008D02*
X3438D01*
X3268Y9103D02*
X3438D01*
Y9008D02*
Y9103D01*
X3268Y9008D02*
Y9103D01*
X2880Y8625D02*
Y8800D01*
X2785Y8625D02*
Y8800D01*
X2880D01*
X2785Y8625D02*
X2880D01*
Y8345D02*
Y8520D01*
X2785Y8345D02*
Y8520D01*
X2880D01*
X2785Y8345D02*
X2880D01*
X2619Y8626D02*
Y8796D01*
X2715Y8626D02*
Y8796D01*
X2619Y8626D02*
X2715D01*
X2619Y8796D02*
X2715D01*
X2619Y8348D02*
Y8518D01*
X2715Y8348D02*
Y8518D01*
X2619Y8348D02*
X2715D01*
X2619Y8518D02*
X2715D01*
X3762Y8752D02*
Y8927D01*
X3858Y8752D02*
Y8927D01*
X3762Y8752D02*
X3858D01*
X3762Y8927D02*
X3858D01*
X3858Y8472D02*
Y8647D01*
X3762Y8472D02*
Y8647D01*
X3858D01*
X3762Y8472D02*
X3858D01*
X4017Y8927D02*
X4112D01*
X4017Y8752D02*
X4112D01*
Y8927D01*
X4017Y8752D02*
Y8927D01*
X4144D02*
X4238D01*
X4144Y8752D02*
X4238D01*
Y8927D01*
X4144Y8752D02*
Y8927D01*
X3890D02*
X3985D01*
X3890Y8752D02*
X3985D01*
Y8927D01*
X3890Y8752D02*
Y8927D01*
X5589Y7750D02*
Y7845D01*
X5764Y7750D02*
Y7845D01*
X5589D02*
X5764D01*
X5589Y7750D02*
X5764D01*
X9663Y4258D02*
Y4353D01*
X9488Y4258D02*
Y4353D01*
X9663D01*
X9488Y4258D02*
X9663D01*
X9422Y6290D02*
Y6385D01*
X9247Y6290D02*
Y6385D01*
X9422D01*
X9247Y6290D02*
X9422D01*
X9536Y8512D02*
Y8607D01*
X9361Y8512D02*
Y8607D01*
X9536D01*
X9361Y8512D02*
X9536D01*
X9663Y4105D02*
Y4200D01*
X9488Y4105D02*
Y4200D01*
X9663D01*
X9488Y4105D02*
X9663D01*
X9422Y6163D02*
Y6258D01*
X9247Y6163D02*
Y6258D01*
X9422D01*
X9247Y6163D02*
X9422D01*
X9536Y8360D02*
Y8455D01*
X9361Y8360D02*
Y8455D01*
X9536D01*
X9361Y8360D02*
X9536D01*
X9476Y3216D02*
Y3311D01*
X9301Y3216D02*
Y3311D01*
Y3216D02*
X9476D01*
X9301Y3311D02*
X9476D01*
X9224Y5447D02*
X9318D01*
X9224Y5272D02*
X9318D01*
Y5447D01*
X9224Y5272D02*
Y5447D01*
X9661Y7128D02*
Y7223D01*
X9486Y7128D02*
Y7223D01*
Y7128D02*
X9661D01*
X9486Y7223D02*
X9661D01*
X4266Y3902D02*
Y3997D01*
X4091Y3902D02*
Y3997D01*
Y3902D02*
X4266D01*
X4091Y3997D02*
X4266D01*
X5218Y6201D02*
Y6296D01*
X5043Y6201D02*
Y6296D01*
Y6201D02*
X5218D01*
X5043Y6296D02*
X5218D01*
X8872Y3915D02*
Y4010D01*
X8702Y3915D02*
Y4010D01*
Y3915D02*
X8872D01*
X8702Y4010D02*
X8872D01*
X8875Y4093D02*
Y4188D01*
X8705Y4093D02*
Y4188D01*
Y4093D02*
X8875D01*
X8705Y4188D02*
X8875D01*
Y4271D02*
Y4365D01*
X8705Y4271D02*
Y4365D01*
Y4271D02*
X8875D01*
X8705Y4365D02*
X8875D01*
X8474Y6207D02*
X8644D01*
X8474Y6112D02*
X8644D01*
X8474D02*
Y6207D01*
X8644Y6112D02*
Y6207D01*
X8474Y6029D02*
X8644D01*
X8474Y5934D02*
X8644D01*
X8474D02*
Y6029D01*
X8644Y5934D02*
Y6029D01*
X8475Y6385D02*
X8645D01*
X8475Y6290D02*
X8645D01*
X8475D02*
Y6385D01*
X8645Y6290D02*
Y6385D01*
X8875Y4448D02*
Y4543D01*
X8705Y4448D02*
Y4543D01*
Y4448D02*
X8875D01*
X8705Y4543D02*
X8875D01*
X9160Y3958D02*
X9255D01*
X9160Y3788D02*
X9255D01*
Y3958D01*
X9160Y3788D02*
Y3958D01*
X9325Y3458D02*
X9420D01*
X9325Y3628D02*
X9420D01*
X9325Y3458D02*
Y3628D01*
X9420Y3458D02*
Y3628D01*
X9585Y3456D02*
Y3631D01*
X9490Y3456D02*
Y3631D01*
X9585D01*
X9490Y3456D02*
X9585D01*
X8982Y5692D02*
Y5862D01*
X9077Y5692D02*
Y5862D01*
X8982Y5692D02*
X9077D01*
X8982Y5862D02*
X9077D01*
X9389Y5274D02*
Y5444D01*
X9484Y5274D02*
Y5444D01*
X9389Y5274D02*
X9484D01*
X9389Y5444D02*
X9484D01*
X9554Y5272D02*
Y5447D01*
X9649Y5272D02*
Y5447D01*
X9554Y5272D02*
X9649D01*
X9554Y5447D02*
X9649D01*
X8475Y6575D02*
X8645D01*
X8475Y6480D02*
X8645D01*
X8475D02*
Y6575D01*
X8645Y6480D02*
Y6575D01*
X8627Y8798D02*
X8797D01*
X8627Y8703D02*
X8797D01*
X8627D02*
Y8798D01*
X8797Y8703D02*
Y8798D01*
X8627Y8455D02*
X8797D01*
X8627Y8360D02*
X8797D01*
X8627D02*
Y8455D01*
X8797Y8360D02*
Y8455D01*
X8627Y8290D02*
X8797D01*
X8627Y8195D02*
X8797D01*
X8627D02*
Y8290D01*
X8797Y8195D02*
Y8290D01*
X8627Y8633D02*
X8797D01*
X8627Y8538D02*
X8797D01*
X8627D02*
Y8633D01*
X8797Y8538D02*
Y8633D01*
X9274Y7729D02*
X9369D01*
X9274Y7559D02*
X9369D01*
Y7729D01*
X9274Y7559D02*
Y7729D01*
X9788Y7501D02*
Y7676D01*
X9693Y7501D02*
Y7676D01*
X9788D01*
X9693Y7501D02*
X9788D01*
X9572Y7559D02*
Y7729D01*
X9478Y7559D02*
Y7729D01*
X9572D01*
X9478Y7559D02*
X9572D01*
X6937Y4707D02*
X7337D01*
X6937Y5707D02*
X7337D01*
Y4707D02*
Y5707D01*
X6937Y4707D02*
Y5707D01*
X6939Y5837D02*
Y6837D01*
X7339Y5837D02*
Y6837D01*
X6939D02*
X7339D01*
X6939Y5837D02*
X7339D01*
X6939Y3589D02*
Y4589D01*
X7339Y3589D02*
Y4589D01*
X6939D02*
X7339D01*
X6939Y3589D02*
X7339D01*
X4091Y4131D02*
Y4226D01*
X4266Y4131D02*
Y4226D01*
X4091D02*
X4266D01*
X4091Y4131D02*
X4266D01*
X5071Y5180D02*
X5166D01*
X5071Y5005D02*
X5166D01*
Y5180D01*
X5071Y5005D02*
Y5180D01*
X7547Y4376D02*
X7642D01*
X7547Y4551D02*
X7642D01*
X7547Y4376D02*
Y4551D01*
X7642Y4376D02*
Y4551D01*
X4804Y6580D02*
X4899D01*
X4804Y6755D02*
X4899D01*
X4804Y6580D02*
Y6755D01*
X4899Y6580D02*
Y6755D01*
X4474Y6499D02*
X4569D01*
X4474Y6328D02*
X4569D01*
Y6499D01*
X4474Y6328D02*
Y6499D01*
X4429Y6732D02*
Y6907D01*
X4334Y6732D02*
Y6907D01*
X4429D01*
X4334Y6732D02*
X4429D01*
X3802Y3902D02*
Y3997D01*
X3972Y3902D02*
Y3997D01*
X3802D02*
X3972D01*
X3802Y3902D02*
X3972D01*
X6054Y7750D02*
Y7845D01*
X5884Y7750D02*
Y7845D01*
Y7750D02*
X6054D01*
X5884Y7845D02*
X6054D01*
X5206Y5401D02*
Y5496D01*
X5031Y5401D02*
Y5496D01*
Y5401D02*
X5206D01*
X5031Y5496D02*
X5206D01*
X7534Y5501D02*
X7629D01*
X7534Y5676D02*
X7629D01*
X7534Y5501D02*
Y5676D01*
X7629Y5501D02*
Y5676D01*
X6645Y6631D02*
X6740D01*
X6645Y6806D02*
X6740D01*
X6645Y6631D02*
Y6806D01*
X6740Y6631D02*
Y6806D01*
X7534Y6618D02*
X7629D01*
X7534Y6793D02*
X7629D01*
X7534Y6618D02*
Y6793D01*
X7629Y6618D02*
Y6793D01*
X5117Y5236D02*
Y5331D01*
X4942Y5236D02*
Y5331D01*
Y5236D02*
X5117D01*
X4942Y5331D02*
X5117D01*
X4461Y3932D02*
X4556D01*
X4461Y4107D02*
X4556D01*
X4461Y3932D02*
Y4107D01*
X4556Y3932D02*
Y4107D01*
X6645Y5501D02*
X6740D01*
X6645Y5676D02*
X6740D01*
X6645Y5501D02*
Y5676D01*
X6740Y5501D02*
Y5676D01*
X6645Y4383D02*
X6740D01*
X6645Y4558D02*
X6740D01*
X6645Y4383D02*
Y4558D01*
X6740Y4383D02*
Y4558D01*
M02*
