G04*
G04 #@! TF.GenerationSoftware,Altium Limited,Altium Designer,21.9.1 (22)*
G04*
G04 Layer_Color=32768*
%FSLAX42Y42*%
%MOMM*%
G71*
G04*
G04 #@! TF.SameCoordinates,B3A7D64E-7091-44AA-A069-5FD8CBDAA8E7*
G04*
G04*
G04 #@! TF.FilePolarity,Positive*
G04*
G01*
G75*
%ADD15C,0.15*%
%ADD89C,0.10*%
%ADD90C,0.05*%
G36*
X4931Y4419D02*
Y4365D01*
X4877D01*
Y4229D01*
X4216D01*
Y4365D01*
X4162D01*
Y4419D01*
X4026D01*
Y5080D01*
X4162D01*
Y5135D01*
X4216D01*
Y5271D01*
X4877D01*
Y5135D01*
X4931D01*
Y5080D01*
X5067D01*
Y4419D01*
X4931D01*
D02*
G37*
D15*
Y5080D02*
Y5135D01*
Y5080D02*
X5067D01*
Y4419D02*
Y5080D01*
X4931Y4419D02*
X5067D01*
X4931Y4365D02*
Y4419D01*
X4162Y5080D02*
Y5135D01*
X4026Y5080D02*
X4162D01*
X4026Y4419D02*
Y5080D01*
Y4419D02*
X4162D01*
Y4365D02*
Y4419D01*
Y5135D02*
X4216D01*
Y5271D01*
X4877D01*
Y5135D02*
Y5271D01*
Y5135D02*
X4931D01*
X4162Y4365D02*
X4216D01*
Y4229D02*
Y4365D01*
Y4229D02*
X4877D01*
Y4365D01*
X4931D01*
D89*
X3901Y7825D02*
Y8635D01*
X4811Y7825D02*
Y8635D01*
X3901D02*
X4811D01*
X3901Y7825D02*
X4811D01*
X4306Y8230D02*
X4406D01*
X4356Y8180D02*
Y8280D01*
X4833Y8022D02*
Y8132D01*
X5073Y8022D02*
Y8132D01*
X4833D02*
X5073D01*
X4833Y8022D02*
X5073D01*
X4906Y8077D02*
X5001D01*
X4953Y8030D02*
Y8125D01*
X4833Y8149D02*
Y8259D01*
X5073Y8149D02*
Y8259D01*
X4833D02*
X5073D01*
X4833Y8149D02*
X5073D01*
X4906Y8204D02*
X5001D01*
X4953Y8157D02*
Y8252D01*
X4833Y8276D02*
Y8386D01*
X5073Y8276D02*
Y8386D01*
X4833D02*
X5073D01*
X4833Y8276D02*
X5073D01*
X4906Y8331D02*
X5001D01*
X4953Y8284D02*
Y8379D01*
X4833Y8403D02*
Y8513D01*
X5073Y8403D02*
Y8513D01*
X4833D02*
X5073D01*
X4833Y8403D02*
X5073D01*
X4906Y8458D02*
X5001D01*
X4953Y8411D02*
Y8506D01*
X4833Y8530D02*
Y8640D01*
X5073Y8530D02*
Y8640D01*
X4833D02*
X5073D01*
X4833Y8530D02*
X5073D01*
X4906Y8585D02*
X5001D01*
X4953Y8538D02*
Y8633D01*
X4923Y8908D02*
X5033D01*
X4923Y8668D02*
X5033D01*
Y8908D01*
X4923Y8668D02*
Y8908D01*
X4978Y8741D02*
Y8836D01*
X4931Y8788D02*
X5026D01*
X4796Y8908D02*
X4906D01*
X4796Y8668D02*
X4906D01*
Y8908D01*
X4796Y8668D02*
Y8908D01*
X4851Y8741D02*
Y8836D01*
X4804Y8788D02*
X4899D01*
X4669Y8908D02*
X4779D01*
X4669Y8668D02*
X4779D01*
Y8908D01*
X4669Y8668D02*
Y8908D01*
X4724Y8741D02*
Y8836D01*
X4677Y8788D02*
X4772D01*
X4542Y8908D02*
X4652D01*
X4542Y8668D02*
X4652D01*
Y8908D01*
X4542Y8668D02*
Y8908D01*
X4597Y8741D02*
Y8836D01*
X4550Y8788D02*
X4645D01*
X3061Y8144D02*
Y8239D01*
X3013Y8192D02*
X3108D01*
X2941Y8246D02*
X3181D01*
X2941Y8136D02*
X3181D01*
X2941D02*
Y8246D01*
X3181Y8136D02*
Y8246D01*
X3353Y9008D02*
Y9103D01*
X3305Y9055D02*
X3400D01*
X3233Y9000D02*
X3473D01*
X3233Y9110D02*
X3473D01*
Y9000D02*
Y9110D01*
X3233Y9000D02*
Y9110D01*
X2785Y8712D02*
X2880D01*
X2832Y8665D02*
Y8760D01*
X2887Y8592D02*
Y8832D01*
X2777Y8592D02*
Y8832D01*
X2887D01*
X2777Y8592D02*
X2887D01*
X2785Y8433D02*
X2880D01*
X2832Y8385D02*
Y8480D01*
X2887Y8313D02*
Y8553D01*
X2777Y8313D02*
Y8553D01*
X2887D01*
X2777Y8313D02*
X2887D01*
X2619Y8711D02*
X2715D01*
X2667Y8664D02*
Y8758D01*
X2612Y8591D02*
Y8831D01*
X2722Y8591D02*
Y8831D01*
X2612Y8591D02*
X2722D01*
X2612Y8831D02*
X2722D01*
X2619Y8433D02*
X2715D01*
X2667Y8385D02*
Y8480D01*
X2612Y8313D02*
Y8553D01*
X2722Y8313D02*
Y8553D01*
X2612Y8313D02*
X2722D01*
X2612Y8553D02*
X2722D01*
X3762Y8839D02*
X3858D01*
X3810Y8792D02*
Y8887D01*
X3755Y8719D02*
Y8959D01*
X3865Y8719D02*
Y8959D01*
X3755Y8719D02*
X3865D01*
X3755Y8959D02*
X3865D01*
X3762Y8560D02*
X3858D01*
X3810Y8512D02*
Y8607D01*
X3865Y8440D02*
Y8680D01*
X3755Y8440D02*
Y8680D01*
X3865D01*
X3755Y8440D02*
X3865D01*
X4009Y8959D02*
X4119D01*
X4009Y8719D02*
X4119D01*
Y8959D01*
X4009Y8719D02*
Y8959D01*
X4064Y8792D02*
Y8887D01*
X4017Y8839D02*
X4112D01*
X4136Y8959D02*
X4246D01*
X4136Y8719D02*
X4246D01*
Y8959D01*
X4136Y8719D02*
Y8959D01*
X4191Y8792D02*
Y8887D01*
X4144Y8839D02*
X4238D01*
X3882Y8959D02*
X3992D01*
X3882Y8719D02*
X3992D01*
Y8959D01*
X3882Y8719D02*
Y8959D01*
X3937Y8792D02*
Y8887D01*
X3890Y8839D02*
X3985D01*
X5557Y7743D02*
Y7853D01*
X5797Y7743D02*
Y7853D01*
X5557D02*
X5797D01*
X5557Y7743D02*
X5797D01*
X5629Y7798D02*
X5724D01*
X5677Y7750D02*
Y7845D01*
X9696Y4250D02*
Y4360D01*
X9456Y4250D02*
Y4360D01*
X9696D01*
X9456Y4250D02*
X9696D01*
X9528Y4305D02*
X9623D01*
X9576Y4258D02*
Y4353D01*
X9454Y6282D02*
Y6392D01*
X9214Y6282D02*
Y6392D01*
X9454D01*
X9214Y6282D02*
X9454D01*
X9287Y6337D02*
X9382D01*
X9335Y6290D02*
Y6385D01*
X9569Y8505D02*
Y8615D01*
X9329Y8505D02*
Y8615D01*
X9569D01*
X9329Y8505D02*
X9569D01*
X9401Y8560D02*
X9496D01*
X9449Y8512D02*
Y8607D01*
X9696Y4098D02*
Y4208D01*
X9456Y4098D02*
Y4208D01*
X9696D01*
X9456Y4098D02*
X9696D01*
X9528Y4153D02*
X9623D01*
X9576Y4105D02*
Y4200D01*
X9454Y6155D02*
Y6265D01*
X9214Y6155D02*
Y6265D01*
X9454D01*
X9214Y6155D02*
X9454D01*
X9287Y6210D02*
X9382D01*
X9335Y6163D02*
Y6258D01*
X9569Y8352D02*
Y8462D01*
X9329Y8352D02*
Y8462D01*
X9569D01*
X9329Y8352D02*
X9569D01*
X9401Y8407D02*
X9496D01*
X9449Y8360D02*
Y8455D01*
X9508Y3209D02*
Y3319D01*
X9268Y3209D02*
Y3319D01*
Y3209D02*
X9508D01*
X9268Y3319D02*
X9508D01*
X9341Y3264D02*
X9436D01*
X9388Y3216D02*
Y3311D01*
X9216Y5479D02*
X9326D01*
X9216Y5239D02*
X9326D01*
Y5479D01*
X9216Y5239D02*
Y5479D01*
X9271Y5312D02*
Y5407D01*
X9224Y5359D02*
X9318D01*
X9693Y7121D02*
Y7231D01*
X9453Y7121D02*
Y7231D01*
Y7121D02*
X9693D01*
X9453Y7231D02*
X9693D01*
X9525Y7175D02*
X9621D01*
X9573Y7128D02*
Y7223D01*
X4298Y3895D02*
Y4005D01*
X4058Y3895D02*
Y4005D01*
Y3895D02*
X4298D01*
X4058Y4005D02*
X4298D01*
X4131Y3950D02*
X4226D01*
X4178Y3902D02*
Y3997D01*
X5251Y6193D02*
Y6303D01*
X5011Y6193D02*
Y6303D01*
Y6193D02*
X5251D01*
X5011Y6303D02*
X5251D01*
X5083Y6248D02*
X5178D01*
X5131Y6201D02*
Y6296D01*
X8907Y3907D02*
Y4017D01*
X8667Y3907D02*
Y4017D01*
Y3907D02*
X8907D01*
X8667Y4017D02*
X8907D01*
X8740Y3962D02*
X8835D01*
X8787Y3915D02*
Y4010D01*
X8910Y4085D02*
Y4195D01*
X8670Y4085D02*
Y4195D01*
Y4085D02*
X8910D01*
X8670Y4195D02*
X8910D01*
X8742Y4140D02*
X8837D01*
X8790Y4093D02*
Y4188D01*
X8910Y4263D02*
Y4373D01*
X8670Y4263D02*
Y4373D01*
Y4263D02*
X8910D01*
X8670Y4373D02*
X8910D01*
X8742Y4318D02*
X8837D01*
X8790Y4271D02*
Y4365D01*
X8559Y6112D02*
Y6207D01*
X8511Y6160D02*
X8606D01*
X8439Y6215D02*
X8679D01*
X8439Y6104D02*
X8679D01*
X8439D02*
Y6215D01*
X8679Y6104D02*
Y6215D01*
X8559Y5934D02*
Y6029D01*
X8511Y5982D02*
X8606D01*
X8439Y6037D02*
X8679D01*
X8439Y5927D02*
X8679D01*
X8439D02*
Y6037D01*
X8679Y5927D02*
Y6037D01*
X8560Y6290D02*
Y6385D01*
X8512Y6337D02*
X8607D01*
X8440Y6392D02*
X8680D01*
X8440Y6282D02*
X8680D01*
X8440D02*
Y6392D01*
X8680Y6282D02*
Y6392D01*
X8910Y4441D02*
Y4551D01*
X8670Y4441D02*
Y4551D01*
Y4441D02*
X8910D01*
X8670Y4551D02*
X8910D01*
X8742Y4496D02*
X8837D01*
X8790Y4448D02*
Y4543D01*
X9153Y3994D02*
X9262D01*
X9153Y3753D02*
X9262D01*
Y3994D01*
X9153Y3753D02*
Y3994D01*
X9207Y3826D02*
Y3921D01*
X9160Y3874D02*
X9255D01*
X9318Y3423D02*
X9428D01*
X9318Y3663D02*
X9428D01*
X9318Y3423D02*
Y3663D01*
X9428Y3423D02*
Y3663D01*
X9373Y3496D02*
Y3591D01*
X9325Y3543D02*
X9420D01*
X9490D02*
X9585D01*
X9538Y3496D02*
Y3591D01*
X9593Y3423D02*
Y3663D01*
X9483Y3423D02*
Y3663D01*
X9593D01*
X9483Y3423D02*
X9593D01*
X8982Y5777D02*
X9077D01*
X9030Y5730D02*
Y5825D01*
X8975Y5657D02*
Y5897D01*
X9085Y5657D02*
Y5897D01*
X8975Y5657D02*
X9085D01*
X8975Y5897D02*
X9085D01*
X9389Y5359D02*
X9484D01*
X9436Y5312D02*
Y5407D01*
X9381Y5239D02*
Y5479D01*
X9491Y5239D02*
Y5479D01*
X9381Y5239D02*
X9491D01*
X9381Y5479D02*
X9491D01*
X9554Y5359D02*
X9649D01*
X9601Y5312D02*
Y5407D01*
X9546Y5239D02*
Y5479D01*
X9656Y5239D02*
Y5479D01*
X9546Y5239D02*
X9656D01*
X9546Y5479D02*
X9656D01*
X8560Y6480D02*
Y6575D01*
X8512Y6528D02*
X8607D01*
X8440Y6583D02*
X8680D01*
X8440Y6473D02*
X8680D01*
X8440D02*
Y6583D01*
X8680Y6473D02*
Y6583D01*
X8712Y8703D02*
Y8798D01*
X8665Y8750D02*
X8760D01*
X8592Y8805D02*
X8832D01*
X8592Y8695D02*
X8832D01*
X8592D02*
Y8805D01*
X8832Y8695D02*
Y8805D01*
X8712Y8360D02*
Y8455D01*
X8665Y8407D02*
X8760D01*
X8592Y8462D02*
X8832D01*
X8592Y8352D02*
X8832D01*
X8592D02*
Y8462D01*
X8832Y8352D02*
Y8462D01*
X8712Y8195D02*
Y8290D01*
X8665Y8242D02*
X8760D01*
X8592Y8297D02*
X8832D01*
X8592Y8187D02*
X8832D01*
X8592D02*
Y8297D01*
X8832Y8187D02*
Y8297D01*
X8712Y8538D02*
Y8633D01*
X8665Y8585D02*
X8760D01*
X8592Y8640D02*
X8832D01*
X8592Y8530D02*
X8832D01*
X8592D02*
Y8640D01*
X8832Y8530D02*
Y8640D01*
X9267Y7764D02*
X9377D01*
X9267Y7524D02*
X9377D01*
Y7764D01*
X9267Y7524D02*
Y7764D01*
X9322Y7597D02*
Y7692D01*
X9274Y7644D02*
X9369D01*
X9693Y7588D02*
X9788D01*
X9741Y7541D02*
Y7636D01*
X9796Y7468D02*
Y7708D01*
X9686Y7468D02*
Y7708D01*
X9796D01*
X9686Y7468D02*
X9796D01*
X9478Y7644D02*
X9572D01*
X9525Y7597D02*
Y7692D01*
X9580Y7524D02*
Y7764D01*
X9470Y7524D02*
Y7764D01*
X9580D01*
X9470Y7524D02*
X9580D01*
X7137Y5157D02*
Y5257D01*
X7087Y5207D02*
X7187D01*
X6762Y4682D02*
X7512D01*
X6762Y5732D02*
X7512D01*
Y4682D02*
Y5732D01*
X6762Y4682D02*
Y5732D01*
X6764Y5812D02*
Y6862D01*
X7514Y5812D02*
Y6862D01*
X6764D02*
X7514D01*
X6764Y5812D02*
X7514D01*
X7089Y6337D02*
X7189D01*
X7139Y6287D02*
Y6387D01*
X6764Y3564D02*
Y4614D01*
X7514Y3564D02*
Y4614D01*
X6764D02*
X7514D01*
X6764Y3564D02*
X7514D01*
X7089Y4089D02*
X7189D01*
X7139Y4039D02*
Y4139D01*
X4058Y4123D02*
Y4233D01*
X4298Y4123D02*
Y4233D01*
X4058D02*
X4298D01*
X4058Y4123D02*
X4298D01*
X4131Y4178D02*
X4226D01*
X4178Y4131D02*
Y4226D01*
X5063Y5213D02*
X5173D01*
X5063Y4973D02*
X5173D01*
Y5213D01*
X5063Y4973D02*
Y5213D01*
X5118Y5045D02*
Y5140D01*
X5071Y5093D02*
X5166D01*
X7540Y4344D02*
X7650D01*
X7540Y4584D02*
X7650D01*
X7540Y4344D02*
Y4584D01*
X7650Y4344D02*
Y4584D01*
X7595Y4416D02*
Y4511D01*
X7547Y4464D02*
X7642D01*
X4796Y6547D02*
X4906D01*
X4796Y6788D02*
X4906D01*
X4796Y6547D02*
Y6788D01*
X4906Y6547D02*
Y6788D01*
X4851Y6620D02*
Y6715D01*
X4804Y6668D02*
X4899D01*
X4466Y6533D02*
X4576D01*
X4466Y6294D02*
X4576D01*
Y6533D01*
X4466Y6294D02*
Y6533D01*
X4521Y6366D02*
Y6461D01*
X4474Y6414D02*
X4569D01*
X4334Y6820D02*
X4429D01*
X4381Y6772D02*
Y6867D01*
X4437Y6700D02*
Y6940D01*
X4326Y6700D02*
Y6940D01*
X4437D01*
X4326Y6700D02*
X4437D01*
X3767Y3895D02*
Y4005D01*
X4007Y3895D02*
Y4005D01*
X3767D02*
X4007D01*
X3767Y3895D02*
X4007D01*
X3840Y3950D02*
X3935D01*
X3887Y3902D02*
Y3997D01*
X6089Y7743D02*
Y7853D01*
X5849Y7743D02*
Y7853D01*
Y7743D02*
X6089D01*
X5849Y7853D02*
X6089D01*
X5922Y7798D02*
X6017D01*
X5969Y7750D02*
Y7845D01*
X5238Y5393D02*
Y5503D01*
X4998Y5393D02*
Y5503D01*
Y5393D02*
X5238D01*
X4998Y5503D02*
X5238D01*
X5071Y5448D02*
X5166D01*
X5118Y5401D02*
Y5496D01*
X7527Y5468D02*
X7637D01*
X7527Y5708D02*
X7637D01*
X7527Y5468D02*
Y5708D01*
X7637Y5468D02*
Y5708D01*
X7582Y5540D02*
Y5635D01*
X7534Y5588D02*
X7629D01*
X6638Y6598D02*
X6748D01*
X6638Y6838D02*
X6748D01*
X6638Y6598D02*
Y6838D01*
X6748Y6598D02*
Y6838D01*
X6693Y6671D02*
Y6766D01*
X6645Y6718D02*
X6740D01*
X7527Y6586D02*
X7637D01*
X7527Y6826D02*
X7637D01*
X7527Y6586D02*
Y6826D01*
X7637Y6586D02*
Y6826D01*
X7582Y6658D02*
Y6753D01*
X7534Y6706D02*
X7629D01*
X5149Y5228D02*
Y5338D01*
X4909Y5228D02*
Y5338D01*
Y5228D02*
X5149D01*
X4909Y5338D02*
X5149D01*
X4982Y5283D02*
X5077D01*
X5029Y5236D02*
Y5331D01*
X4453Y3899D02*
X4563D01*
X4453Y4139D02*
X4563D01*
X4453Y3899D02*
Y4139D01*
X4563Y3899D02*
Y4139D01*
X4508Y3972D02*
Y4067D01*
X4461Y4019D02*
X4556D01*
X6638Y5468D02*
X6748D01*
X6638Y5708D02*
X6748D01*
X6638Y5468D02*
Y5708D01*
X6748Y5468D02*
Y5708D01*
X6693Y5540D02*
Y5635D01*
X6645Y5588D02*
X6740D01*
X6638Y4350D02*
X6748D01*
X6638Y4590D02*
X6748D01*
X6638Y4350D02*
Y4590D01*
X6748Y4350D02*
Y4590D01*
X6693Y4423D02*
Y4518D01*
X6645Y4470D02*
X6740D01*
D90*
X9036Y7607D02*
G03*
X9036Y7607I-425J0D01*
G01*
X9040Y3467D02*
G03*
X9040Y3467I-425J0D01*
G01*
X9023Y5499D02*
G03*
X9023Y5499I-425J0D01*
G01*
X3742Y8304D02*
Y8844D01*
X2997Y8304D02*
Y8844D01*
Y8304D02*
X3742D01*
X2997Y8844D02*
X3742D01*
X2389Y6996D02*
X3049D01*
X2389Y6156D02*
Y6996D01*
Y6156D02*
X3049D01*
Y6996D01*
X5933Y8992D02*
X6463D01*
Y8261D02*
Y8992D01*
X5933Y8261D02*
X6463D01*
X5933D02*
Y8992D01*
X5189Y8953D02*
X5759D01*
Y8196D02*
Y8953D01*
X5189Y8196D02*
X5759D01*
X5189D02*
Y8953D01*
X5379Y6349D02*
X5949D01*
Y5592D02*
Y6349D01*
X5379Y5592D02*
X5949D01*
X5379D02*
Y6349D01*
Y6532D02*
Y7289D01*
Y6532D02*
X5949D01*
Y7289D01*
X5379D02*
X5949D01*
X7354Y2953D02*
Y3524D01*
X8111D01*
Y2953D02*
Y3524D01*
X7354Y2953D02*
X8111D01*
X2649Y5638D02*
X3219D01*
Y4881D02*
Y5638D01*
X2649Y4881D02*
X3219D01*
X2649D02*
Y5638D01*
Y3141D02*
Y3898D01*
Y3141D02*
X3219D01*
Y3898D01*
X2649D02*
X3219D01*
X2647Y4017D02*
Y4774D01*
Y4017D02*
X3217D01*
Y4774D01*
X2647D02*
X3217D01*
M02*
